<?xml version="1.0" encoding="UTF-8" standalone="no"?>
<!-- Created with Inkscape (http://www.inkscape.org/) -->

<svg
   width="68.217361mm"
   height="68.294395mm"
   viewBox="0 0 68.217361 68.294395"
   version="1.1"
   id="svg1"
   xml:space="preserve"
   inkscape:version="1.4.2 (ebf0e940d0, 2025-05-08)"
   sodipodi:docname="favicon.svg"
   xmlns:inkscape="http://www.inkscape.org/namespaces/inkscape"
   xmlns:sodipodi="http://sodipodi.sourceforge.net/DTD/sodipodi-0.dtd"
   xmlns="http://www.w3.org/2000/svg"
   xmlns:svg="http://www.w3.org/2000/svg"><sodipodi:namedview
     id="namedview1"
     pagecolor="#ffffff"
     bordercolor="#000000"
     borderopacity="0.25"
     inkscape:showpageshadow="2"
     inkscape:pageopacity="0.0"
     inkscape:pagecheckerboard="0"
     inkscape:deskcolor="#d1d1d1"
     inkscape:document-units="mm"
     inkscape:zoom="2.2649303"
     inkscape:cx="97.574747"
     inkscape:cy="137.97334"
     inkscape:window-width="1920"
     inkscape:window-height="1056"
     inkscape:window-x="0"
     inkscape:window-y="0"
     inkscape:window-maximized="1"
     inkscape:current-layer="layer1" /><defs
     id="defs1"><inkscape:path-effect
       effect="fill_between_many"
       method="originald"
       linkedpaths="#path3,0,1|"
       id="path-effect3" /><inkscape:path-effect
       effect="fill_between_many"
       method="originald"
       linkedpaths="#path2,0,1|"
       id="path-effect1" /></defs><g
     inkscape:label="Layer 1"
     inkscape:groupmode="layer"
     id="layer1"><path
       d="M 8.4493008,0.38937357 C 4.3136008,1.1350236 0.92901478,4.5545936 0.32663478,8.7331336 c -0.61245,4.2483804 -0.0794,8.9364104 -0.0794,13.2291704 v 26.193745 c 0,4.82804 -1.21889,11.45479 1.75613002,15.61041 3.612006,5.04538 9.4670662,4.23333 14.9126162,4.23333 H 45.75557 c 4.52908,0 9.85564,0.76854 14.2875,-0.177 4.08707,-0.87197 7.43947,-4.34663 7.89156,-8.55425 0.46348,-4.31367 0.0459,-8.88989 0.0459,-13.22916 V 19.845634 c 0,-4.84266 1.24018,-11.5347304 -1.95539,-15.6104204 C 62.19821,-0.64569639 56.29022,0.26646361 50.78261,0.26646361 H 22.472191 c -4.49413,0 -9.59975,-0.67458 -14.0229102,0.12290996 z"
       id="path1"
       style="fill:#ffffff"
       inkscape:original-d="M 0,0"
       inkscape:path-effect="#path-effect1" /><path
       style="display:inline;fill:#030303;stroke:none"
       d="M 8.4493008,0.38937357 C 4.3136008,1.1350236 0.92901478,4.5545936 0.32663478,8.7331336 c -0.61245,4.2483804 -0.0794,8.9364104 -0.0794,13.2291704 v 26.193745 c 0,4.82804 -1.21889,11.45479 1.75613002,15.61041 3.612006,5.04538 9.4670662,4.23333 14.9126162,4.23333 H 45.75557 c 4.52908,0 9.85564,0.76854 14.2875,-0.177 4.08707,-0.87197 7.43947,-4.34663 7.89156,-8.55425 0.46348,-4.31367 0.0459,-8.88989 0.0459,-13.22916 V 19.845634 c 0,-4.84266 1.24018,-11.5347304 -1.95539,-15.6104204 C 62.19821,-0.64569639 56.29022,0.26646361 50.78261,0.26646361 H 22.472191 c -4.49413,0 -9.59975,-0.67458 -14.0229102,0.12290996 m 0.52916,2.60908003 c 4.2763902,-0.71438 9.1570902,-0.0862 13.4937502,-0.0862 H 49.72428 c 4.63503,0 10.92787,-1.26172 14.14663,2.91144 2.6561,3.44367 1.46378,9.6565804 1.46378,13.7573104 v 34.131245 c 0,4.76195 0.0274,10.25509 -5.82083,11.50467 -4.24588,0.90722 -9.41686,0.137 -13.75833,0.137 H 17.974281 c -4.63765,0 -10.7385102,1.20071 -13.8112102,-3.17521 -2.483666,-3.53705 -1.27004,-9.90189 -1.27004,-14.02271 V 14.024754 c 0,-4.67914 0.29215,-10.0585604 6.08541,-11.0263504 m 9.5250002,9.4388504 v 42.333325 h 14.81667 c 4.17609,0 8.566119,-0.0466 12.170829,-2.47638 7.29713,-4.91872 6.26286,-17.565345 -2.91041,-19.484035 6.79845,-4.01003 8.0407,-14.13328 0.26458,-18.18683 -7.046639,-3.67329 -16.652949,-2.18608 -24.341669,-2.18608 m 8.46667,17.72708 v -11.1125 c 3.30834,0 7.63579,-0.72454 10.57925,1.11488 3.408349,2.12994 2.691019,7.78729 -0.78967,9.37515 -2.82118,1.28701 -6.75591,0.62247 -9.78958,0.62247 m 0.61328,5.980475 c 0.82798,-0.40742 2.19183,-0.15965 3.09089,-0.15965 2.88848,0 6.93176,-0.42822 9.24898,1.64405 2.749669,2.45902 2.651009,8.00909 -0.78252,9.81939 -2.63053,1.38693 -6.12808,0.97198 -8.99563,0.97198 -0.78855,0 -2.34227,0.28383 -2.90307,-0.42423 -0.47613,-0.60116 -0.27188,-1.77356 -0.27193,-2.48619 v -6.61458 c 5e-5,-0.80356 -0.27409,-2.31413 0.61328,-2.75077 z"
       id="path2"
       sodipodi:nodetypes="ccssssssssscssccssssssssssscccsccscccsccssssssccs" /></g></svg>
