<?xml version="1.0" encoding="UTF-8" standalone="no"?>
<svg width="210.058mm" height="296.926mm" viewBox="0 0 2977.2 4208.4"
 xmlns="http://www.w3.org/2000/svg" xmlns:xlink="http://www.w3.org/1999/xlink" version="1.2" baseProfile="full">
<title>Guitar #2</title>
<desc>Generated by MuseScore Studio 4.5.2</desc>
<path class="" fill="#ffffff" fill-rule="evenodd" d="M0,0 L2977.2,0 L2977.2,4208.4 L0,4208.4 L0,0 "/>
<polyline class="StaffLines" fill="none" stroke="#000000" stroke-width="2.73" stroke-linejoin="bevel" points="535.398,634.198 2764.6,634.198" />
<polyline class="StaffLines" fill="none" stroke="#000000" stroke-width="2.73" stroke-linejoin="bevel" points="535.398,658.998 2764.6,658.998" />
<polyline class="StaffLines" fill="none" stroke="#000000" stroke-width="2.73" stroke-linejoin="bevel" points="535.398,683.798 2764.6,683.798" />
<polyline class="StaffLines" fill="none" stroke="#000000" stroke-width="2.73" stroke-linejoin="bevel" points="535.398,708.598 2764.6,708.598" />
<polyline class="StaffLines" fill="none" stroke="#000000" stroke-width="2.73" stroke-linejoin="bevel" points="535.398,733.398 2764.6,733.398" />
<path class="Text" d="M1155.16,214.52 L1151.08,214.52 L1146.69,221.114 C1141.41,216.161 1134.47,213.52 1126.66,213.52 C1112.15,213.52 1102.58,222.661 1102.58,236.52 C1102.58,248.505 1108.52,254.442 1124.69,258.63 L1135.15,261.27 C1143.29,263.364 1144.05,263.583 1146.36,265.333 C1149.66,267.864 1151.43,271.505 1151.43,275.786 C1151.43,280.192 1149.77,283.817 1146.47,286.895 C1142.83,289.973 1139.21,291.192 1133.16,291.192 C1116.55,291.192 1108.3,278.973 1105.44,264.13 L1100.71,264.13 L1101.15,295.473 L1105.44,295.473 L1110.4,288.005 C1117.75,294.052 1123.8,296.255 1133.49,296.255 C1149.66,296.255 1160,286.786 1160,272.052 C1160,265.114 1157.8,259.395 1153.4,255.223 C1150.43,252.364 1146.15,250.489 1137.33,248.286 L1125.57,245.317 C1115.79,242.786 1111.16,238.505 1111.16,231.786 C1111.16,224.083 1117.43,218.802 1126.79,218.802 C1140.97,218.802 1148.79,230.583 1151.75,243.114 L1156.47,243.114 L1155.16,214.52 M1216.25,269.848 C1216.36,253.348 1207,241.692 1193.58,241.692 C1179.5,241.692 1168.94,253.895 1168.94,270.395 C1168.94,285.911 1178.96,296.255 1193.8,296.255 C1204.36,296.255 1211.74,291.083 1216.25,280.63 L1212.4,278.536 C1207.9,287.005 1203.27,290.302 1195.9,290.302 C1190.29,290.302 1186.22,288.005 1183.36,283.052 C1181.38,279.755 1180.5,275.895 1180.61,269.848 L1216.25,269.848 M1180.72,265.114 C1180.72,257.411 1184.24,246.411 1193.47,246.411 C1200.08,246.411 1204.47,252.255 1204.47,261.161 C1204.47,264.239 1203.49,265.114 1199.97,265.114 L1180.72,265.114 M1252.08,266.552 L1264.63,251.911 C1267.38,248.723 1269.91,247.302 1272.88,247.302 L1273.86,247.302 L1273.86,243.333 L1251.1,243.333 L1251.1,247.302 L1253.19,247.302 C1256.49,247.302 1258.15,248.067 1258.15,249.723 C1258.15,250.817 1257.36,252.364 1255.94,254.114 L1249,262.473 L1240.54,251.692 C1239.88,250.817 1239.44,249.942 1239.44,249.286 C1239.44,247.848 1240.86,247.302 1244.29,247.302 L1245.82,247.302 L1245.82,243.333 L1219.75,243.333 L1219.75,247.302 C1223.82,247.63 1225.36,248.614 1228.88,253.239 L1242.3,270.067 L1229.65,284.802 C1225.91,288.989 1222.72,290.755 1219.75,290.645 L1219.08,290.645 L1219.08,294.598 L1242.3,294.598 L1242.3,290.645 L1240.65,290.645 C1238.11,290.645 1237.57,290.536 1236.8,290.192 C1235.91,289.645 1235.25,288.661 1235.25,287.661 C1235.25,286.895 1235.58,285.911 1236.15,285.255 L1245.38,274.255 L1253.74,285.364 C1254.5,286.458 1255.16,287.895 1255.16,288.661 C1255.16,290.083 1253.52,290.645 1249.33,290.645 L1248.57,290.645 L1248.57,294.598 L1276.29,294.598 L1276.29,290.645 L1275.52,290.645 C1271.66,290.645 1269.15,289.208 1265.94,285.255 L1252.08,266.552 M1322.41,295.364 L1342.44,294.598 L1342.44,289.864 L1339.69,289.864 C1333.3,289.645 1332.75,288.989 1332.75,281.833 L1332.75,243.333 L1312.08,244.552 L1312.08,249.286 L1317.69,249.286 C1321.86,249.395 1322.41,250.052 1322.41,254.786 L1322.41,268.302 C1322.41,277.88 1320.11,289.536 1308,289.536 C1304.6,289.536 1301.74,288.333 1300.3,286.13 C1298.88,284.036 1298.66,282.942 1298.66,276.895 L1298.66,243.333 L1279.41,244.552 L1279.41,249.286 L1283.58,249.286 C1287.77,249.395 1288.32,250.052 1288.32,254.786 L1288.32,278.536 C1288.32,284.145 1288.75,286.677 1290.41,289.208 C1293.38,293.723 1298.66,296.255 1305.25,296.255 C1312.52,296.255 1317.58,293.286 1322.41,286.239 L1322.41,295.364 M1393.82,259.177 C1393.82,252.255 1392.61,248.723 1389.41,246.083 C1385.79,243.114 1380.4,241.692 1373.36,241.692 C1360.93,241.692 1351.91,247.52 1351.91,255.552 C1351.91,259.614 1354.44,262.255 1358.29,262.255 C1361.8,262.255 1364.22,259.942 1364.22,256.645 C1364.22,255.223 1363.68,253.677 1362.58,252.145 C1361.91,251.364 1361.8,251.145 1361.8,250.598 C1361.8,248.395 1366.21,246.411 1371.49,246.411 C1375,246.411 1378.86,247.52 1380.61,249.161 C1382.71,250.927 1383.47,253.567 1383.47,258.52 L1383.47,262.802 C1372.04,264.786 1368.41,265.661 1363.02,267.755 C1353.44,271.286 1348.94,276.333 1348.94,283.38 C1348.94,291.302 1355.1,296.255 1364.9,296.255 C1372.47,296.255 1379.3,293.161 1384.04,287.552 C1385.79,293.161 1388.54,295.364 1393.71,295.364 C1398.66,295.364 1403.83,292.177 1403.83,288.989 C1403.83,288.223 1403.4,287.661 1402.72,287.661 C1402.29,287.661 1401.85,287.786 1401.08,288.114 C1399.54,288.77 1398.88,288.88 1398,288.88 C1394.91,288.88 1393.82,286.895 1393.82,281.286 L1393.82,259.177 M1383.47,272.598 C1383.47,279.192 1383.15,280.739 1381.29,283.598 C1378.54,287.661 1373.58,290.411 1368.74,290.411 C1363.68,290.411 1360.05,286.786 1360.05,281.833 C1360.05,277.223 1362.36,273.911 1367.19,271.614 C1370.61,270.067 1374.9,268.973 1383.47,267.536 L1383.47,272.598 M1427.54,213.52 L1407.19,214.739 L1407.19,219.473 L1412.58,219.473 C1416.65,219.583 1417.19,220.239 1417.19,224.973 L1417.19,286.239 C1417.08,287.895 1416.97,288.552 1416.54,289.098 C1415.77,290.083 1413.68,290.536 1408.94,290.645 L1408.18,290.645 L1408.18,294.598 L1436.66,294.598 L1436.66,290.645 L1435.9,290.645 C1428.54,290.411 1427.54,289.864 1427.54,285.911 L1427.54,213.52 M1535.33,256.427 L1535.33,281.067 C1535.33,286.677 1535.33,286.895 1534.68,287.895 C1533.8,288.989 1531.71,289.427 1525.44,289.427 L1523.46,289.427 L1523.46,294.598 L1559.54,294.598 L1559.54,289.427 L1557.55,289.427 C1551.29,289.427 1549.19,288.989 1548.32,287.895 C1547.66,286.895 1547.66,286.786 1547.66,281.067 L1547.66,228.708 C1547.66,222.989 1547.66,222.88 1548.32,221.895 C1549.3,220.677 1551.29,220.348 1557.55,220.348 L1559.54,220.348 L1559.54,215.177 L1523.9,215.177 L1523.9,220.348 L1525.44,220.348 C1531.71,220.348 1533.69,220.677 1534.68,221.895 C1535.33,222.88 1535.33,223.098 1535.33,228.708 L1535.33,250.489 L1498.49,250.489 L1498.49,228.708 C1498.49,223.098 1498.49,222.88 1499.25,221.895 C1500.15,220.677 1502.11,220.348 1508.4,220.348 L1510.47,220.348 L1510.47,215.177 L1474.29,215.177 L1474.29,220.348 L1476.27,220.348 C1482.54,220.348 1484.52,220.677 1485.5,221.895 C1486.16,222.88 1486.16,223.098 1486.16,228.708 L1486.16,281.067 C1486.16,286.567 1486.16,286.895 1485.5,287.895 C1484.63,288.989 1482.54,289.427 1476.27,289.427 L1474.29,289.427 L1474.29,294.598 L1510.47,294.598 L1510.47,289.427 L1508.4,289.427 C1502.11,289.317 1500.15,288.989 1499.25,287.895 C1498.49,286.895 1498.49,286.677 1498.49,281.067 L1498.49,256.427 L1535.33,256.427 M1614.25,269.848 C1614.36,253.348 1605,241.692 1591.58,241.692 C1577.5,241.692 1566.94,253.895 1566.94,270.395 C1566.94,285.911 1576.96,296.255 1591.8,296.255 C1602.36,296.255 1609.74,291.083 1614.25,280.63 L1610.4,278.536 C1605.9,287.005 1601.27,290.302 1593.9,290.302 C1588.29,290.302 1584.22,288.005 1581.36,283.052 C1579.38,279.755 1578.5,275.895 1578.61,269.848 L1614.25,269.848 M1578.72,265.114 C1578.72,257.411 1582.24,246.411 1591.47,246.411 C1598.08,246.411 1602.47,252.255 1602.47,261.161 C1602.47,264.239 1601.49,265.114 1597.97,265.114 L1578.72,265.114 M1666.82,259.177 C1666.82,252.255 1665.61,248.723 1662.41,246.083 C1658.79,243.114 1653.4,241.692 1646.36,241.692 C1633.93,241.692 1624.91,247.52 1624.91,255.552 C1624.91,259.614 1627.44,262.255 1631.29,262.255 C1634.8,262.255 1637.22,259.942 1637.22,256.645 C1637.22,255.223 1636.68,253.677 1635.58,252.145 C1634.91,251.364 1634.8,251.145 1634.8,250.598 C1634.8,248.395 1639.21,246.411 1644.49,246.411 C1648,246.411 1651.86,247.52 1653.61,249.161 C1655.71,250.927 1656.47,253.567 1656.47,258.52 L1656.47,262.802 C1645.04,264.786 1641.41,265.661 1636.02,267.755 C1626.44,271.286 1621.94,276.333 1621.94,283.38 C1621.94,291.302 1628.1,296.255 1637.9,296.255 C1645.47,296.255 1652.3,293.161 1657.04,287.552 C1658.79,293.161 1661.54,295.364 1666.71,295.364 C1671.66,295.364 1676.83,292.177 1676.83,288.989 C1676.83,288.223 1676.4,287.661 1675.72,287.661 C1675.29,287.661 1674.85,287.786 1674.08,288.114 C1672.54,288.77 1671.88,288.88 1671,288.88 C1667.91,288.88 1666.82,286.895 1666.82,281.286 L1666.82,259.177 M1656.47,272.598 C1656.47,279.192 1656.15,280.739 1654.29,283.598 C1651.54,287.661 1646.58,290.411 1641.74,290.411 C1636.68,290.411 1633.05,286.786 1633.05,281.833 C1633.05,277.223 1635.36,273.911 1640.19,271.614 C1643.61,270.067 1647.9,268.973 1656.47,267.536 L1656.47,272.598 M1700.54,213.52 L1680.19,214.739 L1680.19,219.473 L1685.58,219.473 C1689.65,219.583 1690.19,220.239 1690.19,224.973 L1690.19,286.239 C1690.08,287.895 1689.97,288.552 1689.54,289.098 C1688.77,290.083 1686.68,290.536 1681.94,290.645 L1681.18,290.645 L1681.18,294.598 L1709.66,294.598 L1709.66,290.645 L1708.9,290.645 C1701.54,290.411 1700.54,289.864 1700.54,285.911 L1700.54,213.52 M1730.58,215.942 C1727.07,215.942 1724.21,218.802 1724.21,222.333 C1724.21,225.848 1727.07,228.708 1730.47,228.708 C1734.11,228.708 1736.97,225.848 1736.97,222.333 C1736.97,218.802 1734.11,215.942 1730.58,215.942 M1735.75,243.333 L1715.08,244.552 L1715.08,249.286 L1720.69,249.286 C1724.86,249.395 1725.41,250.052 1725.41,254.786 L1725.41,286.239 C1725.3,287.895 1725.19,288.552 1724.75,289.098 C1723.99,290.083 1721.9,290.536 1717.16,290.645 L1716.4,290.645 L1716.4,294.598 L1744.9,294.598 L1744.9,290.645 L1744.11,290.645 C1736.75,290.411 1735.75,289.864 1735.75,285.911 L1735.75,243.333 M1770.1,243.333 L1751.07,244.552 L1751.07,249.286 L1755.04,249.286 C1759.21,249.395 1759.75,250.052 1759.75,254.786 L1759.75,286.239 C1759.65,287.895 1759.54,288.552 1759.1,289.098 C1758.33,290.083 1756.24,290.536 1751.5,290.645 L1751.07,290.645 L1751.07,294.598 L1778.9,294.598 L1778.9,290.645 L1778.46,290.645 C1771.08,290.411 1770.1,289.864 1770.1,285.911 L1770.1,269.63 C1770.1,264.239 1770.86,259.286 1772.08,256.755 C1774.4,251.802 1779.33,248.395 1784.07,248.395 C1786.93,248.395 1790.22,249.942 1791.88,252.255 C1793.54,254.661 1794.3,257.973 1794.3,263.255 L1794.3,286.239 C1794.19,287.895 1794.08,288.552 1793.65,289.098 C1792.86,290.083 1790.66,290.536 1785.94,290.645 L1785.5,290.645 L1785.5,294.598 L1813.33,294.598 L1813.33,290.645 L1812.9,290.645 C1805.63,290.411 1804.65,289.864 1804.65,285.911 L1804.65,263.802 C1804.65,255.88 1804.3,253.895 1802.33,250.161 C1799.58,244.88 1794.08,241.692 1787.47,241.692 C1780.33,241.692 1774.94,244.989 1770.1,252.255 L1770.1,243.333 M1836.66,286.458 C1830.61,286.348 1830.29,286.239 1828.96,285.473 C1828.19,285.036 1827.65,283.817 1827.65,282.614 C1827.65,279.302 1830.61,277.88 1837.97,277.661 C1848.32,277.442 1849.97,277.223 1853.71,275.567 C1860.3,272.598 1863.94,266.88 1863.94,259.614 C1863.94,255.223 1862.94,252.473 1859.97,248.833 C1861.85,246.864 1862.83,246.192 1863.72,246.192 C1864.27,246.192 1864.6,246.536 1864.82,247.739 C1865.25,250.38 1867.02,251.802 1869.77,251.802 C1872.63,251.802 1874.72,249.505 1874.72,246.536 C1874.72,242.786 1871.75,240.145 1867.46,240.145 C1863.94,240.145 1861.96,241.255 1856.9,245.864 C1852.29,242.786 1848.75,241.692 1843.25,241.692 C1830.16,241.692 1821.58,248.942 1821.58,259.942 C1821.58,266.442 1825.11,271.942 1830.83,274.692 C1823.46,276.333 1820.38,279.645 1820.38,285.692 C1820.38,290.536 1822.58,293.395 1827.75,295.145 C1820.93,297.677 1817.63,301.083 1817.63,305.598 C1817.63,308.895 1819.83,311.973 1823.35,313.848 C1827.65,316.052 1832.91,316.927 1840.83,316.927 C1859.21,316.927 1868.33,311.098 1868.33,299.552 C1868.33,294.052 1865.8,289.645 1861.85,288.005 C1858.88,286.895 1855.36,286.458 1847.88,286.458 L1836.66,286.458 M1843.15,246.411 C1849.97,246.411 1853.82,251.145 1853.82,259.723 C1853.82,268.302 1849.65,273.473 1842.71,273.473 C1835.9,273.473 1831.6,268.302 1831.6,260.052 C1831.6,251.364 1835.79,246.411 1843.15,246.411 M1842.16,295.911 C1851.29,295.911 1851.94,295.911 1853.49,296.145 C1858,296.583 1860.65,299.005 1860.65,302.52 C1860.65,308.786 1853.49,312.411 1841.29,312.411 C1831.93,312.411 1826.75,309.661 1826.75,304.723 C1826.75,301.083 1828.74,298.661 1834.02,295.911 L1842.16,295.911 "/>
<path class="Text" d="M256.098,213.567 L253.442,213.567 L250.708,217.77 C246.161,214.192 243.083,213.005 237.973,213.005 C232.442,213.005 228.098,214.536 223.692,218.114 C216.755,223.708 213.536,230.786 213.536,240.239 C213.536,247.38 215.567,253.333 219.692,257.88 C224.036,262.786 230.473,265.645 237.208,265.645 C243.083,265.645 247.208,263.833 251.77,259.27 L254.348,265.583 L257.286,265.583 L257.286,250.177 C257.286,246.614 257.286,246.473 257.708,245.833 C258.348,245.067 259.598,244.864 263.598,244.864 L264.645,244.864 L264.645,241.567 L242.38,241.567 L242.38,244.864 L243.708,244.864 C249.598,244.864 250.083,245.208 250.083,249.13 C250.083,252.13 249.598,254.864 248.677,256.552 C246.927,259.973 242.458,262.364 237.895,262.364 C233.348,262.364 228.864,260.052 226.489,256.552 C223.895,252.63 222.786,247.723 222.786,240.239 C222.786,224.63 227.958,216.286 237.692,216.286 C245.677,216.286 251.208,222.036 254.067,233.239 L257.083,233.239 L256.098,213.567 M293.442,265.083 L306.177,264.598 L306.177,261.583 L304.427,261.583 C300.38,261.442 300.02,261.02 300.02,256.473 L300.02,231.973 L286.864,232.739 L286.864,235.755 L290.427,235.755 C293.098,235.833 293.442,236.239 293.442,239.255 L293.442,247.864 C293.442,253.958 291.973,261.38 284.27,261.38 C282.098,261.38 280.286,260.614 279.364,259.208 C278.458,257.88 278.317,257.177 278.317,253.333 L278.317,231.973 L266.067,232.739 L266.067,235.755 L268.723,235.755 C271.395,235.833 271.739,236.239 271.739,239.255 L271.739,254.38 C271.739,257.942 272.02,259.552 273.067,261.161 C274.958,264.036 278.317,265.645 282.52,265.645 C287.145,265.645 290.364,263.755 293.442,259.27 L293.442,265.083 M318.723,214.536 C316.489,214.536 314.677,216.364 314.677,218.598 C314.677,220.848 316.489,222.661 318.661,222.661 C320.973,222.661 322.786,220.848 322.786,218.598 C322.786,216.364 320.973,214.536 318.723,214.536 M322.02,231.973 L308.864,232.739 L308.864,235.755 L312.427,235.755 C315.083,235.833 315.442,236.239 315.442,239.255 L315.442,259.27 C315.364,260.333 315.302,260.755 315.02,261.098 C314.536,261.723 313.192,262.005 310.192,262.083 L309.692,262.083 L309.692,264.598 L327.833,264.598 L327.833,262.083 L327.333,262.083 C322.645,261.942 322.02,261.583 322.02,259.067 L322.02,231.973 M343.177,231.973 L343.177,218.114 L340.317,218.114 C339.614,227.208 336.536,231.833 330.864,232.255 L330.864,234.989 L336.598,234.989 L336.598,252.833 C336.598,257.739 336.739,259.489 337.442,261.098 C338.567,264.036 341.364,265.645 345.427,265.645 C351.723,265.645 355.786,260.895 355.786,253.473 C355.786,253.052 355.786,252.552 355.708,251.864 L352.77,251.864 C352.567,258.161 350.739,261.38 347.317,261.38 C345.708,261.38 344.302,260.536 343.817,259.348 C343.395,258.364 343.177,256.614 343.177,254.098 L343.177,234.989 L353.473,234.989 L353.473,231.973 L343.177,231.973 M388.239,242.052 C388.239,237.645 387.473,235.411 385.442,233.723 C383.13,231.833 379.708,230.927 375.223,230.927 C367.317,230.927 361.567,234.63 361.567,239.739 C361.567,242.333 363.177,244.02 365.63,244.02 C367.864,244.02 369.411,242.552 369.411,240.442 C369.411,239.536 369.067,238.552 368.364,237.583 C367.942,237.083 367.864,236.942 367.864,236.598 C367.864,235.192 370.677,233.942 374.036,233.942 C376.27,233.942 378.723,234.63 379.848,235.692 C381.177,236.802 381.661,238.489 381.661,241.63 L381.661,244.364 C374.38,245.63 372.067,246.192 368.645,247.52 C362.552,249.755 359.677,252.973 359.677,257.458 C359.677,262.505 363.598,265.645 369.833,265.645 C374.661,265.645 379.005,263.692 382.005,260.114 C383.13,263.692 384.88,265.083 388.177,265.083 C391.317,265.083 394.614,263.052 394.614,261.02 C394.614,260.536 394.333,260.192 393.911,260.192 C393.63,260.192 393.348,260.255 392.864,260.473 C391.88,260.895 391.458,260.958 390.895,260.958 C388.942,260.958 388.239,259.692 388.239,256.13 L388.239,242.052 M381.661,250.598 C381.661,254.802 381.458,255.77 380.255,257.598 C378.505,260.192 375.364,261.942 372.286,261.942 C369.067,261.942 366.755,259.63 366.755,256.473 C366.755,253.536 368.223,251.442 371.302,249.973 C373.473,248.989 376.208,248.286 381.661,247.38 L381.661,250.598 M409.458,231.973 L397.067,232.739 L397.067,235.755 L399.942,235.755 C402.598,235.833 402.942,236.239 402.942,239.255 L402.942,259.27 C402.88,260.333 402.802,260.755 402.536,261.098 C402.036,261.723 400.645,262.005 397.63,262.083 L397.348,262.083 L397.348,264.598 L416.036,264.598 L416.036,262.083 L414.786,262.083 C410.083,261.942 409.458,261.583 409.458,259.067 L409.458,255.286 C409.536,243.52 413.723,234.567 419.192,234.286 C418.208,235.411 417.927,236.098 417.927,237.442 C417.927,239.677 419.536,241.286 421.786,241.286 C424.364,241.286 426.052,239.395 426.052,236.598 C426.052,233.161 423.677,230.927 419.958,230.927 C415.552,230.927 411.77,234.427 409.458,240.661 L409.458,231.973 M455.052,248.63 L452.739,264.598 L457.286,264.598 L459.598,248.63 L468.208,248.63 L465.895,264.598 L470.458,264.598 L472.755,248.63 L480.395,248.63 L480.395,244.723 L473.317,244.723 L474.645,235.473 L482.286,235.473 L482.286,231.552 L475.208,231.552 L477.38,216.567 L472.833,216.567 L470.661,231.552 L462.052,231.552 L464.223,216.567 L459.677,216.567 L457.505,231.552 L449.802,231.552 L449.802,235.473 L456.942,235.473 L455.614,244.723 L447.911,244.723 L447.911,248.63 L455.052,248.63 M461.489,235.473 L470.098,235.473 L468.77,244.723 L460.161,244.723 L461.489,235.473 M519.958,249.473 L516.864,249.473 L516.177,253.052 C515.255,257.598 514.708,258.02 510.364,258.02 L494.677,258.02 C499.505,252.973 501.114,251.505 505.598,248.005 C511.973,243.098 514.708,240.661 516.317,238.552 C518.552,235.473 519.677,232.395 519.677,228.958 C519.677,220.989 513.098,215.317 503.927,215.317 C495.036,215.317 488.239,220.989 488.239,228.473 C488.239,232.88 490.473,235.895 493.77,235.895 C496.364,235.895 498.114,234.145 498.114,231.63 C498.114,229.88 497.13,228.27 495.661,227.63 C493.067,226.583 492.927,226.442 492.927,225.536 C492.927,224.489 493.63,222.88 494.614,221.677 C496.364,219.52 499.223,218.317 502.52,218.317 C508.333,218.317 511.755,221.895 511.755,227.77 C511.755,232.958 509.317,237.645 503.505,243.802 C498.317,249.27 495.098,252.692 493.911,254.02 C491.395,256.973 490.13,258.583 487.052,262.645 L487.052,264.598 L518.63,264.598 L519.958,249.473 "/>
<path class="InstrumentName" d="M243.098,651.083 L241.208,651.083 L239.255,654.083 C236.005,651.536 233.802,650.677 230.145,650.677 C226.192,650.677 223.098,651.786 219.942,654.333 C215.005,658.333 212.692,663.38 212.692,670.13 C212.692,675.239 214.145,679.489 217.098,682.739 C220.192,686.239 224.802,688.286 229.598,688.286 C233.802,688.286 236.755,686.989 240.005,683.739 L241.848,688.239 L243.958,688.239 L243.958,677.239 C243.958,674.692 243.958,674.583 244.255,674.13 C244.708,673.583 245.598,673.442 248.458,673.442 L249.208,673.442 L249.208,671.083 L233.302,671.083 L233.302,673.442 L234.255,673.442 C238.458,673.442 238.802,673.692 238.802,676.489 C238.802,678.63 238.458,680.583 237.802,681.786 C236.552,684.239 233.348,685.942 230.098,685.942 C226.848,685.942 223.645,684.286 221.942,681.786 C220.098,678.989 219.302,675.489 219.302,670.13 C219.302,658.989 223.005,653.036 229.942,653.036 C235.645,653.036 239.598,657.13 241.645,665.13 L243.802,665.13 L243.098,651.083 M270.192,687.88 L279.302,687.536 L279.302,685.38 L278.052,685.38 C275.145,685.286 274.895,684.989 274.895,681.739 L274.895,664.239 L265.505,664.786 L265.505,666.942 L268.052,666.942 C269.942,666.989 270.192,667.286 270.192,669.442 L270.192,675.583 C270.192,679.942 269.145,685.239 263.645,685.239 C262.098,685.239 260.802,684.692 260.145,683.692 C259.505,682.739 259.395,682.239 259.395,679.489 L259.395,664.239 L250.645,664.786 L250.645,666.942 L252.552,666.942 C254.442,666.989 254.692,667.286 254.692,669.442 L254.692,680.239 C254.692,682.786 254.895,683.942 255.645,685.083 C257.005,687.13 259.395,688.286 262.395,688.286 C265.692,688.286 268.005,686.942 270.192,683.739 L270.192,687.88 M288.552,651.786 C286.942,651.786 285.645,653.083 285.645,654.677 C285.645,656.286 286.942,657.583 288.505,657.583 C290.145,657.583 291.442,656.286 291.442,654.677 C291.442,653.083 290.145,651.786 288.552,651.786 M290.895,664.239 L281.505,664.786 L281.505,666.942 L284.052,666.942 C285.942,666.989 286.192,667.286 286.192,669.442 L286.192,683.739 C286.145,684.489 286.098,684.786 285.895,685.036 C285.552,685.489 284.598,685.692 282.442,685.739 L282.098,685.739 L282.098,687.536 L295.052,687.536 L295.052,685.739 L294.692,685.739 C291.348,685.63 290.895,685.38 290.895,683.583 L290.895,664.239 M306.302,664.239 L306.302,654.333 L304.255,654.333 C303.755,660.833 301.552,664.13 297.505,664.442 L297.505,666.38 L301.598,666.38 L301.598,679.13 C301.598,682.63 301.692,683.88 302.192,685.036 C303.005,687.13 305.005,688.286 307.895,688.286 C312.395,688.286 315.302,684.88 315.302,679.583 C315.302,679.286 315.302,678.942 315.255,678.442 L313.145,678.442 C313.005,682.942 311.692,685.239 309.255,685.239 C308.098,685.239 307.098,684.63 306.755,683.786 C306.442,683.083 306.302,681.833 306.302,680.036 L306.302,666.38 L313.645,666.38 L313.645,664.239 L306.302,664.239 M338.192,671.442 C338.192,668.286 337.645,666.692 336.192,665.489 C334.552,664.13 332.098,663.489 328.895,663.489 C323.255,663.489 319.145,666.13 319.145,669.786 C319.145,671.63 320.302,672.833 322.052,672.833 C323.645,672.833 324.755,671.786 324.755,670.286 C324.755,669.63 324.505,668.942 324.005,668.239 C323.692,667.88 323.645,667.786 323.645,667.536 C323.645,666.536 325.645,665.63 328.052,665.63 C329.645,665.63 331.395,666.13 332.192,666.88 C333.145,667.692 333.505,668.88 333.505,671.13 L333.505,673.083 C328.302,673.989 326.645,674.38 324.192,675.333 C319.848,676.942 317.802,679.239 317.802,682.442 C317.802,686.036 320.598,688.286 325.052,688.286 C328.505,688.286 331.598,686.88 333.755,684.333 C334.552,686.88 335.802,687.88 338.145,687.88 C340.395,687.88 342.755,686.442 342.755,684.989 C342.755,684.63 342.552,684.38 342.255,684.38 C342.052,684.38 341.848,684.442 341.505,684.583 C340.802,684.88 340.505,684.942 340.098,684.942 C338.692,684.942 338.192,684.036 338.192,681.489 L338.192,671.442 M333.505,677.536 C333.505,680.536 333.348,681.239 332.505,682.536 C331.255,684.38 329.005,685.63 326.802,685.63 C324.505,685.63 322.848,683.989 322.848,681.739 C322.848,679.63 323.895,678.13 326.098,677.083 C327.645,676.38 329.598,675.88 333.505,675.239 L333.505,677.536 M353.505,664.239 L344.645,664.786 L344.645,666.942 L346.692,666.942 C348.598,666.989 348.848,667.286 348.848,669.442 L348.848,683.739 C348.802,684.489 348.755,684.786 348.552,685.036 C348.192,685.489 347.192,685.692 345.052,685.739 L344.848,685.739 L344.848,687.536 L358.192,687.536 L358.192,685.739 L357.302,685.739 C353.942,685.63 353.505,685.38 353.505,683.583 L353.505,680.88 C353.552,672.489 356.552,666.083 360.442,665.88 C359.755,666.692 359.552,667.192 359.552,668.13 C359.552,669.739 360.692,670.88 362.302,670.88 C364.145,670.88 365.348,669.536 365.348,667.536 C365.348,665.083 363.645,663.489 361.005,663.489 C357.848,663.489 355.145,665.989 353.505,670.442 L353.505,664.239 M386.348,676.13 L384.692,687.536 L387.942,687.536 L389.598,676.13 L395.755,676.13 L394.098,687.536 L397.348,687.536 L399.005,676.13 L404.442,676.13 L404.442,673.333 L399.395,673.333 L400.348,666.739 L405.802,666.739 L405.802,663.942 L400.755,663.942 L402.302,653.239 L399.052,653.239 L397.505,663.942 L391.348,663.942 L392.895,653.239 L389.645,653.239 L388.098,663.942 L382.598,663.942 L382.598,666.739 L387.692,666.739 L386.755,673.333 L381.255,673.333 L381.255,676.13 L386.348,676.13 M390.942,666.739 L397.098,666.739 L396.145,673.333 L390.005,673.333 L390.942,666.739 M432.848,676.739 L430.645,676.739 L430.145,679.286 C429.505,682.536 429.098,682.833 426.005,682.833 L414.802,682.833 C418.255,679.239 419.395,678.192 422.598,675.692 C427.145,672.192 429.098,670.442 430.255,668.942 C431.848,666.739 432.645,664.536 432.645,662.083 C432.645,656.38 427.942,652.333 421.395,652.333 C415.052,652.333 410.192,656.38 410.192,661.739 C410.192,664.88 411.802,667.036 414.145,667.036 C416.005,667.036 417.255,665.786 417.255,663.989 C417.255,662.739 416.552,661.583 415.505,661.13 C413.645,660.38 413.552,660.286 413.552,659.63 C413.552,658.88 414.052,657.739 414.755,656.88 C416.005,655.333 418.052,654.489 420.395,654.489 C424.552,654.489 427.005,657.036 427.005,661.239 C427.005,664.942 425.255,668.286 421.098,672.692 C417.395,676.583 415.098,679.036 414.255,679.989 C412.442,682.083 411.552,683.239 409.348,686.13 L409.348,687.536 L431.895,687.536 L432.848,676.739 "/>
<path class="InstrumentName" d="M461.13,645.27 C460.619,645.27 460.184,645.442 459.825,645.786 C459.466,646.13 459.286,646.546 459.286,647.036 L459.286,691.02 C459.286,691.999 459.645,692.83 460.364,693.512 C461.083,694.195 461.937,694.536 462.927,694.536 L506.677,694.536 C507.687,694.536 508.546,694.195 509.255,693.512 C509.963,692.83 510.317,691.999 510.317,691.02 L510.317,647.036 C510.317,646.546 510.143,646.13 509.794,645.786 C509.445,645.442 509.015,645.27 508.505,645.27 L461.13,645.27 M508.552,657.583 L508.552,691.02 C508.552,691.51 508.382,691.927 508.044,692.27 C507.705,692.614 507.291,692.786 506.802,692.786 L499.77,692.786 C499.281,692.786 498.864,692.614 498.52,692.27 C498.177,691.927 498.005,691.51 498.005,691.02 L498.005,680.458 C498.494,680.458 498.911,680.286 499.255,679.942 C499.598,679.598 499.77,679.182 499.77,678.692 L499.77,657.583 L508.552,657.583 M494.489,657.583 L494.489,678.692 C494.489,679.182 494.661,679.598 495.005,679.942 C495.348,680.286 495.765,680.458 496.255,680.458 L496.255,691.02 C496.255,691.51 496.08,691.927 495.731,692.27 C495.382,692.614 494.968,692.786 494.489,692.786 L487.442,692.786 C486.973,692.786 486.562,692.614 486.208,692.27 C485.854,691.927 485.677,691.51 485.677,691.02 L485.677,680.458 C486.166,680.458 486.583,680.286 486.927,679.942 C487.27,679.598 487.442,679.182 487.442,678.692 L487.442,657.583 L494.489,657.583 M482.161,657.583 L482.161,678.692 C482.161,679.182 482.333,679.598 482.677,679.942 C483.02,680.286 483.437,680.458 483.927,680.458 L483.927,691.02 C483.927,691.51 483.755,691.927 483.411,692.27 C483.067,692.614 482.651,692.786 482.161,692.786 L475.13,692.786 C474.651,692.786 474.239,692.614 473.895,692.27 C473.552,691.927 473.38,691.51 473.38,691.02 L473.38,680.458 C473.869,680.458 474.283,680.286 474.622,679.942 C474.96,679.598 475.13,679.182 475.13,678.692 L475.13,657.583 L482.161,657.583 M469.864,657.583 L469.864,678.692 C469.864,679.182 470.036,679.598 470.38,679.942 C470.723,680.286 471.135,680.458 471.614,680.458 L471.614,691.02 C471.614,691.51 471.44,691.927 471.091,692.27 C470.742,692.614 470.333,692.786 469.864,692.786 L462.802,692.786 C462.312,692.786 461.898,692.614 461.559,692.27 C461.221,691.927 461.052,691.51 461.052,691.02 L461.052,657.583 L469.864,657.583 "/>
<polyline class="BarLine" fill="none" stroke="#000000" stroke-width="4.46" stroke-linejoin="bevel" points="923.132,632.834 923.132,734.762" />
<polyline class="BarLine" fill="none" stroke="#000000" stroke-width="4.46" stroke-linejoin="bevel" points="1831.34,632.834 1831.34,734.762" />
<polyline class="BarLine" fill="none" stroke="#000000" stroke-width="4.46" stroke-linejoin="bevel" points="2739.55,632.834 2739.55,734.762" />
<polyline class="BarLine" fill="none" stroke="#000000" stroke-width="13.64" stroke-linejoin="bevel" points="2757.78,632.834 2757.78,734.762" />
<polyline class="LedgerLine" fill="none" stroke="#000000" stroke-width="3.97" stroke-linejoin="bevel" points="1102.67,758.198 1151.26,758.198" />
<polyline class="LedgerLine" fill="none" stroke="#000000" stroke-width="3.97" stroke-linejoin="bevel" points="2165.36,758.198 2213.95,758.198" />
<polyline class="LedgerLine" fill="none" stroke="#000000" stroke-width="3.97" stroke-linejoin="bevel" points="1040.87,758.198 1089.46,758.198" />
<polyline class="LedgerLine" fill="none" stroke="#000000" stroke-width="3.97" stroke-linejoin="bevel" points="2227.15,758.198 2275.75,758.198" />
<polyline class="LedgerLine" fill="none" stroke="#000000" stroke-width="3.97" stroke-linejoin="bevel" points="1473.43,758.198 1522.02,758.198" />
<polyline class="LedgerLine" fill="none" stroke="#000000" stroke-width="3.97" stroke-linejoin="bevel" points="1535.22,758.198 1583.82,758.198" />
<polyline class="LedgerLine" fill="none" stroke="#000000" stroke-width="3.97" stroke-linejoin="bevel" points="2010.88,758.198 2059.47,758.198" />
<polyline class="LedgerLine" fill="none" stroke="#000000" stroke-width="3.97" stroke-linejoin="bevel" points="1257.15,758.198 1305.74,758.198" />
<polyline class="LedgerLine" fill="none" stroke="#000000" stroke-width="3.97" stroke-linejoin="bevel" points="1318.94,758.198 1367.54,758.198" />
<polyline class="LedgerLine" fill="none" stroke="#000000" stroke-width="3.97" stroke-linejoin="bevel" points="1689.71,758.198 1738.3,758.198" />
<polyline class="LedgerLine" fill="none" stroke="#000000" stroke-width="3.97" stroke-linejoin="bevel" points="1751.5,758.198 1800.09,758.198" />
<polyline class="LedgerLine" fill="none" stroke="#000000" stroke-width="3.97" stroke-linejoin="bevel" points="1949.08,758.198 1997.67,758.198" />
<polyline class="Stem" fill="none" stroke="#000000" stroke-width="2.48" stroke-linejoin="bevel" points="2637.09,729.43 2637.09,615.479" />
<polyline class="Stem" fill="none" stroke="#000000" stroke-width="2.48" stroke-linejoin="bevel" points="1574.39,754.23 1574.39,634.318" />
<polyline class="Stem" fill="none" stroke="#000000" stroke-width="2.48" stroke-linejoin="bevel" points="2482.6,729.43 2482.6,609.518" />
<polyline class="Stem" fill="none" stroke="#000000" stroke-width="2.48" stroke-linejoin="bevel" points="2420.81,729.43 2420.81,615.479" />
<polyline class="Stem" fill="none" stroke="#000000" stroke-width="2.48" stroke-linejoin="bevel" points="1296.32,766.63 1296.32,640.279" />
<polyline class="Stem" fill="none" stroke="#000000" stroke-width="2.48" stroke-linejoin="bevel" points="2266.32,754.23 2266.32,615.718" />
<polyline class="Stem" fill="none" stroke="#000000" stroke-width="2.48" stroke-linejoin="bevel" points="1728.88,754.23 1728.88,640.279" />
<polyline class="Stem" fill="none" stroke="#000000" stroke-width="2.48" stroke-linejoin="bevel" points="2050.04,754.23 2050.04,615.598" />
<polyline class="Stem" fill="none" stroke="#000000" stroke-width="2.48" stroke-linejoin="bevel" points="1358.11,766.63 1358.11,634.318" />
<polyline class="Stem" fill="none" stroke="#000000" stroke-width="2.48" stroke-linejoin="bevel" points="1988.25,754.23 1988.25,615.598" />
<polyline class="Stem" fill="none" stroke="#000000" stroke-width="2.48" stroke-linejoin="bevel" points="1080.04,766.63 1080.04,640.398" />
<polyline class="Stem" fill="none" stroke="#000000" stroke-width="2.48" stroke-linejoin="bevel" points="1512.6,754.23 1512.6,640.279" />
<polyline class="Stem" fill="none" stroke="#000000" stroke-width="2.48" stroke-linejoin="bevel" points="1790.67,754.23 1790.67,634.318" />
<polyline class="Stem" fill="none" stroke="#000000" stroke-width="2.48" stroke-linejoin="bevel" points="1141.83,766.63 1141.83,640.398" />
<polyline class="Stem" fill="none" stroke="#000000" stroke-width="2.48" stroke-linejoin="bevel" points="2698.88,729.43 2698.88,609.518" />
<polyline class="Stem" fill="none" stroke="#000000" stroke-width="2.48" stroke-linejoin="bevel" points="2204.53,754.23 2204.53,621.679" />
<path class="Note" transform="matrix(0.992,0,0,0.992,1049.05,745.798)" d="M0,4.20313 C0,8.5 3.09375,13.2969 11.2031,13.2969 C21.5938,13.2969 32.5,4.79688 32.5,-4 C32.5,-9.90625 27.5,-13.2031 21.2969,-13.2031 C11.5938,-13.2031 0,-5 0,4.20313"/>
<path class="Note" transform="matrix(0.992,0,0,0.992,1049.05,720.998)" d="M0,4.20313 C0,8.5 3.09375,13.2969 11.2031,13.2969 C21.5938,13.2969 32.5,4.79688 32.5,-4 C32.5,-9.90625 27.5,-13.2031 21.2969,-13.2031 C11.5938,-13.2031 0,-5 0,4.20313"/>
<path class="Note" transform="matrix(0.992,0,0,0.992,1110.85,770.598)" d="M0,4.20313 C0,8.5 3.09375,13.2969 11.2031,13.2969 C21.5938,13.2969 32.5,4.79688 32.5,-4 C32.5,-9.90625 27.5,-13.2031 21.2969,-13.2031 C11.5938,-13.2031 0,-5 0,4.20313"/>
<path class="Note" transform="matrix(0.992,0,0,0.992,1110.85,745.798)" d="M0,4.20313 C0,8.5 3.09375,13.2969 11.2031,13.2969 C21.5938,13.2969 32.5,4.79688 32.5,-4 C32.5,-9.90625 27.5,-13.2031 21.2969,-13.2031 C11.5938,-13.2031 0,-5 0,4.20313"/>
<path class="Note" transform="matrix(0.992,0,0,0.992,1110.85,720.998)" d="M0,4.20313 C0,8.5 3.09375,13.2969 11.2031,13.2969 C21.5938,13.2969 32.5,4.79688 32.5,-4 C32.5,-9.90625 27.5,-13.2031 21.2969,-13.2031 C11.5938,-13.2031 0,-5 0,4.20313"/>
<path class="Note" transform="matrix(0.992,0,0,0.992,1265.33,770.598)" d="M0,4.20313 C0,8.5 3.09375,13.2969 11.2031,13.2969 C21.5938,13.2969 32.5,4.79688 32.5,-4 C32.5,-9.90625 27.5,-13.2031 21.2969,-13.2031 C11.5938,-13.2031 0,-5 0,4.20313"/>
<path class="Note" transform="matrix(0.992,0,0,0.992,1327.13,770.598)" d="M0,4.20313 C0,8.5 3.09375,13.2969 11.2031,13.2969 C21.5938,13.2969 32.5,4.79688 32.5,-4 C32.5,-9.90625 27.5,-13.2031 21.2969,-13.2031 C11.5938,-13.2031 0,-5 0,4.20313"/>
<path class="Note" transform="matrix(0.992,0,0,0.992,1327.13,745.798)" d="M0,4.20313 C0,8.5 3.09375,13.2969 11.2031,13.2969 C21.5938,13.2969 32.5,4.79688 32.5,-4 C32.5,-9.90625 27.5,-13.2031 21.2969,-13.2031 C11.5938,-13.2031 0,-5 0,4.20313"/>
<path class="Note" transform="matrix(0.992,0,0,0.992,1327.13,720.998)" d="M0,4.20313 C0,8.5 3.09375,13.2969 11.2031,13.2969 C21.5938,13.2969 32.5,4.79688 32.5,-4 C32.5,-9.90625 27.5,-13.2031 21.2969,-13.2031 C11.5938,-13.2031 0,-5 0,4.20313"/>
<path class="Note" transform="matrix(0.992,0,0,0.992,1543.41,758.198)" d="M0,4.20313 C0,8.5 3.09375,13.2969 11.2031,13.2969 C21.5938,13.2969 32.5,4.79688 32.5,-4 C32.5,-9.90625 27.5,-13.2031 21.2969,-13.2031 C11.5938,-13.2031 0,-5 0,4.20313"/>
<path class="Note" transform="matrix(0.992,0,0,0.992,1543.41,733.398)" d="M0,4.20313 C0,8.5 3.09375,13.2969 11.2031,13.2969 C21.5938,13.2969 32.5,4.79688 32.5,-4 C32.5,-9.90625 27.5,-13.2031 21.2969,-13.2031 C11.5938,-13.2031 0,-5 0,4.20313"/>
<path class="Note" transform="matrix(0.992,0,0,0.992,1543.41,708.598)" d="M0,4.20313 C0,8.5 3.09375,13.2969 11.2031,13.2969 C21.5938,13.2969 32.5,4.79688 32.5,-4 C32.5,-9.90625 27.5,-13.2031 21.2969,-13.2031 C11.5938,-13.2031 0,-5 0,4.20313"/>
<path class="Note" transform="matrix(0.992,0,0,0.992,1697.89,758.198)" d="M0,4.20313 C0,8.5 3.09375,13.2969 11.2031,13.2969 C21.5938,13.2969 32.5,4.79688 32.5,-4 C32.5,-9.90625 27.5,-13.2031 21.2969,-13.2031 C11.5938,-13.2031 0,-5 0,4.20313"/>
<path class="Note" transform="matrix(0.992,0,0,0.992,2451.62,708.598)" d="M0,4.20313 C0,8.5 3.09375,13.2969 11.2031,13.2969 C21.5938,13.2969 32.5,4.79688 32.5,-4 C32.5,-9.90625 27.5,-13.2031 21.2969,-13.2031 C11.5938,-13.2031 0,-5 0,4.20313"/>
<path class="Note" transform="matrix(0.992,0,0,0.992,1759.69,758.198)" d="M0,4.20313 C0,8.5 3.09375,13.2969 11.2031,13.2969 C21.5938,13.2969 32.5,4.79688 32.5,-4 C32.5,-9.90625 27.5,-13.2031 21.2969,-13.2031 C11.5938,-13.2031 0,-5 0,4.20313"/>
<path class="Note" transform="matrix(0.992,0,0,0.992,1759.69,733.398)" d="M0,4.20313 C0,8.5 3.09375,13.2969 11.2031,13.2969 C21.5938,13.2969 32.5,4.79688 32.5,-4 C32.5,-9.90625 27.5,-13.2031 21.2969,-13.2031 C11.5938,-13.2031 0,-5 0,4.20313"/>
<path class="Note" transform="matrix(0.992,0,0,0.992,1759.69,708.598)" d="M0,4.20313 C0,8.5 3.09375,13.2969 11.2031,13.2969 C21.5938,13.2969 32.5,4.79688 32.5,-4 C32.5,-9.90625 27.5,-13.2031 21.2969,-13.2031 C11.5938,-13.2031 0,-5 0,4.20313"/>
<path class="Note" transform="matrix(0.992,0,0,0.992,1957.27,758.198)" d="M0,4.20313 C0,8.5 3.09375,13.2969 11.2031,13.2969 C21.5938,13.2969 32.5,4.79688 32.5,-4 C32.5,-9.90625 27.5,-13.2031 21.2969,-13.2031 C11.5938,-13.2031 0,-5 0,4.20313"/>
<path class="Note" transform="matrix(0.992,0,0,0.992,1957.27,733.398)" d="M0,4.20313 C0,8.5 3.09375,13.2969 11.2031,13.2969 C21.5938,13.2969 32.5,4.79688 32.5,-4 C32.5,-9.90625 27.5,-13.2031 21.2969,-13.2031 C11.5938,-13.2031 0,-5 0,4.20313"/>
<path class="Note" transform="matrix(0.992,0,0,0.992,1957.27,696.198)" d="M0,4.20313 C0,8.5 3.09375,13.2969 11.2031,13.2969 C21.5938,13.2969 32.5,4.79688 32.5,-4 C32.5,-9.90625 27.5,-13.2031 21.2969,-13.2031 C11.5938,-13.2031 0,-5 0,4.20313"/>
<path class="Note" transform="matrix(0.992,0,0,0.992,2019.06,758.198)" d="M0,4.20313 C0,8.5 3.09375,13.2969 11.2031,13.2969 C21.5938,13.2969 32.5,4.79688 32.5,-4 C32.5,-9.90625 27.5,-13.2031 21.2969,-13.2031 C11.5938,-13.2031 0,-5 0,4.20313"/>
<path class="Note" transform="matrix(0.992,0,0,0.992,2019.06,733.398)" d="M0,4.20313 C0,8.5 3.09375,13.2969 11.2031,13.2969 C21.5938,13.2969 32.5,4.79688 32.5,-4 C32.5,-9.90625 27.5,-13.2031 21.2969,-13.2031 C11.5938,-13.2031 0,-5 0,4.20313"/>
<path class="Note" transform="matrix(0.992,0,0,0.992,2019.06,696.198)" d="M0,4.20313 C0,8.5 3.09375,13.2969 11.2031,13.2969 C21.5938,13.2969 32.5,4.79688 32.5,-4 C32.5,-9.90625 27.5,-13.2031 21.2969,-13.2031 C11.5938,-13.2031 0,-5 0,4.20313"/>
<path class="Note" transform="matrix(0.992,0,0,0.992,2173.54,758.198)" d="M0,4.20313 C0,8.5 3.09375,13.2969 11.2031,13.2969 C21.5938,13.2969 32.5,4.79688 32.5,-4 C32.5,-9.90625 27.5,-13.2031 21.2969,-13.2031 C11.5938,-13.2031 0,-5 0,4.20313"/>
<path class="Note" transform="matrix(0.992,0,0,0.992,2235.34,758.198)" d="M0,4.20313 C0,8.5 3.09375,13.2969 11.2031,13.2969 C21.5938,13.2969 32.5,4.79688 32.5,-4 C32.5,-9.90625 27.5,-13.2031 21.2969,-13.2031 C11.5938,-13.2031 0,-5 0,4.20313"/>
<path class="Note" transform="matrix(0.992,0,0,0.992,2235.34,733.398)" d="M0,4.20313 C0,8.5 3.09375,13.2969 11.2031,13.2969 C21.5938,13.2969 32.5,4.79688 32.5,-4 C32.5,-9.90625 27.5,-13.2031 21.2969,-13.2031 C11.5938,-13.2031 0,-5 0,4.20313"/>
<path class="Note" transform="matrix(0.992,0,0,0.992,2235.34,696.198)" d="M0,4.20313 C0,8.5 3.09375,13.2969 11.2031,13.2969 C21.5938,13.2969 32.5,4.79688 32.5,-4 C32.5,-9.90625 27.5,-13.2031 21.2969,-13.2031 C11.5938,-13.2031 0,-5 0,4.20313"/>
<path class="Note" transform="matrix(0.992,0,0,0.992,2389.82,733.398)" d="M0,4.20313 C0,8.5 3.09375,13.2969 11.2031,13.2969 C21.5938,13.2969 32.5,4.79688 32.5,-4 C32.5,-9.90625 27.5,-13.2031 21.2969,-13.2031 C11.5938,-13.2031 0,-5 0,4.20313"/>
<path class="Note" transform="matrix(0.992,0,0,0.992,2451.62,733.398)" d="M0,4.20313 C0,8.5 3.09375,13.2969 11.2031,13.2969 C21.5938,13.2969 32.5,4.79688 32.5,-4 C32.5,-9.90625 27.5,-13.2031 21.2969,-13.2031 C11.5938,-13.2031 0,-5 0,4.20313"/>
<path class="Note" transform="matrix(0.992,0,0,0.992,2451.62,683.798)" d="M0,4.20313 C0,8.5 3.09375,13.2969 11.2031,13.2969 C21.5938,13.2969 32.5,4.79688 32.5,-4 C32.5,-9.90625 27.5,-13.2031 21.2969,-13.2031 C11.5938,-13.2031 0,-5 0,4.20313"/>
<path class="Note" transform="matrix(0.992,0,0,0.992,2606.1,733.398)" d="M0,4.20313 C0,8.5 3.09375,13.2969 11.2031,13.2969 C21.5938,13.2969 32.5,4.79688 32.5,-4 C32.5,-9.90625 27.5,-13.2031 21.2969,-13.2031 C11.5938,-13.2031 0,-5 0,4.20313"/>
<path class="Note" transform="matrix(0.992,0,0,0.992,2667.9,733.398)" d="M0,4.20313 C0,8.5 3.09375,13.2969 11.2031,13.2969 C21.5938,13.2969 32.5,4.79688 32.5,-4 C32.5,-9.90625 27.5,-13.2031 21.2969,-13.2031 C11.5938,-13.2031 0,-5 0,4.20313"/>
<path class="Note" transform="matrix(0.992,0,0,0.992,2667.9,708.598)" d="M0,4.20313 C0,8.5 3.09375,13.2969 11.2031,13.2969 C21.5938,13.2969 32.5,4.79688 32.5,-4 C32.5,-9.90625 27.5,-13.2031 21.2969,-13.2031 C11.5938,-13.2031 0,-5 0,4.20313"/>
<path class="Note" transform="matrix(0.992,0,0,0.992,2667.9,683.798)" d="M0,4.20313 C0,8.5 3.09375,13.2969 11.2031,13.2969 C21.5938,13.2969 32.5,4.79688 32.5,-4 C32.5,-9.90625 27.5,-13.2031 21.2969,-13.2031 C11.5938,-13.2031 0,-5 0,4.20313"/>
<path class="Note" transform="matrix(0.992,0,0,0.992,1481.61,758.198)" d="M0,4.20313 C0,8.5 3.09375,13.2969 11.2031,13.2969 C21.5938,13.2969 32.5,4.79688 32.5,-4 C32.5,-9.90625 27.5,-13.2031 21.2969,-13.2031 C11.5938,-13.2031 0,-5 0,4.20313"/>
<path class="Note" transform="matrix(0.992,0,0,0.992,1049.05,770.598)" d="M0,4.20313 C0,8.5 3.09375,13.2969 11.2031,13.2969 C21.5938,13.2969 32.5,4.79688 32.5,-4 C32.5,-9.90625 27.5,-13.2031 21.2969,-13.2031 C11.5938,-13.2031 0,-5 0,4.20313"/>
<path class="Clef" transform="matrix(0.992,0,0,0.992,553.998,708.598)" d="M56.2031,2.09375 C56.2031,9.20313 53.2969,16.5 46.2031,19.4063 C44.1094,7.40625 41.4063,-8.5 40.7031,-12.9063 C49.7031,-12.9063 56.2031,-6.79688 56.2031,2.09375 M42,20.5938 C40,21 38.1094,21.2031 36.2031,21.2031 C21.9063,21.2031 9.70313,11.2031 9.70313,-3.90625 C9.70313,-16.0938 18.2969,-27 27.1094,-34.6094 C28.7969,-36.1094 30.4063,-37.5 31.9063,-39 C32.7969,-33.6094 33.5,-28.9063 34.2031,-24.7969 C25.0938,-22.0938 18.9063,-12.5 18.9063,-3.09375 C18.9063,3.90625 24.4063,13.5 32.4063,13.5 C33.2031,13.5 34.1094,13.0938 34.1094,12.2031 C34.1094,11.2969 33.1094,10.7969 31.9063,10 C28,7.59375 25.7969,5 25.7969,0.09375 C25.7969,-6 30.2969,-10.9063 36.2031,-12.2969 L42,20.5938 M33.2031,-82.2031 C34.1094,-86.2031 38.7031,-96.7031 43.9063,-96.7031 C45.4063,-96.7031 47.7969,-91.8125 47.7969,-84.9063 C47.7969,-74.5 40.1094,-66.7031 33.2031,-59.9063 C32.6094,-63.9063 32.1094,-67.7969 32.1094,-72 C32.1094,-75.7031 32.4063,-79.1094 33.2031,-82.2031 M12.2031,51.2969 C12.2031,57.9063 17.2969,66.6094 30.7969,66.6094 C35.5,66.6094 39.6094,65.4063 43.2031,63.2031 C48.6094,59.4063 50,52.7969 50,46.5 C50,42.6094 49.4063,38.1094 48.4063,32.4063 C48.1094,30.4063 47.5,27.4063 46.9063,23.5 C56.7031,20.2969 64,10.0938 64,-0.203125 C64,-15.2969 53.2969,-25.5 38.7031,-25.5 C37.7031,-31.5 36.7031,-37.4063 35.7969,-43 C46.4063,-54.1094 53.7031,-66.6094 53.7031,-82.5 C53.7031,-91.6094 50.9063,-99 49.2969,-102.609 C46.9063,-107.703 44,-111.203 42.2031,-111.203 C41.5,-111.203 38.4063,-110 35.1094,-106.109 C28.7031,-98.5 26.9063,-85.7031 26.9063,-77.3125 C26.9063,-71.9063 27.4063,-67 29.1094,-55.7969 C29,-55.7031 23.7969,-50.4063 21.7031,-48.7031 C12.5938,-40.2031 0,-28.1094 0,-8.09375 C0,10.5938 16.2969,25.2969 34.9063,25.2969 C37.7969,25.2969 40.5,25 42.7969,24.5938 C44.7031,34.2031 45.7969,41.2031 45.7969,46.5 C45.7969,56.9063 40.5,62.4063 30.4063,62.4063 C28,62.4063 25.9063,61.9063 25.7031,61.9063 C25.6094,61.7969 25.4063,61.7031 25.4063,61.6094 C25.4063,61.4063 25.6094,61.2969 25.9063,61.2031 C30.6094,60.5 35.2969,56.5 35.2969,50.1094 C35.2969,44.7031 31.2031,39 23.7031,39 C16.7031,39 12.2031,44.7031 12.2031,51.2969"/>
<path class="KeySig" transform="matrix(0.992,0,0,0.992,636.071,683.798)" d="M20.0938,-7.90625 C19.5,-11.7969 17.0938,-15.5 12,-15.5 C7,-15.5 4.09375,-12.4063 3.59375,-11.7969 L4,-43.9063 C4,-44.7031 3.40625,-45.2969 2.59375,-45.2969 L1.40625,-45.2969 C0.59375,-45.2969 0,-44.7031 0,-43.9063 L0.5,16.2031 C0.5,17 1.09375,17.5938 1.90625,17.5938 C2.09375,17.5938 2.5,17.5 2.70313,17.4063 C3.09375,17.2031 9.59375,14 15,7.90625 C18.7969,3.59375 20.2969,-1.29688 20.2969,-5.40625 C20.2969,-6.29688 20.2031,-7.09375 20.0938,-7.90625 M13.2031,-4 C13.2031,-2.5 12.7969,2.09375 10.2969,5.90625 C8.59375,8.5 5.20313,11.2031 3.29688,12.7031 L3.59375,-6.79688 C3.79688,-7.70313 5.29688,-10.5938 9.29688,-10.5938 C12.9063,-10.5938 13.2031,-7.20313 13.2031,-5.09375 C13.2031,-4.59375 13.2031,-4.29688 13.2031,-4"/>
<path class="KeySig" transform="matrix(0.992,0,0,0.992,663.645,646.598)" d="M20.0938,-7.90625 C19.5,-11.7969 17.0938,-15.5 12,-15.5 C7,-15.5 4.09375,-12.4063 3.59375,-11.7969 L4,-43.9063 C4,-44.7031 3.40625,-45.2969 2.59375,-45.2969 L1.40625,-45.2969 C0.59375,-45.2969 0,-44.7031 0,-43.9063 L0.5,16.2031 C0.5,17 1.09375,17.5938 1.90625,17.5938 C2.09375,17.5938 2.5,17.5 2.70313,17.4063 C3.09375,17.2031 9.59375,14 15,7.90625 C18.7969,3.59375 20.2969,-1.29688 20.2969,-5.40625 C20.2969,-6.29688 20.2031,-7.09375 20.0938,-7.90625 M13.2031,-4 C13.2031,-2.5 12.7969,2.09375 10.2969,5.90625 C8.59375,8.5 5.20313,11.2031 3.29688,12.7031 L3.59375,-6.79688 C3.79688,-7.70313 5.29688,-10.5938 9.29688,-10.5938 C12.9063,-10.5938 13.2031,-7.20313 13.2031,-5.09375 C13.2031,-4.59375 13.2031,-4.29688 13.2031,-4"/>
<path class="KeySig" transform="matrix(0.992,0,0,0.992,691.22,696.198)" d="M20.0938,-7.90625 C19.5,-11.7969 17.0938,-15.5 12,-15.5 C7,-15.5 4.09375,-12.4063 3.59375,-11.7969 L4,-43.9063 C4,-44.7031 3.40625,-45.2969 2.59375,-45.2969 L1.40625,-45.2969 C0.59375,-45.2969 0,-44.7031 0,-43.9063 L0.5,16.2031 C0.5,17 1.09375,17.5938 1.90625,17.5938 C2.09375,17.5938 2.5,17.5 2.70313,17.4063 C3.09375,17.2031 9.59375,14 15,7.90625 C18.7969,3.59375 20.2969,-1.29688 20.2969,-5.40625 C20.2969,-6.29688 20.2031,-7.09375 20.0938,-7.90625 M13.2031,-4 C13.2031,-2.5 12.7969,2.09375 10.2969,5.90625 C8.59375,8.5 5.20313,11.2031 3.29688,12.7031 L3.59375,-6.79688 C3.79688,-7.70313 5.29688,-10.5938 9.29688,-10.5938 C12.9063,-10.5938 13.2031,-7.20313 13.2031,-5.09375 C13.2031,-4.59375 13.2031,-4.29688 13.2031,-4"/>
<path class="TimeSig" transform="matrix(0.992,0,0,0.992,734.775,658.998)" d="M20.7969,12.7031 L20.7969,20.0938 L12.5,20.0938 C11.7969,20.0938 11.0938,20.7031 11.0938,21.5 L11.0938,23.4063 C11.0938,24.2031 11.7969,24.7969 12.5,24.7969 L42.7969,24.7969 C43.6094,24.7969 44.2031,24.2031 44.2031,23.4063 L44.2031,21.5 C44.2031,20.7031 43.6094,20.0938 42.7969,20.0938 L33.7969,20.0938 L33.7969,12.7031 L42.7969,12.7031 C43.6094,12.7031 44.2031,12 44.2031,11.2031 L44.2031,9.29688 C44.2031,8.59375 43.6094,7.90625 42.7969,7.90625 L33.7969,7.90625 L33.7969,-8 C33.7969,-8.59375 33.5,-9.09375 33.1094,-9.29688 L31.9063,-9.90625 C31.7031,-10 31.6094,-10 31.4063,-10 C31.2969,-10 31.2969,-10 31.2031,-10 C30.9063,-10 30.5,-9.90625 30.2969,-9.70313 L21.2031,-1.40625 C20.9063,-1.09375 20.7969,-0.703125 20.7969,-0.296875 L20.7969,7.90625 L9.20313,7.90625 C9.20313,7.90625 20.4063,-4.09375 32.2031,-19.9063 C32.6094,-20.4063 32.7031,-20.9063 32.7031,-21.2969 C32.7031,-21.7969 32.5,-22.2031 32.4063,-22.2969 L30.2031,-24.5 C29.9063,-24.7031 29.6094,-24.9063 29.2031,-24.9063 C28.6094,-24.9063 15.0938,-24.9063 14.2969,-24.9063 C13.5938,-24.9063 13.0938,-24.2969 13,-23.7031 C13,-23.7031 12.5,-16.2969 9.90625,-8.20313 C7.29688,-0.09375 4.29688,4.90625 1.70313,8.59375 C1.70313,8.59375 1.40625,9.09375 1.40625,9.70313 C1.40625,9.90625 1.40625,10.0938 1.5,10.2969 C1.79688,11 2.5,12.0938 2.5,12.0938 C2.5,12.0938 2.70313,12.7031 3.59375,12.7031 L20.7969,12.7031 "/>
<path class="TimeSig" transform="matrix(0.992,0,0,0.992,734.775,708.598)" d="M20.7969,12.7031 L20.7969,20.0938 L12.5,20.0938 C11.7969,20.0938 11.0938,20.7031 11.0938,21.5 L11.0938,23.4063 C11.0938,24.2031 11.7969,24.7969 12.5,24.7969 L42.7969,24.7969 C43.6094,24.7969 44.2031,24.2031 44.2031,23.4063 L44.2031,21.5 C44.2031,20.7031 43.6094,20.0938 42.7969,20.0938 L33.7969,20.0938 L33.7969,12.7031 L42.7969,12.7031 C43.6094,12.7031 44.2031,12 44.2031,11.2031 L44.2031,9.29688 C44.2031,8.59375 43.6094,7.90625 42.7969,7.90625 L33.7969,7.90625 L33.7969,-8 C33.7969,-8.59375 33.5,-9.09375 33.1094,-9.29688 L31.9063,-9.90625 C31.7031,-10 31.6094,-10 31.4063,-10 C31.2969,-10 31.2969,-10 31.2031,-10 C30.9063,-10 30.5,-9.90625 30.2969,-9.70313 L21.2031,-1.40625 C20.9063,-1.09375 20.7969,-0.703125 20.7969,-0.296875 L20.7969,7.90625 L9.20313,7.90625 C9.20313,7.90625 20.4063,-4.09375 32.2031,-19.9063 C32.6094,-20.4063 32.7031,-20.9063 32.7031,-21.2969 C32.7031,-21.7969 32.5,-22.2031 32.4063,-22.2969 L30.2031,-24.5 C29.9063,-24.7031 29.6094,-24.9063 29.2031,-24.9063 C28.6094,-24.9063 15.0938,-24.9063 14.2969,-24.9063 C13.5938,-24.9063 13.0938,-24.2969 13,-23.7031 C13,-23.7031 12.5,-16.2969 9.90625,-8.20313 C7.29688,-0.09375 4.29688,4.90625 1.70313,8.59375 C1.70313,8.59375 1.40625,9.09375 1.40625,9.70313 C1.40625,9.90625 1.40625,10.0938 1.5,10.2969 C1.79688,11 2.5,12.0938 2.5,12.0938 C2.5,12.0938 2.70313,12.7031 3.59375,12.7031 L20.7969,12.7031 "/>
<path class="Rest" transform="matrix(0.992,0,0,0.992,1388.92,683.798)" d="M26.7031,-20.2969 C26.6094,-20.2969 26.4063,-20.4063 26.2969,-20.4063 C25.7031,-20.4063 25.2031,-20.0938 25,-19.5938 C24.5938,-19 21.5,-13.0938 17,-9.79688 C15.7031,-8.79688 14.0938,-8.09375 12.5,-7.79688 C13.5938,-9.09375 14.2969,-10.7031 14.2969,-12.5938 C14.2969,-16.5 11.0938,-19.7031 7.20313,-19.7031 C3.20313,-19.7031 0,-16.5 0,-12.5938 C0,-9.5 1.90625,-7 4.5,-5.90625 C6,-5.20313 8,-4.70313 10,-4.70313 C12.9063,-4.70313 16,-5.59375 18.7031,-7.59375 C19.9063,-8.5 21.0938,-9.70313 22.2031,-10.9063 L10.7969,24.7031 L13.5,25.5 L27.5,-18.5938 C27.6094,-18.7031 27.6094,-18.9063 27.6094,-19.0938 C27.6094,-19.5938 27.2969,-20 26.7031,-20.2969"/>
<path class="Rest" transform="matrix(0.992,0,0,0.992,828.209,683.798)" d="M26.7031,-20.2969 C26.6094,-20.2969 26.4063,-20.4063 26.2969,-20.4063 C25.7031,-20.4063 25.2031,-20.0938 25,-19.5938 C24.5938,-19 21.5,-13.0938 17,-9.79688 C15.7031,-8.79688 14.0938,-8.09375 12.5,-7.79688 C13.5938,-9.09375 14.2969,-10.7031 14.2969,-12.5938 C14.2969,-16.5 11.0938,-19.7031 7.20313,-19.7031 C3.20313,-19.7031 0,-16.5 0,-12.5938 C0,-9.5 1.90625,-7 4.5,-5.90625 C6,-5.20313 8,-4.70313 10,-4.70313 C12.9063,-4.70313 16,-5.59375 18.7031,-7.59375 C19.9063,-8.5 21.0938,-9.70313 22.2031,-10.9063 L10.7969,24.7031 L13.5,25.5 L27.5,-18.5938 C27.6094,-18.7031 27.6094,-18.9063 27.6094,-19.0938 C27.6094,-19.5938 27.2969,-20 26.7031,-20.2969"/>
<path class="Rest" transform="matrix(0.992,0,0,0.992,1605.2,683.798)" d="M26.7031,-20.2969 C26.6094,-20.2969 26.4063,-20.4063 26.2969,-20.4063 C25.7031,-20.4063 25.2031,-20.0938 25,-19.5938 C24.5938,-19 21.5,-13.0938 17,-9.79688 C15.7031,-8.79688 14.0938,-8.09375 12.5,-7.79688 C13.5938,-9.09375 14.2969,-10.7031 14.2969,-12.5938 C14.2969,-16.5 11.0938,-19.7031 7.20313,-19.7031 C3.20313,-19.7031 0,-16.5 0,-12.5938 C0,-9.5 1.90625,-7 4.5,-5.90625 C6,-5.20313 8,-4.70313 10,-4.70313 C12.9063,-4.70313 16,-5.59375 18.7031,-7.59375 C19.9063,-8.5 21.0938,-9.70313 22.2031,-10.9063 L10.7969,24.7031 L13.5,25.5 L27.5,-18.5938 C27.6094,-18.7031 27.6094,-18.9063 27.6094,-19.0938 C27.6094,-19.5938 27.2969,-20 26.7031,-20.2969"/>
<path class="Rest" transform="matrix(0.992,0,0,0.992,2297.13,683.798)" d="M26.7031,-20.2969 C26.6094,-20.2969 26.4063,-20.4063 26.2969,-20.4063 C25.7031,-20.4063 25.2031,-20.0938 25,-19.5938 C24.5938,-19 21.5,-13.0938 17,-9.79688 C15.7031,-8.79688 14.0938,-8.09375 12.5,-7.79688 C13.5938,-9.09375 14.2969,-10.7031 14.2969,-12.5938 C14.2969,-16.5 11.0938,-19.7031 7.20313,-19.7031 C3.20313,-19.7031 0,-16.5 0,-12.5938 C0,-9.5 1.90625,-7 4.5,-5.90625 C6,-5.20313 8,-4.70313 10,-4.70313 C12.9063,-4.70313 16,-5.59375 18.7031,-7.59375 C19.9063,-8.5 21.0938,-9.70313 22.2031,-10.9063 L10.7969,24.7031 L13.5,25.5 L27.5,-18.5938 C27.6094,-18.7031 27.6094,-18.9063 27.6094,-19.0938 C27.6094,-19.5938 27.2969,-20 26.7031,-20.2969"/>
<path class="Rest" transform="matrix(0.992,0,0,0.992,1172.64,683.798)" d="M26.7031,-20.2969 C26.6094,-20.2969 26.4063,-20.4063 26.2969,-20.4063 C25.7031,-20.4063 25.2031,-20.0938 25,-19.5938 C24.5938,-19 21.5,-13.0938 17,-9.79688 C15.7031,-8.79688 14.0938,-8.09375 12.5,-7.79688 C13.5938,-9.09375 14.2969,-10.7031 14.2969,-12.5938 C14.2969,-16.5 11.0938,-19.7031 7.20313,-19.7031 C3.20313,-19.7031 0,-16.5 0,-12.5938 C0,-9.5 1.90625,-7 4.5,-5.90625 C6,-5.20313 8,-4.70313 10,-4.70313 C12.9063,-4.70313 16,-5.59375 18.7031,-7.59375 C19.9063,-8.5 21.0938,-9.70313 22.2031,-10.9063 L10.7969,24.7031 L13.5,25.5 L27.5,-18.5938 C27.6094,-18.7031 27.6094,-18.9063 27.6094,-19.0938 C27.6094,-19.5938 27.2969,-20 26.7031,-20.2969"/>
<path class="Rest" transform="matrix(0.992,0,0,0.992,2513.41,683.798)" d="M26.7031,-20.2969 C26.6094,-20.2969 26.4063,-20.4063 26.2969,-20.4063 C25.7031,-20.4063 25.2031,-20.0938 25,-19.5938 C24.5938,-19 21.5,-13.0938 17,-9.79688 C15.7031,-8.79688 14.0938,-8.09375 12.5,-7.79688 C13.5938,-9.09375 14.2969,-10.7031 14.2969,-12.5938 C14.2969,-16.5 11.0938,-19.7031 7.20313,-19.7031 C3.20313,-19.7031 0,-16.5 0,-12.5938 C0,-9.5 1.90625,-7 4.5,-5.90625 C6,-5.20313 8,-4.70313 10,-4.70313 C12.9063,-4.70313 16,-5.59375 18.7031,-7.59375 C19.9063,-8.5 21.0938,-9.70313 22.2031,-10.9063 L10.7969,24.7031 L13.5,25.5 L27.5,-18.5938 C27.6094,-18.7031 27.6094,-18.9063 27.6094,-19.0938 C27.6094,-19.5938 27.2969,-20 26.7031,-20.2969"/>
<path class="Rest" transform="matrix(0.992,0,0,0.992,1864.57,683.798)" d="M26.7031,-20.2969 C26.6094,-20.2969 26.4063,-20.4063 26.2969,-20.4063 C25.7031,-20.4063 25.2031,-20.0938 25,-19.5938 C24.5938,-19 21.5,-13.0938 17,-9.79688 C15.7031,-8.79688 14.0938,-8.09375 12.5,-7.79688 C13.5938,-9.09375 14.2969,-10.7031 14.2969,-12.5938 C14.2969,-16.5 11.0938,-19.7031 7.20313,-19.7031 C3.20313,-19.7031 0,-16.5 0,-12.5938 C0,-9.5 1.90625,-7 4.5,-5.90625 C6,-5.20313 8,-4.70313 10,-4.70313 C12.9063,-4.70313 16,-5.59375 18.7031,-7.59375 C19.9063,-8.5 21.0938,-9.70313 22.2031,-10.9063 L10.7969,24.7031 L13.5,25.5 L27.5,-18.5938 C27.6094,-18.7031 27.6094,-18.9063 27.6094,-19.0938 C27.6094,-19.5938 27.2969,-20 26.7031,-20.2969"/>
<path class="Rest" transform="matrix(0.992,0,0,0.992,2080.85,683.798)" d="M26.7031,-20.2969 C26.6094,-20.2969 26.4063,-20.4063 26.2969,-20.4063 C25.7031,-20.4063 25.2031,-20.0938 25,-19.5938 C24.5938,-19 21.5,-13.0938 17,-9.79688 C15.7031,-8.79688 14.0938,-8.09375 12.5,-7.79688 C13.5938,-9.09375 14.2969,-10.7031 14.2969,-12.5938 C14.2969,-16.5 11.0938,-19.7031 7.20313,-19.7031 C3.20313,-19.7031 0,-16.5 0,-12.5938 C0,-9.5 1.90625,-7 4.5,-5.90625 C6,-5.20313 8,-4.70313 10,-4.70313 C12.9063,-4.70313 16,-5.59375 18.7031,-7.59375 C19.9063,-8.5 21.0938,-9.70313 22.2031,-10.9063 L10.7969,24.7031 L13.5,25.5 L27.5,-18.5938 C27.6094,-18.7031 27.6094,-18.9063 27.6094,-19.0938 C27.6094,-19.5938 27.2969,-20 26.7031,-20.2969"/>
<path class="Rest" transform="matrix(0.992,0,0,0.992,956.364,683.798)" d="M26.7031,-20.2969 C26.6094,-20.2969 26.4063,-20.4063 26.2969,-20.4063 C25.7031,-20.4063 25.2031,-20.0938 25,-19.5938 C24.5938,-19 21.5,-13.0938 17,-9.79688 C15.7031,-8.79688 14.0938,-8.09375 12.5,-7.79688 C13.5938,-9.09375 14.2969,-10.7031 14.2969,-12.5938 C14.2969,-16.5 11.0938,-19.7031 7.20313,-19.7031 C3.20313,-19.7031 0,-16.5 0,-12.5938 C0,-9.5 1.90625,-7 4.5,-5.90625 C6,-5.20313 8,-4.70313 10,-4.70313 C12.9063,-4.70313 16,-5.59375 18.7031,-7.59375 C19.9063,-8.5 21.0938,-9.70313 22.2031,-10.9063 L10.7969,24.7031 L13.5,25.5 L27.5,-18.5938 C27.6094,-18.7031 27.6094,-18.9063 27.6094,-19.0938 C27.6094,-19.5938 27.2969,-20 26.7031,-20.2969"/>
<path class="Beam" fill-rule="evenodd" d="M2203.29,615.57 L2267.56,609.37 L2267.56,621.827 L2203.29,628.027 L2203.29,615.57 "/>
<path class="Beam" fill-rule="evenodd" d="M2203.29,634.17 L2267.56,627.97 L2267.56,640.427 L2203.29,646.627 L2203.29,634.17 "/>
<path class="Beam" fill-rule="evenodd" d="M1727.64,634.17 L1791.91,627.97 L1791.91,640.427 L1727.64,646.627 L1727.64,634.17 "/>
<path class="Beam" fill-rule="evenodd" d="M1727.64,652.77 L1791.91,646.57 L1791.91,659.027 L1727.64,665.227 L1727.64,652.77 "/>
<path class="Beam" fill-rule="evenodd" d="M1511.36,634.17 L1575.63,627.97 L1575.63,640.427 L1511.36,646.627 L1511.36,634.17 "/>
<path class="Beam" fill-rule="evenodd" d="M1511.36,652.77 L1575.63,646.57 L1575.63,659.027 L1511.36,665.227 L1511.36,652.77 "/>
<path class="Beam" fill-rule="evenodd" d="M1987.01,609.398 L2051.28,609.398 L2051.28,621.798 L1987.01,621.798 L1987.01,609.398 "/>
<path class="Beam" fill-rule="evenodd" d="M1987.01,627.998 L2051.28,627.998 L2051.28,640.398 L1987.01,640.398 L1987.01,627.998 "/>
<path class="Beam" fill-rule="evenodd" d="M2419.57,609.37 L2483.84,603.17 L2483.84,615.627 L2419.57,621.827 L2419.57,609.37 "/>
<path class="Beam" fill-rule="evenodd" d="M2419.57,627.97 L2483.84,621.77 L2483.84,634.227 L2419.57,640.427 L2419.57,627.97 "/>
<path class="Beam" fill-rule="evenodd" d="M1295.08,634.17 L1359.35,627.97 L1359.35,640.427 L1295.08,646.627 L1295.08,634.17 "/>
<path class="Beam" fill-rule="evenodd" d="M1295.08,652.77 L1359.35,646.57 L1359.35,659.027 L1295.08,665.227 L1295.08,652.77 "/>
<path class="Beam" fill-rule="evenodd" d="M2635.85,609.37 L2700.12,603.17 L2700.12,615.627 L2635.85,621.827 L2635.85,609.37 "/>
<path class="Beam" fill-rule="evenodd" d="M2635.85,627.97 L2700.12,621.77 L2700.12,634.227 L2635.85,640.427 L2635.85,627.97 "/>
<path class="Beam" fill-rule="evenodd" d="M1078.8,634.198 L1143.07,634.198 L1143.07,646.598 L1078.8,646.598 L1078.8,634.198 "/>
<path class="Beam" fill-rule="evenodd" d="M1078.8,652.798 L1143.07,652.798 L1143.07,665.198 L1078.8,665.198 L1078.8,652.798 "/>
<path class="Tempo" d="M760.103,528.77 L756.837,528.77 L756.837,571.036 C755.744,570.348 754.353,569.942 752.775,569.755 C749.212,569.755 746.337,570.145 743.166,571.927 C739.212,574.005 734.853,578.364 734.853,583.208 C734.853,584.302 735.056,585.395 735.65,586.38 C736.931,588.848 740.009,590.239 743.462,590.239 C750.4,590.239 760.103,584.302 760.103,576.77 L760.103,528.77 "/>
<path class="Tempo" d="M781.837,566.723 L812.072,566.723 L812.072,559.817 L781.837,559.817 L781.837,566.723 M781.837,579.083 L812.072,579.083 L812.072,572.177 L781.837,572.177 L781.837,579.083 M853.916,564.864 C853.916,570.552 853.681,582.317 845.634,582.317 C844.369,582.317 843.65,581.895 843.65,581.114 C843.65,580.755 843.775,580.395 844.009,580.036 C845.087,578.302 845.212,577.942 845.212,576.614 C845.212,573.739 843.181,571.755 840.181,571.755 C836.869,571.755 834.478,574.286 834.478,577.755 C834.478,582.442 838.853,585.442 845.634,585.442 C859.259,585.442 864.478,573.317 864.478,561.442 C864.478,555.927 863.275,551.833 860.759,548.427 C857.697,544.333 853.322,542.114 848.275,542.114 C839.572,542.114 833.275,548.177 833.275,556.52 C833.275,563.598 838.322,568.817 845.15,568.817 C848.869,568.817 851.4,567.677 853.916,564.864 M848.759,545.239 C853.134,545.239 853.681,552.614 853.681,555.677 C853.681,560.958 851.759,564.317 848.697,564.317 C843.947,564.317 843.65,558.567 843.65,555.145 C843.65,548.598 845.4,545.239 848.759,545.239 M892.541,569.723 L892.541,551.239 C892.541,550.333 892.65,546.442 892.9,542.114 L888.759,542.114 L866.916,569.302 L866.916,573.739 L883.119,573.739 L883.119,575.958 C883.119,579.677 883.119,579.911 882.697,580.52 C882.212,581.114 880.947,581.364 878.134,581.364 L877.478,581.364 L877.478,584.598 L897.931,584.598 L897.931,581.364 L897.275,581.364 C894.634,581.302 893.369,581.052 892.947,580.52 C892.541,579.864 892.541,579.677 892.541,575.958 L892.541,573.739 L898.541,573.739 L898.541,569.723 L892.541,569.723 M883.119,569.723 L871.291,569.723 L883.119,554.723 L883.119,569.723 "/>
<path class="Harmony" d="M2327.63,536.089 L2297.59,536.089 L2297.59,538.448 L2298.48,538.448 C2301.34,538.495 2302.29,538.652 2302.68,539.152 C2302.98,539.589 2302.98,539.698 2302.98,542.245 L2302.98,566.042 C2302.98,568.605 2302.98,568.698 2302.68,569.152 C2302.29,569.652 2301.34,569.855 2298.48,569.855 L2297.59,569.855 L2297.59,572.198 L2328.29,572.198 L2329.29,558.855 L2327.09,558.855 C2325.18,567.745 2323.13,569.652 2315.48,569.855 L2312.18,569.855 C2309.18,569.745 2308.43,569.245 2308.59,567.448 L2308.59,554.698 L2309.59,554.698 C2314.73,554.495 2316.59,556.355 2316.79,561.902 L2319.13,561.902 L2319.13,545.495 L2316.79,545.495 C2316.48,550.402 2314.54,552.355 2309.79,552.355 L2308.59,552.355 L2308.59,540.948 C2308.54,538.839 2309.04,538.495 2311.73,538.448 L2314.34,538.448 C2322.54,538.402 2324.59,540.198 2326.18,548.855 L2328.34,548.855 L2327.63,536.089 "/>
<path class="Harmony" d="M2337.43,574.495 C2338.93,574.495 2344.59,571.292 2347.73,567.995 C2350.29,565.245 2350.98,561.542 2350.98,558.995 C2350.98,554.995 2348.48,552.152 2344.43,552.152 C2342.29,552.152 2340.38,552.855 2338.79,554.245 L2339.04,533.652 C2339.04,532.995 2338.48,532.495 2337.84,532.495 L2337.09,532.495 C2336.48,532.495 2335.88,532.995 2335.88,533.652 L2336.29,573.355 C2336.29,573.995 2336.79,574.495 2337.43,574.495 M2342.98,555.902 C2345.84,555.902 2346.18,558.855 2346.18,559.995 C2346.18,564.542 2342.43,567.745 2339.09,570.198 C2338.93,570.292 2338.79,570.402 2338.63,570.542 L2338.73,558.198 C2338.84,557.948 2339.23,557.402 2339.98,556.902 C2340.59,556.448 2341.73,555.902 2342.98,555.902"/>
<path class="Harmony" d="M956.864,536.089 L956.864,538.448 L957.77,538.448 C960.614,538.495 961.567,538.652 961.958,539.152 C962.27,539.589 962.27,539.698 962.27,542.245 L962.27,566.042 C962.27,568.605 962.27,568.698 961.958,569.152 C961.567,569.652 960.614,569.855 957.77,569.855 L956.864,569.855 L956.864,572.198 L975.02,572.198 C983.661,572.198 988.864,568.542 988.864,562.402 C988.864,557.402 985.723,554.542 978.864,553.355 C981.27,552.855 982.364,552.402 983.661,551.448 C985.723,549.902 986.973,547.448 986.973,544.948 C986.973,541.698 984.973,538.542 982.067,537.292 C980.27,536.495 977.77,536.089 974.817,536.089 L956.864,536.089 M967.864,552.355 L967.864,540.948 C967.864,538.995 968.52,538.495 971.161,538.448 L973.161,538.448 C978.067,538.448 981.161,540.042 981.161,545.495 C981.161,550.448 978.77,552.355 972.317,552.355 L967.864,552.355 M967.864,554.698 L972.27,554.698 C979.911,554.698 982.723,556.745 982.723,562.245 C982.723,568.948 978.52,569.855 972.864,569.855 L970.77,569.855 C968.27,569.855 967.77,569.355 967.864,566.698 L967.864,554.698 "/>
<path class="Harmony" d="M996.661,574.495 C998.161,574.495 1003.82,571.292 1006.96,567.995 C1009.52,565.245 1010.21,561.542 1010.21,558.995 C1010.21,554.995 1007.71,552.152 1003.66,552.152 C1001.52,552.152 999.614,552.855 998.02,554.245 L998.27,533.652 C998.27,532.995 997.708,532.495 997.067,532.495 L996.317,532.495 C995.708,532.495 995.114,532.995 995.114,533.652 L995.52,573.355 C995.52,573.995 996.02,574.495 996.661,574.495 M1002.21,555.902 C1005.07,555.902 1005.41,558.855 1005.41,559.995 C1005.41,564.542 1001.66,567.745 998.317,570.198 C998.161,570.292 998.02,570.402 997.864,570.542 L997.958,558.198 C998.067,557.948 998.458,557.402 999.208,556.902 C999.817,556.448 1000.96,555.902 1002.21,555.902"/>
<path class="Harmony" d="M1884.48,535.402 L1882.37,535.402 L1870.87,564.542 C1869.53,568.448 1868.23,569.652 1865.37,569.855 L1865.17,569.855 L1865.17,572.198 L1878.42,572.198 L1878.42,569.855 L1877.42,569.855 C1874.73,569.855 1873.37,568.902 1873.37,566.995 C1873.37,566.355 1873.53,565.745 1873.82,564.902 L1875.48,560.495 L1888.73,560.495 L1891.43,567.198 C1891.73,567.995 1891.82,568.292 1891.82,568.542 C1891.82,569.355 1890.57,569.855 1888.73,569.855 L1886.62,569.855 L1886.62,572.198 L1902.12,572.198 L1902.12,569.855 L1901.43,569.855 C1898.82,569.792 1898.37,569.495 1897.23,566.652 L1884.48,535.402 M1882.03,543.589 L1887.67,557.792 L1876.48,557.792 L1882.03,543.589 "/>
<path class="Harmony" d="M1906.87,574.495 C1908.37,574.495 1914.03,571.292 1917.17,567.995 C1919.73,565.245 1920.42,561.542 1920.42,558.995 C1920.42,554.995 1917.92,552.152 1913.87,552.152 C1911.73,552.152 1909.82,552.855 1908.23,554.245 L1908.48,533.652 C1908.48,532.995 1907.92,532.495 1907.28,532.495 L1906.53,532.495 C1905.92,532.495 1905.32,532.995 1905.32,533.652 L1905.73,573.355 C1905.73,573.995 1906.23,574.495 1906.87,574.495 M1912.42,555.902 C1915.28,555.902 1915.62,558.855 1915.62,559.995 C1915.62,564.542 1911.87,567.745 1908.53,570.198 C1908.37,570.292 1908.23,570.402 1908.07,570.542 L1908.17,558.198 C1908.28,557.948 1908.67,557.402 1909.42,556.902 C1910.03,556.448 1911.17,555.902 1912.42,555.902"/>
<path class="Harmony" d="M1418.88,535.745 L1416.97,535.745 L1414.97,538.698 C1411.33,536.042 1409.47,535.339 1406.02,535.339 C1401.27,535.339 1397.22,537.339 1393.88,541.339 C1390.67,545.152 1389.17,549.355 1389.17,554.495 C1389.17,565.292 1396.22,572.948 1406.08,572.948 C1414.08,572.948 1419.17,568.245 1420.33,559.855 L1417.97,559.448 C1416.63,566.902 1412.83,570.605 1406.67,570.605 C1399.27,570.605 1395.77,565.495 1395.77,554.698 C1395.77,548.995 1396.52,545.245 1398.22,542.245 C1399.77,539.448 1402.83,537.698 1406.08,537.698 C1409.58,537.698 1412.67,539.542 1414.58,542.745 C1415.53,544.402 1416.22,546.245 1417.42,550.198 L1419.63,550.198 L1418.88,535.745 "/>
<path class="Harmony" d="M1435.42,548.902 L1426.53,549.448 L1426.53,551.605 L1428.58,551.605 C1430.47,551.652 1430.72,551.948 1430.72,554.105 L1430.72,568.402 C1430.67,569.152 1430.63,569.448 1430.42,569.698 C1430.08,570.152 1429.13,570.355 1426.97,570.402 L1426.78,570.402 L1426.78,572.198 L1439.38,572.198 L1439.38,570.402 L1439.17,570.402 C1435.88,570.292 1435.42,570.042 1435.42,568.198 L1435.42,558.948 C1435.42,554.495 1437.88,551.198 1441.13,551.198 C1443.97,551.198 1445.42,553.245 1445.42,557.292 L1445.42,568.448 C1445.38,569.105 1445.33,569.448 1445.08,569.698 C1444.78,570.152 1443.78,570.355 1441.63,570.402 L1441.42,570.402 L1441.42,572.198 L1454.08,572.198 L1454.08,570.402 L1453.88,570.402 C1450.58,570.292 1450.13,570.042 1450.13,568.245 L1450.13,559.402 C1450.13,554.402 1452.38,551.198 1455.88,551.198 C1458.73,551.198 1460.13,553.355 1460.13,557.855 L1460.13,568.402 C1460.08,569.105 1460.03,569.448 1459.78,569.698 C1459.48,570.152 1458.48,570.355 1456.33,570.402 L1456.13,570.402 L1456.13,572.198 L1468.78,572.198 L1468.78,570.402 L1468.58,570.402 C1465.28,570.292 1464.83,570.042 1464.83,568.198 L1464.83,556.855 C1464.83,553.745 1464.53,552.698 1463.23,550.995 C1461.78,549.152 1459.73,548.152 1457.33,548.152 C1454.08,548.152 1451.67,549.698 1449.53,553.152 C1448.67,550.152 1445.97,548.152 1442.63,548.152 C1439.58,548.152 1437.38,549.605 1435.42,552.745 L1435.42,548.902 "/>
</svg>
