<?xml version="1.0" encoding="UTF-8" standalone="no"?>
<svg width="210.058mm" height="296.926mm" viewBox="0 0 2977.2 4208.4"
 xmlns="http://www.w3.org/2000/svg" xmlns:xlink="http://www.w3.org/1999/xlink" version="1.2" baseProfile="full">
<title>Bass</title>
<desc>Generated by MuseScore Studio 4.5.2</desc>
<path class="" fill="#ffffff" fill-rule="evenodd" d="M0,0 L2977.2,0 L2977.2,4208.4 L0,4208.4 L0,0 "/>
<polyline class="StaffLines" fill="none" stroke="#000000" stroke-width="2.73" stroke-linejoin="bevel" points="421.398,634.198 2764.6,634.198" />
<polyline class="StaffLines" fill="none" stroke="#000000" stroke-width="2.73" stroke-linejoin="bevel" points="421.398,658.998 2764.6,658.998" />
<polyline class="StaffLines" fill="none" stroke="#000000" stroke-width="2.73" stroke-linejoin="bevel" points="421.398,683.798 2764.6,683.798" />
<polyline class="StaffLines" fill="none" stroke="#000000" stroke-width="2.73" stroke-linejoin="bevel" points="421.398,708.598 2764.6,708.598" />
<polyline class="StaffLines" fill="none" stroke="#000000" stroke-width="2.73" stroke-linejoin="bevel" points="421.398,733.398 2764.6,733.398" />
<defs> <clipPath id="1"> <path d="M894.686,1024.55 L924.446,1024.55 L924.446,1062.25 L894.686,1062.25 L894.686,1024.55 M1150.33,1024.55 L1180.09,1024.55 L1180.09,1062.25 L1150.33,1062.25 L1150.33,1024.55 M1284.77,1024.55 L1314.53,1024.55 L1314.53,1062.25 L1284.77,1062.25 L1284.77,1024.55 M1486.43,1061.75 L1516.19,1061.75 L1516.19,1099.45 L1486.43,1099.45 L1486.43,1061.75 M1723.56,1061.75 L1753.32,1061.75 L1753.32,1099.45 L1723.56,1099.45 L1723.56,1061.75 M1979.2,987.35 L2008.96,987.35 L2008.96,1025.05 L1979.2,1025.05 L1979.2,987.35 M2113.65,987.35 L2143.41,987.35 L2143.41,1025.05 L2113.65,1025.05 L2113.65,987.35 M2248.09,1024.55 L2277.85,1024.55 L2277.85,1062.25 L2248.09,1062.25 L2248.09,1024.55 M2337.72,1024.55 L2367.48,1024.55 L2367.48,1062.25 L2337.72,1062.25 L2337.72,1024.55 M2427.34,987.35 L2457.1,987.35 L2457.1,1025.05 L2427.34,1025.05 L2427.34,987.35 M2516.97,1024.55 L2546.73,1024.55 L2546.73,1062.25 L2516.97,1062.25 L2516.97,1024.55 M2606.6,1024.55 L2636.36,1024.55 L2636.36,1062.25 L2606.6,1062.25 L2606.6,1024.55 M396.598,942.834 L2789.4,942.834 L2789.4,1106.76 L396.598,1106.76 L396.598,942.834 " clip-rule="evenodd"/></clipPath></defs>
<polyline class="StaffLines" fill="none" stroke="#000000" stroke-width="2.73" stroke-linejoin="bevel" points="421.398,968.998 2764.6,968.998"  clip-path="url(#1)"/>
<defs> <clipPath id="2"> <path d="M894.686,1024.55 L924.446,1024.55 L924.446,1062.25 L894.686,1062.25 L894.686,1024.55 M1150.33,1024.55 L1180.09,1024.55 L1180.09,1062.25 L1150.33,1062.25 L1150.33,1024.55 M1284.77,1024.55 L1314.53,1024.55 L1314.53,1062.25 L1284.77,1062.25 L1284.77,1024.55 M1486.43,1061.75 L1516.19,1061.75 L1516.19,1099.45 L1486.43,1099.45 L1486.43,1061.75 M1723.56,1061.75 L1753.32,1061.75 L1753.32,1099.45 L1723.56,1099.45 L1723.56,1061.75 M1979.2,987.35 L2008.96,987.35 L2008.96,1025.05 L1979.2,1025.05 L1979.2,987.35 M2113.65,987.35 L2143.41,987.35 L2143.41,1025.05 L2113.65,1025.05 L2113.65,987.35 M2248.09,1024.55 L2277.85,1024.55 L2277.85,1062.25 L2248.09,1062.25 L2248.09,1024.55 M2337.72,1024.55 L2367.48,1024.55 L2367.48,1062.25 L2337.72,1062.25 L2337.72,1024.55 M2427.34,987.35 L2457.1,987.35 L2457.1,1025.05 L2427.34,1025.05 L2427.34,987.35 M2516.97,1024.55 L2546.73,1024.55 L2546.73,1062.25 L2516.97,1062.25 L2516.97,1024.55 M2606.6,1024.55 L2636.36,1024.55 L2636.36,1062.25 L2606.6,1062.25 L2606.6,1024.55 M396.598,942.834 L2789.4,942.834 L2789.4,1106.76 L396.598,1106.76 L396.598,942.834 " clip-rule="evenodd"/></clipPath></defs>
<polyline class="StaffLines" fill="none" stroke="#000000" stroke-width="2.73" stroke-linejoin="bevel" points="421.398,1006.2 2764.6,1006.2"  clip-path="url(#2)"/>
<defs> <clipPath id="3"> <path d="M894.686,1024.55 L924.446,1024.55 L924.446,1062.25 L894.686,1062.25 L894.686,1024.55 M1150.33,1024.55 L1180.09,1024.55 L1180.09,1062.25 L1150.33,1062.25 L1150.33,1024.55 M1284.77,1024.55 L1314.53,1024.55 L1314.53,1062.25 L1284.77,1062.25 L1284.77,1024.55 M1486.43,1061.75 L1516.19,1061.75 L1516.19,1099.45 L1486.43,1099.45 L1486.43,1061.75 M1723.56,1061.75 L1753.32,1061.75 L1753.32,1099.45 L1723.56,1099.45 L1723.56,1061.75 M1979.2,987.35 L2008.96,987.35 L2008.96,1025.05 L1979.2,1025.05 L1979.2,987.35 M2113.65,987.35 L2143.41,987.35 L2143.41,1025.05 L2113.65,1025.05 L2113.65,987.35 M2248.09,1024.55 L2277.85,1024.55 L2277.85,1062.25 L2248.09,1062.25 L2248.09,1024.55 M2337.72,1024.55 L2367.48,1024.55 L2367.48,1062.25 L2337.72,1062.25 L2337.72,1024.55 M2427.34,987.35 L2457.1,987.35 L2457.1,1025.05 L2427.34,1025.05 L2427.34,987.35 M2516.97,1024.55 L2546.73,1024.55 L2546.73,1062.25 L2516.97,1062.25 L2516.97,1024.55 M2606.6,1024.55 L2636.36,1024.55 L2636.36,1062.25 L2606.6,1062.25 L2606.6,1024.55 M396.598,942.834 L2789.4,942.834 L2789.4,1106.76 L396.598,1106.76 L396.598,942.834 " clip-rule="evenodd"/></clipPath></defs>
<polyline class="StaffLines" fill="none" stroke="#000000" stroke-width="2.73" stroke-linejoin="bevel" points="421.398,1043.4 2764.6,1043.4"  clip-path="url(#3)"/>
<defs> <clipPath id="4"> <path d="M894.686,1024.55 L924.446,1024.55 L924.446,1062.25 L894.686,1062.25 L894.686,1024.55 M1150.33,1024.55 L1180.09,1024.55 L1180.09,1062.25 L1150.33,1062.25 L1150.33,1024.55 M1284.77,1024.55 L1314.53,1024.55 L1314.53,1062.25 L1284.77,1062.25 L1284.77,1024.55 M1486.43,1061.75 L1516.19,1061.75 L1516.19,1099.45 L1486.43,1099.45 L1486.43,1061.75 M1723.56,1061.75 L1753.32,1061.75 L1753.32,1099.45 L1723.56,1099.45 L1723.56,1061.75 M1979.2,987.35 L2008.96,987.35 L2008.96,1025.05 L1979.2,1025.05 L1979.2,987.35 M2113.65,987.35 L2143.41,987.35 L2143.41,1025.05 L2113.65,1025.05 L2113.65,987.35 M2248.09,1024.55 L2277.85,1024.55 L2277.85,1062.25 L2248.09,1062.25 L2248.09,1024.55 M2337.72,1024.55 L2367.48,1024.55 L2367.48,1062.25 L2337.72,1062.25 L2337.72,1024.55 M2427.34,987.35 L2457.1,987.35 L2457.1,1025.05 L2427.34,1025.05 L2427.34,987.35 M2516.97,1024.55 L2546.73,1024.55 L2546.73,1062.25 L2516.97,1062.25 L2516.97,1024.55 M2606.6,1024.55 L2636.36,1024.55 L2636.36,1062.25 L2606.6,1062.25 L2606.6,1024.55 M396.598,942.834 L2789.4,942.834 L2789.4,1106.76 L396.598,1106.76 L396.598,942.834 " clip-rule="evenodd"/></clipPath></defs>
<polyline class="StaffLines" fill="none" stroke="#000000" stroke-width="2.73" stroke-linejoin="bevel" points="421.398,1080.6 2764.6,1080.6"  clip-path="url(#4)"/>
<path class="Text" d="M1155.16,214.52 L1151.08,214.52 L1146.69,221.114 C1141.41,216.161 1134.47,213.52 1126.66,213.52 C1112.15,213.52 1102.58,222.661 1102.58,236.52 C1102.58,248.505 1108.52,254.442 1124.69,258.63 L1135.15,261.27 C1143.29,263.364 1144.05,263.583 1146.36,265.333 C1149.66,267.864 1151.43,271.505 1151.43,275.786 C1151.43,280.192 1149.77,283.817 1146.47,286.895 C1142.83,289.973 1139.21,291.192 1133.16,291.192 C1116.55,291.192 1108.3,278.973 1105.44,264.13 L1100.71,264.13 L1101.15,295.473 L1105.44,295.473 L1110.4,288.005 C1117.75,294.052 1123.8,296.255 1133.49,296.255 C1149.66,296.255 1160,286.786 1160,272.052 C1160,265.114 1157.8,259.395 1153.4,255.223 C1150.43,252.364 1146.15,250.489 1137.33,248.286 L1125.57,245.317 C1115.79,242.786 1111.16,238.505 1111.16,231.786 C1111.16,224.083 1117.43,218.802 1126.79,218.802 C1140.97,218.802 1148.79,230.583 1151.75,243.114 L1156.47,243.114 L1155.16,214.52 M1216.25,269.848 C1216.36,253.348 1207,241.692 1193.58,241.692 C1179.5,241.692 1168.94,253.895 1168.94,270.395 C1168.94,285.911 1178.96,296.255 1193.8,296.255 C1204.36,296.255 1211.74,291.083 1216.25,280.63 L1212.4,278.536 C1207.9,287.005 1203.27,290.302 1195.9,290.302 C1190.29,290.302 1186.22,288.005 1183.36,283.052 C1181.38,279.755 1180.5,275.895 1180.61,269.848 L1216.25,269.848 M1180.72,265.114 C1180.72,257.411 1184.24,246.411 1193.47,246.411 C1200.08,246.411 1204.47,252.255 1204.47,261.161 C1204.47,264.239 1203.49,265.114 1199.97,265.114 L1180.72,265.114 M1252.08,266.552 L1264.63,251.911 C1267.38,248.723 1269.91,247.302 1272.88,247.302 L1273.86,247.302 L1273.86,243.333 L1251.1,243.333 L1251.1,247.302 L1253.19,247.302 C1256.49,247.302 1258.15,248.067 1258.15,249.723 C1258.15,250.817 1257.36,252.364 1255.94,254.114 L1249,262.473 L1240.54,251.692 C1239.88,250.817 1239.44,249.942 1239.44,249.286 C1239.44,247.848 1240.86,247.302 1244.29,247.302 L1245.82,247.302 L1245.82,243.333 L1219.75,243.333 L1219.75,247.302 C1223.82,247.63 1225.36,248.614 1228.88,253.239 L1242.3,270.067 L1229.65,284.802 C1225.91,288.989 1222.72,290.755 1219.75,290.645 L1219.08,290.645 L1219.08,294.598 L1242.3,294.598 L1242.3,290.645 L1240.65,290.645 C1238.11,290.645 1237.57,290.536 1236.8,290.192 C1235.91,289.645 1235.25,288.661 1235.25,287.661 C1235.25,286.895 1235.58,285.911 1236.15,285.255 L1245.38,274.255 L1253.74,285.364 C1254.5,286.458 1255.16,287.895 1255.16,288.661 C1255.16,290.083 1253.52,290.645 1249.33,290.645 L1248.57,290.645 L1248.57,294.598 L1276.29,294.598 L1276.29,290.645 L1275.52,290.645 C1271.66,290.645 1269.15,289.208 1265.94,285.255 L1252.08,266.552 M1322.41,295.364 L1342.44,294.598 L1342.44,289.864 L1339.69,289.864 C1333.3,289.645 1332.75,288.989 1332.75,281.833 L1332.75,243.333 L1312.08,244.552 L1312.08,249.286 L1317.69,249.286 C1321.86,249.395 1322.41,250.052 1322.41,254.786 L1322.41,268.302 C1322.41,277.88 1320.11,289.536 1308,289.536 C1304.6,289.536 1301.74,288.333 1300.3,286.13 C1298.88,284.036 1298.66,282.942 1298.66,276.895 L1298.66,243.333 L1279.41,244.552 L1279.41,249.286 L1283.58,249.286 C1287.77,249.395 1288.32,250.052 1288.32,254.786 L1288.32,278.536 C1288.32,284.145 1288.75,286.677 1290.41,289.208 C1293.38,293.723 1298.66,296.255 1305.25,296.255 C1312.52,296.255 1317.58,293.286 1322.41,286.239 L1322.41,295.364 M1393.82,259.177 C1393.82,252.255 1392.61,248.723 1389.41,246.083 C1385.79,243.114 1380.4,241.692 1373.36,241.692 C1360.93,241.692 1351.91,247.52 1351.91,255.552 C1351.91,259.614 1354.44,262.255 1358.29,262.255 C1361.8,262.255 1364.22,259.942 1364.22,256.645 C1364.22,255.223 1363.68,253.677 1362.58,252.145 C1361.91,251.364 1361.8,251.145 1361.8,250.598 C1361.8,248.395 1366.21,246.411 1371.49,246.411 C1375,246.411 1378.86,247.52 1380.61,249.161 C1382.71,250.927 1383.47,253.567 1383.47,258.52 L1383.47,262.802 C1372.04,264.786 1368.41,265.661 1363.02,267.755 C1353.44,271.286 1348.94,276.333 1348.94,283.38 C1348.94,291.302 1355.1,296.255 1364.9,296.255 C1372.47,296.255 1379.3,293.161 1384.04,287.552 C1385.79,293.161 1388.54,295.364 1393.71,295.364 C1398.66,295.364 1403.83,292.177 1403.83,288.989 C1403.83,288.223 1403.4,287.661 1402.72,287.661 C1402.29,287.661 1401.85,287.786 1401.08,288.114 C1399.54,288.77 1398.88,288.88 1398,288.88 C1394.91,288.88 1393.82,286.895 1393.82,281.286 L1393.82,259.177 M1383.47,272.598 C1383.47,279.192 1383.15,280.739 1381.29,283.598 C1378.54,287.661 1373.58,290.411 1368.74,290.411 C1363.68,290.411 1360.05,286.786 1360.05,281.833 C1360.05,277.223 1362.36,273.911 1367.19,271.614 C1370.61,270.067 1374.9,268.973 1383.47,267.536 L1383.47,272.598 M1427.54,213.52 L1407.19,214.739 L1407.19,219.473 L1412.58,219.473 C1416.65,219.583 1417.19,220.239 1417.19,224.973 L1417.19,286.239 C1417.08,287.895 1416.97,288.552 1416.54,289.098 C1415.77,290.083 1413.68,290.536 1408.94,290.645 L1408.18,290.645 L1408.18,294.598 L1436.66,294.598 L1436.66,290.645 L1435.9,290.645 C1428.54,290.411 1427.54,289.864 1427.54,285.911 L1427.54,213.52 M1535.33,256.427 L1535.33,281.067 C1535.33,286.677 1535.33,286.895 1534.68,287.895 C1533.8,288.989 1531.71,289.427 1525.44,289.427 L1523.46,289.427 L1523.46,294.598 L1559.54,294.598 L1559.54,289.427 L1557.55,289.427 C1551.29,289.427 1549.19,288.989 1548.32,287.895 C1547.66,286.895 1547.66,286.786 1547.66,281.067 L1547.66,228.708 C1547.66,222.989 1547.66,222.88 1548.32,221.895 C1549.3,220.677 1551.29,220.348 1557.55,220.348 L1559.54,220.348 L1559.54,215.177 L1523.9,215.177 L1523.9,220.348 L1525.44,220.348 C1531.71,220.348 1533.69,220.677 1534.68,221.895 C1535.33,222.88 1535.33,223.098 1535.33,228.708 L1535.33,250.489 L1498.49,250.489 L1498.49,228.708 C1498.49,223.098 1498.49,222.88 1499.25,221.895 C1500.15,220.677 1502.11,220.348 1508.4,220.348 L1510.47,220.348 L1510.47,215.177 L1474.29,215.177 L1474.29,220.348 L1476.27,220.348 C1482.54,220.348 1484.52,220.677 1485.5,221.895 C1486.16,222.88 1486.16,223.098 1486.16,228.708 L1486.16,281.067 C1486.16,286.567 1486.16,286.895 1485.5,287.895 C1484.63,288.989 1482.54,289.427 1476.27,289.427 L1474.29,289.427 L1474.29,294.598 L1510.47,294.598 L1510.47,289.427 L1508.4,289.427 C1502.11,289.317 1500.15,288.989 1499.25,287.895 C1498.49,286.895 1498.49,286.677 1498.49,281.067 L1498.49,256.427 L1535.33,256.427 M1614.25,269.848 C1614.36,253.348 1605,241.692 1591.58,241.692 C1577.5,241.692 1566.94,253.895 1566.94,270.395 C1566.94,285.911 1576.96,296.255 1591.8,296.255 C1602.36,296.255 1609.74,291.083 1614.25,280.63 L1610.4,278.536 C1605.9,287.005 1601.27,290.302 1593.9,290.302 C1588.29,290.302 1584.22,288.005 1581.36,283.052 C1579.38,279.755 1578.5,275.895 1578.61,269.848 L1614.25,269.848 M1578.72,265.114 C1578.72,257.411 1582.24,246.411 1591.47,246.411 C1598.08,246.411 1602.47,252.255 1602.47,261.161 C1602.47,264.239 1601.49,265.114 1597.97,265.114 L1578.72,265.114 M1666.82,259.177 C1666.82,252.255 1665.61,248.723 1662.41,246.083 C1658.79,243.114 1653.4,241.692 1646.36,241.692 C1633.93,241.692 1624.91,247.52 1624.91,255.552 C1624.91,259.614 1627.44,262.255 1631.29,262.255 C1634.8,262.255 1637.22,259.942 1637.22,256.645 C1637.22,255.223 1636.68,253.677 1635.58,252.145 C1634.91,251.364 1634.8,251.145 1634.8,250.598 C1634.8,248.395 1639.21,246.411 1644.49,246.411 C1648,246.411 1651.86,247.52 1653.61,249.161 C1655.71,250.927 1656.47,253.567 1656.47,258.52 L1656.47,262.802 C1645.04,264.786 1641.41,265.661 1636.02,267.755 C1626.44,271.286 1621.94,276.333 1621.94,283.38 C1621.94,291.302 1628.1,296.255 1637.9,296.255 C1645.47,296.255 1652.3,293.161 1657.04,287.552 C1658.79,293.161 1661.54,295.364 1666.71,295.364 C1671.66,295.364 1676.83,292.177 1676.83,288.989 C1676.83,288.223 1676.4,287.661 1675.72,287.661 C1675.29,287.661 1674.85,287.786 1674.08,288.114 C1672.54,288.77 1671.88,288.88 1671,288.88 C1667.91,288.88 1666.82,286.895 1666.82,281.286 L1666.82,259.177 M1656.47,272.598 C1656.47,279.192 1656.15,280.739 1654.29,283.598 C1651.54,287.661 1646.58,290.411 1641.74,290.411 C1636.68,290.411 1633.05,286.786 1633.05,281.833 C1633.05,277.223 1635.36,273.911 1640.19,271.614 C1643.61,270.067 1647.9,268.973 1656.47,267.536 L1656.47,272.598 M1700.54,213.52 L1680.19,214.739 L1680.19,219.473 L1685.58,219.473 C1689.65,219.583 1690.19,220.239 1690.19,224.973 L1690.19,286.239 C1690.08,287.895 1689.97,288.552 1689.54,289.098 C1688.77,290.083 1686.68,290.536 1681.94,290.645 L1681.18,290.645 L1681.18,294.598 L1709.66,294.598 L1709.66,290.645 L1708.9,290.645 C1701.54,290.411 1700.54,289.864 1700.54,285.911 L1700.54,213.52 M1730.58,215.942 C1727.07,215.942 1724.21,218.802 1724.21,222.333 C1724.21,225.848 1727.07,228.708 1730.47,228.708 C1734.11,228.708 1736.97,225.848 1736.97,222.333 C1736.97,218.802 1734.11,215.942 1730.58,215.942 M1735.75,243.333 L1715.08,244.552 L1715.08,249.286 L1720.69,249.286 C1724.86,249.395 1725.41,250.052 1725.41,254.786 L1725.41,286.239 C1725.3,287.895 1725.19,288.552 1724.75,289.098 C1723.99,290.083 1721.9,290.536 1717.16,290.645 L1716.4,290.645 L1716.4,294.598 L1744.9,294.598 L1744.9,290.645 L1744.11,290.645 C1736.75,290.411 1735.75,289.864 1735.75,285.911 L1735.75,243.333 M1770.1,243.333 L1751.07,244.552 L1751.07,249.286 L1755.04,249.286 C1759.21,249.395 1759.75,250.052 1759.75,254.786 L1759.75,286.239 C1759.65,287.895 1759.54,288.552 1759.1,289.098 C1758.33,290.083 1756.24,290.536 1751.5,290.645 L1751.07,290.645 L1751.07,294.598 L1778.9,294.598 L1778.9,290.645 L1778.46,290.645 C1771.08,290.411 1770.1,289.864 1770.1,285.911 L1770.1,269.63 C1770.1,264.239 1770.86,259.286 1772.08,256.755 C1774.4,251.802 1779.33,248.395 1784.07,248.395 C1786.93,248.395 1790.22,249.942 1791.88,252.255 C1793.54,254.661 1794.3,257.973 1794.3,263.255 L1794.3,286.239 C1794.19,287.895 1794.08,288.552 1793.65,289.098 C1792.86,290.083 1790.66,290.536 1785.94,290.645 L1785.5,290.645 L1785.5,294.598 L1813.33,294.598 L1813.33,290.645 L1812.9,290.645 C1805.63,290.411 1804.65,289.864 1804.65,285.911 L1804.65,263.802 C1804.65,255.88 1804.3,253.895 1802.33,250.161 C1799.58,244.88 1794.08,241.692 1787.47,241.692 C1780.33,241.692 1774.94,244.989 1770.1,252.255 L1770.1,243.333 M1836.66,286.458 C1830.61,286.348 1830.29,286.239 1828.96,285.473 C1828.19,285.036 1827.65,283.817 1827.65,282.614 C1827.65,279.302 1830.61,277.88 1837.97,277.661 C1848.32,277.442 1849.97,277.223 1853.71,275.567 C1860.3,272.598 1863.94,266.88 1863.94,259.614 C1863.94,255.223 1862.94,252.473 1859.97,248.833 C1861.85,246.864 1862.83,246.192 1863.72,246.192 C1864.27,246.192 1864.6,246.536 1864.82,247.739 C1865.25,250.38 1867.02,251.802 1869.77,251.802 C1872.63,251.802 1874.72,249.505 1874.72,246.536 C1874.72,242.786 1871.75,240.145 1867.46,240.145 C1863.94,240.145 1861.96,241.255 1856.9,245.864 C1852.29,242.786 1848.75,241.692 1843.25,241.692 C1830.16,241.692 1821.58,248.942 1821.58,259.942 C1821.58,266.442 1825.11,271.942 1830.83,274.692 C1823.46,276.333 1820.38,279.645 1820.38,285.692 C1820.38,290.536 1822.58,293.395 1827.75,295.145 C1820.93,297.677 1817.63,301.083 1817.63,305.598 C1817.63,308.895 1819.83,311.973 1823.35,313.848 C1827.65,316.052 1832.91,316.927 1840.83,316.927 C1859.21,316.927 1868.33,311.098 1868.33,299.552 C1868.33,294.052 1865.8,289.645 1861.85,288.005 C1858.88,286.895 1855.36,286.458 1847.88,286.458 L1836.66,286.458 M1843.15,246.411 C1849.97,246.411 1853.82,251.145 1853.82,259.723 C1853.82,268.302 1849.65,273.473 1842.71,273.473 C1835.9,273.473 1831.6,268.302 1831.6,260.052 C1831.6,251.364 1835.79,246.411 1843.15,246.411 M1842.16,295.911 C1851.29,295.911 1851.94,295.911 1853.49,296.145 C1858,296.583 1860.65,299.005 1860.65,302.52 C1860.65,308.786 1853.49,312.411 1841.29,312.411 C1831.93,312.411 1826.75,309.661 1826.75,304.723 C1826.75,301.083 1828.74,298.661 1834.02,295.911 L1842.16,295.911 "/>
<path class="Text" d="M212.692,213.052 L212.692,216.348 L213.958,216.348 C217.942,216.411 219.286,216.63 219.833,217.317 C220.255,217.958 220.255,218.098 220.255,221.661 L220.255,254.989 C220.255,258.552 220.255,258.692 219.833,259.333 C219.286,260.02 217.942,260.302 213.958,260.302 L212.692,260.302 L212.692,263.598 L238.114,263.598 C250.223,263.598 257.505,258.489 257.505,249.88 C257.505,242.88 253.098,238.88 243.505,237.208 C246.864,236.505 248.395,235.88 250.223,234.552 C253.098,232.38 254.848,228.942 254.848,225.442 C254.848,220.895 252.036,216.489 247.989,214.739 C245.458,213.614 241.958,213.052 237.833,213.052 L212.692,213.052 M228.098,235.802 L228.098,219.848 C228.098,217.114 229.005,216.411 232.723,216.348 L235.52,216.348 C242.38,216.348 246.723,218.583 246.723,226.208 C246.723,233.145 243.364,235.802 234.333,235.802 L228.098,235.802 M228.098,239.098 L234.255,239.098 C244.973,239.098 248.895,241.973 248.895,249.661 C248.895,259.052 243.005,260.302 235.098,260.302 L232.161,260.302 C228.661,260.302 227.958,259.614 228.098,255.895 L228.098,239.098 M293.239,241.052 C293.239,236.645 292.473,234.411 290.442,232.723 C288.13,230.833 284.708,229.927 280.223,229.927 C272.317,229.927 266.567,233.63 266.567,238.739 C266.567,241.333 268.177,243.02 270.63,243.02 C272.864,243.02 274.411,241.552 274.411,239.442 C274.411,238.536 274.067,237.552 273.364,236.583 C272.942,236.083 272.864,235.942 272.864,235.598 C272.864,234.192 275.677,232.942 279.036,232.942 C281.27,232.942 283.723,233.63 284.848,234.692 C286.177,235.802 286.661,237.489 286.661,240.63 L286.661,243.364 C279.38,244.63 277.067,245.192 273.645,246.52 C267.552,248.755 264.677,251.973 264.677,256.458 C264.677,261.505 268.598,264.645 274.833,264.645 C279.661,264.645 284.005,262.692 287.005,259.114 C288.13,262.692 289.88,264.083 293.177,264.083 C296.317,264.083 299.614,262.052 299.614,260.02 C299.614,259.536 299.333,259.192 298.911,259.192 C298.63,259.192 298.348,259.255 297.864,259.473 C296.88,259.895 296.458,259.958 295.895,259.958 C293.942,259.958 293.239,258.692 293.239,255.13 L293.239,241.052 M286.661,249.598 C286.661,253.802 286.458,254.77 285.255,256.598 C283.505,259.192 280.364,260.942 277.286,260.942 C274.067,260.942 271.755,258.63 271.755,255.473 C271.755,252.536 273.223,250.442 276.302,248.973 C278.473,247.989 281.208,247.286 286.661,246.38 L286.661,249.598 M327.895,230.208 L325.458,230.208 L323.427,232.723 C320.895,230.77 318.38,229.927 314.88,229.927 C308.723,229.927 304.661,233.911 304.661,240.083 C304.661,246.661 308.927,248.333 314.536,249.661 L318.239,250.505 C323.77,251.833 325.723,253.239 325.723,256.036 C325.723,259.333 322.864,261.645 318.802,261.645 C312.848,261.645 308.645,257.864 306.973,250.864 L304.177,250.864 L304.177,264.083 L306.614,264.083 L309.067,261.223 C311.942,263.536 315.083,264.645 318.661,264.645 C325.52,264.645 330.067,260.38 330.067,253.864 C330.067,250.786 329.098,248.411 327.13,246.802 C325.458,245.333 324.052,244.77 319.786,243.864 L316.286,243.083 C312.427,242.239 312.427,242.239 311.177,241.552 C309.63,240.848 308.723,239.38 308.723,237.833 C308.723,234.958 311.38,233.005 315.223,233.005 C320.973,233.005 323.77,237.067 325.458,241.973 L327.895,241.973 L327.895,230.208 M359.895,230.208 L357.458,230.208 L355.427,232.723 C352.895,230.77 350.38,229.927 346.88,229.927 C340.723,229.927 336.661,233.911 336.661,240.083 C336.661,246.661 340.927,248.333 346.536,249.661 L350.239,250.505 C355.77,251.833 357.723,253.239 357.723,256.036 C357.723,259.333 354.864,261.645 350.802,261.645 C344.848,261.645 340.645,257.864 338.973,250.864 L336.177,250.864 L336.177,264.083 L338.614,264.083 L341.067,261.223 C343.942,263.536 347.083,264.645 350.661,264.645 C357.52,264.645 362.067,260.38 362.067,253.864 C362.067,250.786 361.098,248.411 359.13,246.802 C357.458,245.333 356.052,244.77 351.786,243.864 L348.286,243.083 C344.427,242.239 344.427,242.239 343.177,241.552 C341.63,240.848 340.723,239.38 340.723,237.833 C340.723,234.958 343.38,233.005 347.223,233.005 C352.973,233.005 355.77,237.067 357.458,241.973 L359.895,241.973 L359.895,230.208 "/>
<path class="InstrumentName" d="M213.098,651.427 L213.098,653.786 L214.005,653.786 C216.848,653.833 217.802,653.989 218.192,654.489 C218.505,654.927 218.505,655.036 218.505,657.583 L218.505,681.38 C218.505,683.942 218.505,684.036 218.192,684.489 C217.802,684.989 216.848,685.192 214.005,685.192 L213.098,685.192 L213.098,687.536 L231.255,687.536 C239.895,687.536 245.098,683.88 245.098,677.739 C245.098,672.739 241.958,669.88 235.098,668.692 C237.505,668.192 238.598,667.739 239.895,666.786 C241.958,665.239 243.208,662.786 243.208,660.286 C243.208,657.036 241.208,653.88 238.302,652.63 C236.505,651.833 234.005,651.427 231.052,651.427 L213.098,651.427 M224.098,667.692 L224.098,656.286 C224.098,654.333 224.755,653.833 227.395,653.786 L229.395,653.786 C234.302,653.786 237.395,655.38 237.395,660.833 C237.395,665.786 235.005,667.692 228.552,667.692 L224.098,667.692 M224.098,670.036 L228.505,670.036 C236.145,670.036 238.958,672.083 238.958,677.583 C238.958,684.286 234.755,685.192 229.098,685.192 L227.005,685.192 C224.505,685.192 224.005,684.692 224.098,682.036 L224.098,670.036 M270.192,671.442 C270.192,668.286 269.645,666.692 268.192,665.489 C266.552,664.13 264.098,663.489 260.895,663.489 C255.255,663.489 251.145,666.13 251.145,669.786 C251.145,671.63 252.302,672.833 254.052,672.833 C255.645,672.833 256.755,671.786 256.755,670.286 C256.755,669.63 256.505,668.942 256.005,668.239 C255.692,667.88 255.645,667.786 255.645,667.536 C255.645,666.536 257.645,665.63 260.052,665.63 C261.645,665.63 263.395,666.13 264.192,666.88 C265.145,667.692 265.505,668.88 265.505,671.13 L265.505,673.083 C260.302,673.989 258.645,674.38 256.192,675.333 C251.848,676.942 249.802,679.239 249.802,682.442 C249.802,686.036 252.598,688.286 257.052,688.286 C260.505,688.286 263.598,686.88 265.755,684.333 C266.552,686.88 267.802,687.88 270.145,687.88 C272.395,687.88 274.755,686.442 274.755,684.989 C274.755,684.63 274.552,684.38 274.255,684.38 C274.052,684.38 273.848,684.442 273.505,684.583 C272.802,684.88 272.505,684.942 272.098,684.942 C270.692,684.942 270.192,684.036 270.192,681.489 L270.192,671.442 M265.505,677.536 C265.505,680.536 265.348,681.239 264.505,682.536 C263.255,684.38 261.005,685.63 258.802,685.63 C256.505,685.63 254.848,683.989 254.848,681.739 C254.848,679.63 255.895,678.13 258.098,677.083 C259.645,676.38 261.598,675.88 265.505,675.239 L265.505,677.536 M295.098,663.692 L293.348,663.692 L291.895,665.489 C290.098,664.083 288.302,663.489 285.802,663.489 C281.395,663.489 278.505,666.333 278.505,670.739 C278.505,675.442 281.552,676.63 285.552,677.583 L288.192,678.192 C292.145,679.13 293.552,680.13 293.552,682.13 C293.552,684.489 291.505,686.13 288.598,686.13 C284.348,686.13 281.348,683.442 280.145,678.442 L278.145,678.442 L278.145,687.88 L279.895,687.88 L281.645,685.833 C283.692,687.489 285.942,688.286 288.505,688.286 C293.395,688.286 296.645,685.239 296.645,680.583 C296.645,678.38 295.942,676.692 294.552,675.536 C293.348,674.489 292.348,674.083 289.302,673.442 L286.802,672.88 C284.052,672.286 284.052,672.286 283.145,671.786 C282.052,671.286 281.395,670.239 281.395,669.13 C281.395,667.083 283.302,665.692 286.052,665.692 C290.145,665.692 292.145,668.583 293.348,672.083 L295.098,672.083 L295.098,663.692 M318.098,663.692 L316.348,663.692 L314.895,665.489 C313.098,664.083 311.302,663.489 308.802,663.489 C304.395,663.489 301.505,666.333 301.505,670.739 C301.505,675.442 304.552,676.63 308.552,677.583 L311.192,678.192 C315.145,679.13 316.552,680.13 316.552,682.13 C316.552,684.489 314.505,686.13 311.598,686.13 C307.348,686.13 304.348,683.442 303.145,678.442 L301.145,678.442 L301.145,687.88 L302.895,687.88 L304.645,685.833 C306.692,687.489 308.942,688.286 311.505,688.286 C316.395,688.286 319.645,685.239 319.645,680.583 C319.645,678.38 318.942,676.692 317.552,675.536 C316.348,674.489 315.348,674.083 312.302,673.442 L309.802,672.88 C307.052,672.286 307.052,672.286 306.145,671.786 C305.052,671.286 304.395,670.239 304.395,669.13 C304.395,667.083 306.302,665.692 309.052,665.692 C313.145,665.692 315.145,668.583 316.348,672.083 L318.098,672.083 L318.098,663.692 "/>
<path class="InstrumentName" d="M347.13,645.27 C346.619,645.27 346.184,645.442 345.825,645.786 C345.466,646.13 345.286,646.546 345.286,647.036 L345.286,691.02 C345.286,691.999 345.645,692.83 346.364,693.512 C347.083,694.195 347.937,694.536 348.927,694.536 L392.677,694.536 C393.687,694.536 394.546,694.195 395.255,693.512 C395.963,692.83 396.317,691.999 396.317,691.02 L396.317,647.036 C396.317,646.546 396.143,646.13 395.794,645.786 C395.445,645.442 395.015,645.27 394.505,645.27 L347.13,645.27 M394.552,657.583 L394.552,691.02 C394.552,691.51 394.382,691.927 394.044,692.27 C393.705,692.614 393.291,692.786 392.802,692.786 L385.77,692.786 C385.281,692.786 384.864,692.614 384.52,692.27 C384.177,691.927 384.005,691.51 384.005,691.02 L384.005,680.458 C384.494,680.458 384.911,680.286 385.255,679.942 C385.598,679.598 385.77,679.182 385.77,678.692 L385.77,657.583 L394.552,657.583 M380.489,657.583 L380.489,678.692 C380.489,679.182 380.661,679.598 381.005,679.942 C381.348,680.286 381.765,680.458 382.255,680.458 L382.255,691.02 C382.255,691.51 382.08,691.927 381.731,692.27 C381.382,692.614 380.968,692.786 380.489,692.786 L373.442,692.786 C372.973,692.786 372.562,692.614 372.208,692.27 C371.854,691.927 371.677,691.51 371.677,691.02 L371.677,680.458 C372.166,680.458 372.583,680.286 372.927,679.942 C373.27,679.598 373.442,679.182 373.442,678.692 L373.442,657.583 L380.489,657.583 M368.161,657.583 L368.161,678.692 C368.161,679.182 368.333,679.598 368.677,679.942 C369.02,680.286 369.437,680.458 369.927,680.458 L369.927,691.02 C369.927,691.51 369.755,691.927 369.411,692.27 C369.067,692.614 368.651,692.786 368.161,692.786 L361.13,692.786 C360.651,692.786 360.239,692.614 359.895,692.27 C359.552,691.927 359.38,691.51 359.38,691.02 L359.38,680.458 C359.869,680.458 360.283,680.286 360.622,679.942 C360.96,679.598 361.13,679.182 361.13,678.692 L361.13,657.583 L368.161,657.583 M355.864,657.583 L355.864,678.692 C355.864,679.182 356.036,679.598 356.38,679.942 C356.723,680.286 357.135,680.458 357.614,680.458 L357.614,691.02 C357.614,691.51 357.44,691.927 357.091,692.27 C356.742,692.614 356.333,692.786 355.864,692.786 L348.802,692.786 C348.312,692.786 347.898,692.614 347.559,692.27 C347.221,691.927 347.052,691.51 347.052,691.02 L347.052,657.583 L355.864,657.583 "/>
<path class="InstrumentName" d="M215.098,1006.69 L215.098,1009.05 L216.005,1009.05 C218.848,1009.1 219.802,1009.25 220.192,1009.75 C220.505,1010.19 220.505,1010.3 220.505,1012.85 L220.505,1036.64 C220.505,1039.2 220.505,1039.3 220.192,1039.75 C219.802,1040.25 218.848,1040.45 216.005,1040.45 L215.098,1040.45 L215.098,1042.8 L233.255,1042.8 C241.895,1042.8 247.098,1039.14 247.098,1033 C247.098,1028 243.958,1025.14 237.098,1023.95 C239.505,1023.45 240.598,1023 241.895,1022.05 C243.958,1020.5 245.208,1018.05 245.208,1015.55 C245.208,1012.3 243.208,1009.14 240.302,1007.89 C238.505,1007.1 236.005,1006.69 233.052,1006.69 L215.098,1006.69 M226.098,1022.95 L226.098,1011.55 C226.098,1009.6 226.755,1009.1 229.395,1009.05 L231.395,1009.05 C236.302,1009.05 239.395,1010.64 239.395,1016.1 C239.395,1021.05 237.005,1022.95 230.552,1022.95 L226.098,1022.95 M226.098,1025.3 L230.505,1025.3 C238.145,1025.3 240.958,1027.35 240.958,1032.85 C240.958,1039.55 236.755,1040.45 231.098,1040.45 L229.005,1040.45 C226.505,1040.45 226.005,1039.95 226.098,1037.3 L226.098,1025.3 M272.192,1026.7 C272.192,1023.55 271.645,1021.95 270.192,1020.75 C268.552,1019.39 266.098,1018.75 262.895,1018.75 C257.255,1018.75 253.145,1021.39 253.145,1025.05 C253.145,1026.89 254.302,1028.1 256.052,1028.1 C257.645,1028.1 258.755,1027.05 258.755,1025.55 C258.755,1024.89 258.505,1024.2 258.005,1023.5 C257.692,1023.14 257.645,1023.05 257.645,1022.8 C257.645,1021.8 259.645,1020.89 262.052,1020.89 C263.645,1020.89 265.395,1021.39 266.192,1022.14 C267.145,1022.95 267.505,1024.14 267.505,1026.39 L267.505,1028.35 C262.302,1029.25 260.645,1029.64 258.192,1030.6 C253.848,1032.2 251.802,1034.5 251.802,1037.7 C251.802,1041.3 254.598,1043.55 259.052,1043.55 C262.505,1043.55 265.598,1042.14 267.755,1039.6 C268.552,1042.14 269.802,1043.14 272.145,1043.14 C274.395,1043.14 276.755,1041.7 276.755,1040.25 C276.755,1039.89 276.552,1039.64 276.255,1039.64 C276.052,1039.64 275.848,1039.7 275.505,1039.85 C274.802,1040.14 274.505,1040.2 274.098,1040.2 C272.692,1040.2 272.192,1039.3 272.192,1036.75 L272.192,1026.7 M267.505,1032.8 C267.505,1035.8 267.348,1036.5 266.505,1037.8 C265.255,1039.64 263.005,1040.89 260.802,1040.89 C258.505,1040.89 256.848,1039.25 256.848,1037 C256.848,1034.89 257.895,1033.39 260.098,1032.35 C261.645,1031.64 263.598,1031.14 267.505,1030.5 L267.505,1032.8 M297.098,1018.95 L295.348,1018.95 L293.895,1020.75 C292.098,1019.35 290.302,1018.75 287.802,1018.75 C283.395,1018.75 280.505,1021.6 280.505,1026 C280.505,1030.7 283.552,1031.89 287.552,1032.85 L290.192,1033.45 C294.145,1034.39 295.552,1035.39 295.552,1037.39 C295.552,1039.75 293.505,1041.39 290.598,1041.39 C286.348,1041.39 283.348,1038.7 282.145,1033.7 L280.145,1033.7 L280.145,1043.14 L281.895,1043.14 L283.645,1041.1 C285.692,1042.75 287.942,1043.55 290.505,1043.55 C295.395,1043.55 298.645,1040.5 298.645,1035.85 C298.645,1033.64 297.942,1031.95 296.552,1030.8 C295.348,1029.75 294.348,1029.35 291.302,1028.7 L288.802,1028.14 C286.052,1027.55 286.052,1027.55 285.145,1027.05 C284.052,1026.55 283.395,1025.5 283.395,1024.39 C283.395,1022.35 285.302,1020.95 288.052,1020.95 C292.145,1020.95 294.145,1023.85 295.348,1027.35 L297.098,1027.35 L297.098,1018.95 M320.098,1018.95 L318.348,1018.95 L316.895,1020.75 C315.098,1019.35 313.302,1018.75 310.802,1018.75 C306.395,1018.75 303.505,1021.6 303.505,1026 C303.505,1030.7 306.552,1031.89 310.552,1032.85 L313.192,1033.45 C317.145,1034.39 318.552,1035.39 318.552,1037.39 C318.552,1039.75 316.505,1041.39 313.598,1041.39 C309.348,1041.39 306.348,1038.7 305.145,1033.7 L303.145,1033.7 L303.145,1043.14 L304.895,1043.14 L306.645,1041.1 C308.692,1042.75 310.942,1043.55 313.505,1043.55 C318.395,1043.55 321.645,1040.5 321.645,1035.85 C321.645,1033.64 320.942,1031.95 319.552,1030.8 C318.348,1029.75 317.348,1029.35 314.302,1028.7 L311.802,1028.14 C309.052,1027.55 309.052,1027.55 308.145,1027.05 C307.052,1026.55 306.395,1025.5 306.395,1024.39 C306.395,1022.35 308.302,1020.95 311.052,1020.95 C315.145,1020.95 317.145,1023.85 318.348,1027.35 L320.098,1027.35 L320.098,1018.95 "/>
<path class="InstrumentName" d="M367.942,1031.33 C368.161,1031.54 368.27,1031.79 368.27,1032.08 C368.27,1032.37 368.161,1032.62 367.942,1032.81 C367.734,1033.02 367.484,1033.13 367.192,1033.13 C366.901,1033.13 366.656,1033.02 366.458,1032.81 L363.739,1030.13 C363.552,1029.92 363.458,1029.67 363.458,1029.37 C363.458,1029.07 363.552,1028.83 363.739,1028.64 C363.958,1028.42 364.213,1028.31 364.505,1028.31 C364.796,1028.31 365.046,1028.42 365.255,1028.64 L367.942,1031.33 M361.723,1032.17 C361.505,1031.99 361.255,1031.89 360.973,1031.89 C360.692,1031.89 360.442,1031.99 360.223,1032.17 C360.015,1032.39 359.911,1032.65 359.911,1032.94 C359.911,1033.23 360.015,1033.48 360.223,1033.69 L362.911,1036.38 C363.109,1036.57 363.354,1036.67 363.645,1036.67 C363.937,1036.67 364.192,1036.57 364.411,1036.38 C364.619,1036.17 364.723,1035.92 364.723,1035.62 C364.723,1035.32 364.619,1035.08 364.411,1034.89 L361.723,1032.17 M392.145,1001.27 C392.27,1001.55 392.276,1001.83 392.161,1002.13 C392.078,1002.4 392.078,1002.63 392.161,1002.83 L392.458,1003.44 C393.062,1003.2 393.656,1003.11 394.239,1003.17 C394.822,1003.22 395.333,1003.49 395.77,1003.95 C396.249,1004.48 396.484,1005.08 396.473,1005.78 C396.463,1006.48 396.223,1007.08 395.755,1007.6 C395.359,1008.01 394.89,1008.28 394.348,1008.39 C393.807,1008.51 393.291,1008.47 392.802,1008.28 C392.364,1008.1 392.02,1008.2 391.77,1008.61 L389.864,1011.81 C389.624,1012.14 389.304,1012.32 388.903,1012.36 C388.502,1012.4 388.156,1012.29 387.864,1012.03 L372.802,1027.1 C374.447,1027.76 376.062,1027.7 377.645,1026.91 C378.312,1026.58 379.002,1026.54 379.716,1026.77 C380.429,1027.01 380.947,1027.46 381.27,1028.13 C381.614,1028.79 381.669,1029.48 381.434,1030.19 C381.2,1030.9 380.749,1031.42 380.083,1031.77 C379.135,1032.24 378.192,1032.56 377.255,1032.74 C376.046,1032.99 375.039,1033.56 374.231,1034.46 C373.424,1035.36 372.963,1036.42 372.848,1037.63 C372.723,1039.07 372.351,1040.49 371.731,1041.86 C371.111,1043.24 370.255,1044.49 369.161,1045.61 C367.505,1047.26 365.593,1048.36 363.427,1048.92 C361.26,1049.47 359.091,1049.49 356.919,1048.96 C354.747,1048.44 352.822,1047.36 351.145,1045.74 C349.874,1044.51 348.919,1043.1 348.278,1041.52 C347.637,1039.95 347.309,1038.32 347.294,1036.64 C347.278,1034.97 347.58,1033.33 348.2,1031.75 C348.82,1030.17 349.744,1028.75 350.973,1027.49 C352.088,1026.36 353.333,1025.49 354.708,1024.86 C356.083,1024.24 357.499,1023.86 358.958,1023.74 C360.166,1023.62 361.229,1023.17 362.145,1022.37 C363.062,1021.57 363.635,1020.58 363.864,1019.39 C364.083,1018.31 364.453,1017.27 364.973,1016.29 C365.494,1015.31 366.161,1014.4 366.973,1013.58 C367.505,1013.06 368.151,1012.8 368.911,1012.8 C369.671,1012.8 370.312,1013.06 370.833,1013.6 C371.364,1014.14 371.617,1014.79 371.591,1015.54 C371.565,1016.3 371.291,1016.94 370.77,1017.49 C369.927,1018.33 369.401,1019.33 369.192,1020.49 C368.984,1021.64 369.088,1022.74 369.505,1023.78 L384.552,1008.74 L384.692,1008.86 C384.432,1008.54 384.343,1008.17 384.427,1007.75 C384.51,1007.33 384.739,1007.03 385.114,1006.83 L385.77,1006.52 L385.473,1005.83 C385.38,1005.62 385.203,1005.46 384.942,1005.35 C384.661,1005.22 384.463,1005.03 384.348,1004.77 C384.223,1004.45 384.221,1004.14 384.341,1003.84 C384.46,1003.53 384.677,1003.31 384.989,1003.17 C385.302,1003.05 385.606,1003.05 385.903,1003.17 C386.2,1003.29 386.421,1003.5 386.567,1003.81 C386.682,1004.07 386.692,1004.35 386.598,1004.64 C386.505,1004.88 386.515,1005.12 386.63,1005.35 L386.895,1006 L388.552,1005.22 L388.255,1004.56 C388.161,1004.36 387.989,1004.19 387.739,1004.08 C387.447,1003.94 387.244,1003.75 387.13,1003.49 C387.005,1003.18 387.002,1002.88 387.122,1002.56 C387.242,1002.25 387.458,1002.03 387.77,1001.91 C388.083,1001.77 388.393,1001.77 388.7,1001.89 C389.007,1002.02 389.229,1002.23 389.364,1002.53 C389.458,1002.81 389.473,1003.1 389.411,1003.38 C389.328,1003.65 389.328,1003.88 389.411,1004.08 L389.692,1004.7 L391.333,1003.95 L391.036,1003.31 C390.942,1003.11 390.776,1002.94 390.536,1002.81 C390.234,1002.68 390.026,1002.48 389.911,1002.22 C389.786,1001.91 389.783,1001.6 389.903,1001.29 C390.023,1000.98 390.239,1000.77 390.552,1000.64 C390.864,1000.51 391.174,1000.5 391.481,1000.62 C391.789,1000.74 392.01,1000.95 392.145,1001.27 M367.02,1023.75 C366.77,1023.63 366.499,1023.54 366.208,1023.49 C365.302,1023.39 364.609,1023.74 364.13,1024.52 C363.536,1025.48 362.645,1025.99 361.458,1026.05 C360.489,1026.08 359.562,1026.28 358.677,1026.65 C357.791,1027.02 357.005,1027.55 356.317,1028.25 L356.27,1028.27 C355.416,1029.16 354.992,1030.24 354.997,1031.49 C355.002,1032.75 355.442,1033.81 356.317,1034.69 L360.286,1038.67 C360.88,1039.26 361.161,1039.9 361.13,1040.6 C361.098,1041.31 361.02,1041.99 360.895,1042.66 C360.822,1042.92 360.768,1043.17 360.731,1043.42 C360.695,1043.66 360.677,1043.89 360.677,1044.11 C360.677,1044.41 360.723,1044.7 360.817,1044.97 C361.057,1045.57 361.486,1046.01 362.106,1046.27 C362.726,1046.53 363.338,1046.53 363.942,1046.28 C365.307,1045.73 366.489,1044.95 367.489,1043.94 C368.364,1043.06 369.067,1042.05 369.598,1040.89 C369.859,1040.36 370.052,1039.8 370.177,1039.21 C370.302,1038.62 370.421,1038.03 370.536,1037.42 C370.828,1035.82 371.598,1034.42 372.848,1033.22 C373.744,1032.23 374.885,1031.58 376.27,1031.27 C376.416,1031.24 376.619,1031.17 376.88,1031.06 C377.14,1030.96 377.343,1030.87 377.489,1030.78 C377.916,1030.49 378.062,1030.16 377.927,1029.78 C377.77,1029.31 377.526,1029.07 377.192,1029.06 C376.859,1029.04 376.526,1029.06 376.192,1029.13 C376.098,1029.16 376.026,1029.17 375.973,1029.17 C375.39,1029.29 374.874,1029.33 374.427,1029.31 C373.979,1029.28 373.666,1029.26 373.489,1029.25 L373.458,1029.25 C373.447,1029.25 373.411,1029.24 373.348,1029.22 C373.307,1029.22 373.265,1029.22 373.223,1029.2 C373.171,1029.2 373.046,1029.19 372.848,1029.16 C372.609,1029.12 372.315,1029.07 371.966,1029.01 C371.617,1028.95 371.317,1028.89 371.067,1028.83 C370.859,1029.05 370.604,1029.15 370.302,1029.14 C369.999,1029.13 369.744,1029.02 369.536,1028.81 L367.77,1027.08 C367.562,1026.86 367.458,1026.6 367.458,1026.29 C367.458,1025.98 367.562,1025.72 367.77,1025.49 L368.067,1025.22 C367.942,1024.56 367.593,1024.07 367.02,1023.75 M360.255,1040.6 L356.005,1036.35 C355.796,1036.14 355.588,1036.14 355.38,1036.35 L353.489,1038.2 C353.281,1038.42 353.281,1038.64 353.489,1038.85 L357.739,1043.06 C357.947,1043.28 358.161,1043.28 358.38,1043.06 L360.223,1041.2 C360.473,1041.02 360.484,1040.81 360.255,1040.6"/>
<path class="TieSegment" stroke="#000000" stroke-width="1.24" stroke-linecap="round" stroke-linejoin="round" fill-rule="evenodd" d="M1167.14,591.302 C1193.04,564.609 1270.73,564.609 1296.62,591.302 C1270.73,572.545 1193.04,572.545 1167.14,591.302"/>
<path class="TieSegment" stroke="#000000" stroke-width="1.24" stroke-linecap="round" stroke-linejoin="round" fill-rule="evenodd" d="M1996.02,566.502 C2021.91,539.809 2099.6,539.809 2125.5,566.502 C2099.6,547.745 2021.91,547.745 1996.02,566.502"/>
<path class="TieSegment" stroke="#000000" stroke-width="1.24" stroke-linecap="round" stroke-linejoin="round" fill-rule="evenodd" d="M1996.56,984.87 C2022.46,950.173 2100.15,950.173 2126.05,984.87 C2100.15,958.109 2022.46,958.109 1996.56,984.87"/>
<path class="TieSegment" stroke="#000000" stroke-width="1.24" stroke-linecap="round" stroke-linejoin="round" fill-rule="evenodd" d="M1167.69,1022.07 C1193.58,987.373 1271.27,987.373 1297.17,1022.07 C1271.27,995.309 1193.58,995.309 1167.69,1022.07"/>
<polyline class="BarLine" fill="none" stroke="#000000" stroke-width="4.46" stroke-linejoin="bevel" points="423.63,632.834 423.63,968.998" />
<polyline class="BarLine" fill="none" stroke="#000000" stroke-width="4.46" stroke-linejoin="bevel" points="2739.55,632.834 2739.55,734.762" />
<polyline class="BarLine" fill="none" stroke="#000000" stroke-width="13.64" stroke-linejoin="bevel" points="2757.78,632.834 2757.78,734.762" />
<polyline class="BarLine" fill="none" stroke="#000000" stroke-width="4.46" stroke-linejoin="bevel" points="1686.61,632.834 1686.61,734.762" />
<polyline class="BarLine" fill="none" stroke="#000000" stroke-width="4.46" stroke-linejoin="bevel" points="857.734,632.834 857.734,734.762" />
<polyline class="BarLine" fill="none" stroke="#000000" stroke-width="4.46" stroke-linejoin="bevel" points="423.63,967.634 423.63,1081.96" />
<polyline class="BarLine" fill="none" stroke="#000000" stroke-width="4.46" stroke-linejoin="bevel" points="1686.61,967.634 1686.61,1081.96" />
<polyline class="BarLine" fill="none" stroke="#000000" stroke-width="4.46" stroke-linejoin="bevel" points="857.734,967.634 857.734,1081.96" />
<polyline class="BarLine" fill="none" stroke="#000000" stroke-width="4.46" stroke-linejoin="bevel" points="2739.55,967.634 2739.55,1081.96" />
<polyline class="BarLine" fill="none" stroke="#000000" stroke-width="13.64" stroke-linejoin="bevel" points="2757.78,967.634 2757.78,1081.96" />
<polyline class="LedgerLine" fill="none" stroke="#000000" stroke-width="3.97" stroke-linejoin="bevel" points="2415.44,584.598 2464.03,584.598" />
<polyline class="LedgerLine" fill="none" stroke="#000000" stroke-width="3.97" stroke-linejoin="bevel" points="2325.81,609.398 2374.4,609.398" />
<polyline class="LedgerLine" fill="none" stroke="#000000" stroke-width="3.97" stroke-linejoin="bevel" points="2101.74,584.598 2150.33,584.598" />
<polyline class="LedgerLine" fill="none" stroke="#000000" stroke-width="3.97" stroke-linejoin="bevel" points="1138.42,609.398 1187.02,609.398" />
<polyline class="LedgerLine" fill="none" stroke="#000000" stroke-width="3.97" stroke-linejoin="bevel" points="1967.3,584.598 2015.89,584.598" />
<polyline class="LedgerLine" fill="none" stroke="#000000" stroke-width="3.97" stroke-linejoin="bevel" points="2101.74,609.398 2150.33,609.398" />
<polyline class="LedgerLine" fill="none" stroke="#000000" stroke-width="3.97" stroke-linejoin="bevel" points="1967.3,609.398 2015.89,609.398" />
<polyline class="LedgerLine" fill="none" stroke="#000000" stroke-width="3.97" stroke-linejoin="bevel" points="1272.87,609.398 1321.46,609.398" />
<polyline class="LedgerLine" fill="none" stroke="#000000" stroke-width="3.97" stroke-linejoin="bevel" points="2415.44,609.398 2464.03,609.398" />
<polyline class="LedgerLine" fill="none" stroke="#000000" stroke-width="3.97" stroke-linejoin="bevel" points="2505.07,609.398 2553.66,609.398" />
<polyline class="Stem" fill="none" stroke="#000000" stroke-width="2.48" stroke-linejoin="bevel" points="2335.24,613.565 2335.24,702.398" />
<polyline class="Stem" fill="none" stroke="#000000" stroke-width="2.48" stroke-linejoin="bevel" points="2604.12,625.965 2604.12,689.914" />
<polyline class="Stem" fill="none" stroke="#000000" stroke-width="2.48" stroke-linejoin="bevel" points="2245.61,625.965 2245.61,702.398" />
<polyline class="Stem" fill="none" stroke="#000000" stroke-width="2.48" stroke-linejoin="bevel" points="2514.49,613.565 2514.49,683.798" />
<polyline class="Stem" fill="none" stroke="#000000" stroke-width="2.48" stroke-linejoin="bevel" points="892.206,625.965 892.206,708.598" />
<polyline class="Stem" fill="none" stroke="#000000" stroke-width="2.48" stroke-linejoin="bevel" points="1976.72,588.765 1976.72,683.699" />
<polyline class="Stem" fill="none" stroke="#000000" stroke-width="2.48" stroke-linejoin="bevel" points="1483.95,650.765 1483.95,733.398" />
<polyline class="Stem" fill="none" stroke="#000000" stroke-width="2.48" stroke-linejoin="bevel" points="2111.17,588.765 2111.17,702.398" />
<polyline class="Stem" fill="none" stroke="#000000" stroke-width="2.48" stroke-linejoin="bevel" points="1147.85,613.565 1147.85,696.099" />
<polyline class="Stem" fill="none" stroke="#000000" stroke-width="2.48" stroke-linejoin="bevel" points="2424.86,588.765 2424.86,677.683" />
<polyline class="Stem" fill="none" stroke="#000000" stroke-width="2.48" stroke-linejoin="bevel" points="1282.29,613.565 1282.29,696.198" />
<polyline class="Stem" fill="none" stroke="#000000" stroke-width="2.48" stroke-linejoin="bevel" points="1721.08,638.365 1721.08,720.998" />
<polyline class="Stem" fill="none" stroke="#000000" stroke-width="2.48" stroke-linejoin="bevel" points="1994.08,1105.4 1994.08,1179.7" />
<polyline class="Stem" fill="none" stroke="#000000" stroke-width="2.48" stroke-linejoin="bevel" points="1738.44,1105.4 1738.44,1179.8" />
<path class="Stem" transform="matrix(0.992,0,0,0.992,1757.04,1120.28)" d="M0,0 C0,2.79688 2.20313,5 5,5 C7.79688,5 10,2.79688 10,0 C10,-2.79688 7.79688,-5 5,-5 C2.20313,-5 0,-2.79688 0,0"/>
<polyline class="Stem" fill="none" stroke="#000000" stroke-width="2.48" stroke-linejoin="bevel" points="2442.22,1105.4 2442.22,1173.6" />
<polyline class="Stem" fill="none" stroke="#000000" stroke-width="2.48" stroke-linejoin="bevel" points="1299.65,1105.4 1299.65,1179.8" />
<polyline class="Stem" fill="none" stroke="#000000" stroke-width="2.48" stroke-linejoin="bevel" points="2531.85,1105.4 2531.85,1173.6" />
<polyline class="Stem" fill="none" stroke="#000000" stroke-width="2.48" stroke-linejoin="bevel" points="2621.48,1105.4 2621.48,1173.6" />
<polyline class="Stem" fill="none" stroke="#000000" stroke-width="2.48" stroke-linejoin="bevel" points="909.566,1105.4 909.566,1179.8" />
<path class="Stem" transform="matrix(0.992,0,0,0.992,928.166,1120.28)" d="M0,0 C0,2.79688 2.20313,5 5,5 C7.79688,5 10,2.79688 10,0 C10,-2.79688 7.79688,-5 5,-5 C2.20313,-5 0,-2.79688 0,0"/>
<polyline class="Stem" fill="none" stroke="#000000" stroke-width="2.48" stroke-linejoin="bevel" points="1165.21,1105.4 1165.21,1179.7" />
<polyline class="Stem" fill="none" stroke="#000000" stroke-width="2.48" stroke-linejoin="bevel" points="1501.31,1105.4 1501.31,1179.8" />
<polyline class="Stem" fill="none" stroke="#000000" stroke-width="2.48" stroke-linejoin="bevel" points="2128.53,1105.4 2128.53,1173.6" />
<polyline class="Stem" fill="none" stroke="#000000" stroke-width="2.48" stroke-linejoin="bevel" points="2262.97,1105.4 2262.97,1173.6" />
<polyline class="Stem" fill="none" stroke="#000000" stroke-width="2.48" stroke-linejoin="bevel" points="2352.6,1105.4 2352.6,1173.6" />
<path class="Hook" transform="matrix(0.992,0,0,0.992,1975.48,683.798)" d="M0,-0.09375 C0,0.59375 0.59375,1.20313 1.29688,1.20313 C1.79688,1.20313 2.40625,0.796875 2.5,0.40625 C2.5,0.296875 3.40625,-3.20313 3.5,-3.5 C3.59375,-3.90625 4.5,-7.70313 8.09375,-13.5938 C12,-20.0938 18,-24.7969 23,-31.7969 C27.9063,-38.7969 30.9063,-45.4063 30.9063,-54.2031 C30.9063,-63.2969 28.7969,-70.9063 23.5,-80.6094 C23.2031,-81.3125 22.5938,-81.7031 22,-81.7031 C21.7969,-81.7031 21.5938,-81.7031 21.5,-81.6094 C21,-81.4063 20.7969,-81 20.7969,-80.4063 C20.7969,-80.1094 20.9063,-79.6094 21.0938,-79.2031 C25.0938,-69.9063 26.7031,-64.6094 26.7031,-57.4063 C26.7031,-49.1094 23.7969,-44.7969 22,-41.7031 C15.5,-30.6094 5,-25.2031 0.796875,-23.7969 C0.09375,-23.5 0,-23 0,-22.7031 L0,-0.09375 "/>
<path class="Hook" transform="matrix(0.992,0,0,0.992,1146.61,696.198)" d="M0,-0.09375 C0,0.59375 0.59375,1.20313 1.29688,1.20313 C1.79688,1.20313 2.40625,0.796875 2.5,0.40625 C2.5,0.296875 3.40625,-3.20313 3.5,-3.5 C3.59375,-3.90625 4.5,-7.70313 8.09375,-13.5938 C12,-20.0938 18,-24.7969 23,-31.7969 C27.9063,-38.7969 30.9063,-45.4063 30.9063,-54.2031 C30.9063,-63.2969 28.7969,-70.9063 23.5,-80.6094 C23.2031,-81.3125 22.5938,-81.7031 22,-81.7031 C21.7969,-81.7031 21.5938,-81.7031 21.5,-81.6094 C21,-81.4063 20.7969,-81 20.7969,-80.4063 C20.7969,-80.1094 20.9063,-79.6094 21.0938,-79.2031 C25.0938,-69.9063 26.7031,-64.6094 26.7031,-57.4063 C26.7031,-49.1094 23.7969,-44.7969 22,-41.7031 C15.5,-30.6094 5,-25.2031 0.796875,-23.7969 C0.09375,-23.5 0,-23 0,-22.7031 L0,-0.09375 "/>
<path class="Hook" transform="matrix(0.992,0,0,0.992,1163.97,1179.8)" d="M0,-0.09375 C0,0.59375 0.59375,1.20313 1.29688,1.20313 C1.79688,1.20313 2.40625,0.796875 2.5,0.40625 C2.5,0.296875 3.40625,-3.20313 3.5,-3.5 C3.59375,-3.90625 4.5,-7.70313 8.09375,-13.5938 C12,-20.0938 18,-24.7969 23,-31.7969 C27.9063,-38.7969 30.9063,-45.4063 30.9063,-54.2031 C30.9063,-63.2969 28.7969,-70.9063 23.5,-80.6094 C23.2031,-81.3125 22.5938,-81.7031 22,-81.7031 C21.7969,-81.7031 21.5938,-81.7031 21.5,-81.6094 C21,-81.4063 20.7969,-81 20.7969,-80.4063 C20.7969,-80.1094 20.9063,-79.6094 21.0938,-79.2031 C25.0938,-69.9063 26.7031,-64.6094 26.7031,-57.4063 C26.7031,-49.1094 23.7969,-44.7969 22,-41.7031 C15.5,-30.6094 5,-25.2031 0.796875,-23.7969 C0.09375,-23.5 0,-23 0,-22.7031 L0,-0.09375 "/>
<path class="Hook" transform="matrix(0.992,0,0,0.992,1992.84,1179.8)" d="M0,-0.09375 C0,0.59375 0.59375,1.20313 1.29688,1.20313 C1.79688,1.20313 2.40625,0.796875 2.5,0.40625 C2.5,0.296875 3.40625,-3.20313 3.5,-3.5 C3.59375,-3.90625 4.5,-7.70313 8.09375,-13.5938 C12,-20.0938 18,-24.7969 23,-31.7969 C27.9063,-38.7969 30.9063,-45.4063 30.9063,-54.2031 C30.9063,-63.2969 28.7969,-70.9063 23.5,-80.6094 C23.2031,-81.3125 22.5938,-81.7031 22,-81.7031 C21.7969,-81.7031 21.5938,-81.7031 21.5,-81.6094 C21,-81.4063 20.7969,-81 20.7969,-80.4063 C20.7969,-80.1094 20.9063,-79.6094 21.0938,-79.2031 C25.0938,-69.9063 26.7031,-64.6094 26.7031,-57.4063 C26.7031,-49.1094 23.7969,-44.7969 22,-41.7031 C15.5,-30.6094 5,-25.2031 0.796875,-23.7969 C0.09375,-23.5 0,-23 0,-22.7031 L0,-0.09375 "/>
<path class="Note" transform="matrix(0.992,0,0,0.992,2513.25,609.398)" d="M0,4.20313 C0,8.5 3.09375,13.2969 11.2031,13.2969 C21.5938,13.2969 32.5,4.79688 32.5,-4 C32.5,-9.90625 27.5,-13.2031 21.2969,-13.2031 C11.5938,-13.2031 0,-5 0,4.20313"/>
<path class="Note" transform="matrix(0.992,0,0,0.992,1482.71,646.598)" d="M0,4.20313 C0,8.5 3.09375,13.2969 11.2031,13.2969 C21.5938,13.2969 32.5,4.79688 32.5,-4 C32.5,-9.90625 27.5,-13.2031 21.2969,-13.2031 C11.5938,-13.2031 0,-5 0,4.20313"/>
<path class="Note" transform="matrix(0.992,0,0,0.992,2602.88,621.798)" d="M0,4.20313 C0,8.5 3.09375,13.2969 11.2031,13.2969 C21.5938,13.2969 32.5,4.79688 32.5,-4 C32.5,-9.90625 27.5,-13.2031 21.2969,-13.2031 C11.5938,-13.2031 0,-5 0,4.20313"/>
<path class="Note" transform="matrix(0.992,0,0,0.992,1975.48,584.598)" d="M0,4.20313 C0,8.5 3.09375,13.2969 11.2031,13.2969 C21.5938,13.2969 32.5,4.79688 32.5,-4 C32.5,-9.90625 27.5,-13.2031 21.2969,-13.2031 C11.5938,-13.2031 0,-5 0,4.20313"/>
<path class="Note" transform="matrix(0.992,0,0,0.992,2109.93,584.598)" d="M0,4.20313 C0,8.5 3.09375,13.2969 11.2031,13.2969 C21.5938,13.2969 32.5,4.79688 32.5,-4 C32.5,-9.90625 27.5,-13.2031 21.2969,-13.2031 C11.5938,-13.2031 0,-5 0,4.20313"/>
<path class="Note" transform="matrix(0.992,0,0,0.992,2244.37,621.798)" d="M0,4.20313 C0,8.5 3.09375,13.2969 11.2031,13.2969 C21.5938,13.2969 32.5,4.79688 32.5,-4 C32.5,-9.90625 27.5,-13.2031 21.2969,-13.2031 C11.5938,-13.2031 0,-5 0,4.20313"/>
<path class="Note" transform="matrix(0.992,0,0,0.992,2334,609.398)" d="M0,4.20313 C0,8.5 3.09375,13.2969 11.2031,13.2969 C21.5938,13.2969 32.5,4.79688 32.5,-4 C32.5,-9.90625 27.5,-13.2031 21.2969,-13.2031 C11.5938,-13.2031 0,-5 0,4.20313"/>
<path class="Note" transform="matrix(0.992,0,0,0.992,890.966,621.798)" d="M0,4.20313 C0,8.5 3.09375,13.2969 11.2031,13.2969 C21.5938,13.2969 32.5,4.79688 32.5,-4 C32.5,-9.90625 27.5,-13.2031 21.2969,-13.2031 C11.5938,-13.2031 0,-5 0,4.20313"/>
<path class="Note" transform="matrix(0.992,0,0,0.992,2423.62,584.598)" d="M0,4.20313 C0,8.5 3.09375,13.2969 11.2031,13.2969 C21.5938,13.2969 32.5,4.79688 32.5,-4 C32.5,-9.90625 27.5,-13.2031 21.2969,-13.2031 C11.5938,-13.2031 0,-5 0,4.20313"/>
<path class="Note" transform="matrix(0.992,0,0,0.992,1146.61,609.398)" d="M0,4.20313 C0,8.5 3.09375,13.2969 11.2031,13.2969 C21.5938,13.2969 32.5,4.79688 32.5,-4 C32.5,-9.90625 27.5,-13.2031 21.2969,-13.2031 C11.5938,-13.2031 0,-5 0,4.20313"/>
<path class="Note" transform="matrix(0.992,0,0,0.992,1281.05,609.398)" d="M0,4.20313 C0,8.5 3.09375,13.2969 11.2031,13.2969 C21.5938,13.2969 32.5,4.79688 32.5,-4 C32.5,-9.90625 27.5,-13.2031 21.2969,-13.2031 C11.5938,-13.2031 0,-5 0,4.20313"/>
<path class="Note" transform="matrix(0.992,0,0,0.992,1719.84,634.198)" d="M0,4.20313 C0,8.5 3.09375,13.2969 11.2031,13.2969 C21.5938,13.2969 32.5,4.79688 32.5,-4 C32.5,-9.90625 27.5,-13.2031 21.2969,-13.2031 C11.5938,-13.2031 0,-5 0,4.20313"/>
<path class="Note" d="M1740.76,1088.46 L1727.31,1088.46 L1727.31,1084.15 L1741.79,1064.07 L1744.71,1064.07 L1744.71,1084.77 L1749.45,1084.77 L1749.45,1088.46 L1744.71,1088.46 L1744.71,1095.97 L1740.76,1095.97 L1740.76,1088.46 M1740.76,1084.77 L1740.76,1070.82 L1730.76,1084.77 L1740.76,1084.77 "/>
<path class="Note" d="M2352.35,1030.56 C2350.07,1030.56 2348.5,1031.16 2347.65,1032.36 C2346.79,1033.56 2346.34,1035.17 2346.27,1037.18 L2342.3,1037.18 C2342.46,1030.31 2345.79,1026.87 2352.3,1026.87 C2355.34,1026.87 2357.71,1027.64 2359.44,1029.2 C2361.16,1030.75 2362.02,1032.88 2362.02,1035.6 C2362.02,1038.78 2360.54,1040.94 2357.57,1042.09 C2359.49,1042.75 2360.86,1043.69 2361.7,1044.88 C2362.54,1046.08 2362.96,1047.71 2362.96,1049.77 C2362.96,1052.84 2361.98,1055.27 2360.02,1057.09 C2358.05,1058.9 2355.44,1059.81 2352.16,1059.81 C2345.62,1059.81 2342.11,1056.37 2341.63,1049.51 L2345.6,1049.51 C2345.75,1051.76 2346.36,1053.42 2347.44,1054.5 C2348.52,1055.58 2350.14,1056.12 2352.3,1056.12 C2354.37,1056.12 2355.98,1055.56 2357.16,1054.45 C2358.33,1053.34 2358.91,1051.8 2358.91,1049.82 C2358.91,1046.01 2356.71,1044.1 2352.3,1044.1 L2350.63,1044.15 L2350.13,1044.15 L2350.13,1040.46 C2352.99,1040.4 2355.01,1040.06 2356.2,1039.43 C2357.38,1038.81 2357.98,1037.57 2357.98,1035.73 C2357.98,1034.13 2357.47,1032.87 2356.47,1031.95 C2355.46,1031.02 2354.09,1030.56 2352.35,1030.56"/>
<path class="Note" d="M1299.41,1030.56 C1297.13,1030.56 1295.56,1031.16 1294.7,1032.36 C1293.85,1033.56 1293.39,1035.17 1293.33,1037.18 L1289.36,1037.18 C1289.52,1030.31 1292.85,1026.87 1299.36,1026.87 C1302.39,1026.87 1304.77,1027.64 1306.49,1029.2 C1308.22,1030.75 1309.08,1032.88 1309.08,1035.6 C1309.08,1038.78 1307.59,1040.94 1304.63,1042.09 C1306.54,1042.75 1307.92,1043.69 1308.76,1044.88 C1309.6,1046.08 1310.02,1047.71 1310.02,1049.77 C1310.02,1052.84 1309.03,1055.27 1307.07,1057.09 C1305.11,1058.9 1302.49,1059.81 1299.22,1059.81 C1292.68,1059.81 1289.17,1056.37 1288.69,1049.51 L1292.66,1049.51 C1292.8,1051.76 1293.41,1053.42 1294.49,1054.5 C1295.57,1055.58 1297.19,1056.12 1299.36,1056.12 C1301.42,1056.12 1303.04,1055.56 1304.21,1054.45 C1305.38,1053.34 1305.97,1051.8 1305.97,1049.82 C1305.97,1046.01 1303.77,1044.1 1299.36,1044.1 L1297.69,1044.15 L1297.19,1044.15 L1297.19,1040.46 C1300.04,1040.4 1302.06,1040.06 1303.25,1039.43 C1304.44,1038.81 1305.03,1037.57 1305.03,1035.73 C1305.03,1034.13 1304.53,1032.87 1303.52,1031.95 C1302.52,1031.02 1301.15,1030.56 1299.41,1030.56"/>
<path class="Note" d="M1164.96,1030.56 C1162.68,1030.56 1161.12,1031.16 1160.26,1032.36 C1159.41,1033.56 1158.95,1035.17 1158.89,1037.18 L1154.92,1037.18 C1155.07,1030.31 1158.41,1026.87 1164.92,1026.87 C1167.95,1026.87 1170.33,1027.64 1172.05,1029.2 C1173.77,1030.75 1174.64,1032.88 1174.64,1035.6 C1174.64,1038.78 1173.15,1040.94 1170.18,1042.09 C1172.1,1042.75 1173.48,1043.69 1174.32,1044.88 C1175.15,1046.08 1175.57,1047.71 1175.57,1049.77 C1175.57,1052.84 1174.59,1055.27 1172.63,1057.09 C1170.67,1058.9 1168.05,1059.81 1164.78,1059.81 C1158.24,1059.81 1154.73,1056.37 1154.25,1049.51 L1158.21,1049.51 C1158.36,1051.76 1158.97,1053.42 1160.05,1054.5 C1161.13,1055.58 1162.75,1056.12 1164.92,1056.12 C1166.98,1056.12 1168.6,1055.56 1169.77,1054.45 C1170.94,1053.34 1171.53,1051.8 1171.53,1049.82 C1171.53,1046.01 1169.32,1044.1 1164.92,1044.1 L1163.25,1044.15 L1162.75,1044.15 L1162.75,1040.46 C1165.6,1040.4 1167.62,1040.06 1168.81,1039.43 C1170,1038.81 1170.59,1037.57 1170.59,1035.73 C1170.59,1034.13 1170.09,1032.87 1169.08,1031.95 C1168.08,1031.02 1166.7,1030.56 1164.96,1030.56"/>
<path class="Note" d="M1993.34,998.856 L1986.28,998.856 L1986.28,996.012 C1989.33,995.627 1991.32,995.087 1992.25,994.395 C1993.19,993.702 1994,992.127 1994.68,989.668 L1997.29,989.668 L1997.29,1021.57 L1993.34,1021.57 L1993.34,998.856 "/>
<path class="Note" d="M2441.48,998.856 L2434.42,998.856 L2434.42,996.012 C2437.47,995.627 2439.46,995.087 2440.39,994.395 C2441.33,993.702 2442.14,992.127 2442.82,989.668 L2445.43,989.668 L2445.43,1021.57 L2441.48,1021.57 L2441.48,998.856 "/>
<path class="Note" d="M2531.61,1030.56 C2529.33,1030.56 2527.76,1031.16 2526.9,1032.36 C2526.05,1033.56 2525.59,1035.17 2525.53,1037.18 L2521.56,1037.18 C2521.72,1030.31 2525.05,1026.87 2531.56,1026.87 C2534.59,1026.87 2536.97,1027.64 2538.69,1029.2 C2540.42,1030.75 2541.28,1032.88 2541.28,1035.6 C2541.28,1038.78 2539.8,1040.94 2536.83,1042.09 C2538.74,1042.75 2540.12,1043.69 2540.96,1044.88 C2541.8,1046.08 2542.22,1047.71 2542.22,1049.77 C2542.22,1052.84 2541.24,1055.27 2539.27,1057.09 C2537.31,1058.9 2534.69,1059.81 2531.42,1059.81 C2524.88,1059.81 2521.37,1056.37 2520.89,1049.51 L2524.86,1049.51 C2525,1051.76 2525.62,1053.42 2526.69,1054.5 C2527.77,1055.58 2529.39,1056.12 2531.56,1056.12 C2533.62,1056.12 2535.24,1055.56 2536.41,1054.45 C2537.58,1053.34 2538.17,1051.8 2538.17,1049.82 C2538.17,1046.01 2535.97,1044.1 2531.56,1044.1 L2529.89,1044.15 L2529.39,1044.15 L2529.39,1040.46 C2532.24,1040.4 2534.26,1040.06 2535.45,1039.43 C2536.64,1038.81 2537.23,1037.57 2537.23,1035.73 C2537.23,1034.13 2536.73,1032.87 2535.72,1031.95 C2534.72,1031.02 2533.35,1030.56 2531.61,1030.56"/>
<path class="Note" d="M908.822,1036.06 L901.76,1036.06 L901.76,1033.21 C904.812,1032.83 906.804,1032.29 907.736,1031.59 C908.669,1030.9 909.478,1029.33 910.166,1026.87 L912.775,1026.87 L912.775,1058.77 L908.822,1058.77 L908.822,1036.06 "/>
<path class="Note" d="M2620.74,1036.06 L2613.67,1036.06 L2613.67,1033.21 C2616.73,1032.83 2618.72,1032.29 2619.65,1031.59 C2620.58,1030.9 2621.39,1029.33 2622.08,1026.87 L2624.69,1026.87 L2624.69,1058.77 L2620.74,1058.77 L2620.74,1036.06 "/>
<path class="Note" d="M2127.78,998.856 L2120.72,998.856 L2120.72,996.012 C2123.77,995.627 2125.76,995.087 2126.7,994.395 C2127.63,993.702 2128.44,992.127 2129.13,989.668 L2131.73,989.668 L2131.73,1021.57 L2127.78,1021.57 L2127.78,998.856 "/>
<path class="Note" d="M1501.07,1067.76 C1498.79,1067.76 1497.22,1068.36 1496.37,1069.56 C1495.51,1070.76 1495.05,1072.37 1494.99,1074.38 L1491.02,1074.38 C1491.18,1067.51 1494.51,1064.07 1501.02,1064.07 C1504.05,1064.07 1506.43,1064.84 1508.16,1066.4 C1509.88,1067.95 1510.74,1070.08 1510.74,1072.8 C1510.74,1075.98 1509.26,1078.14 1506.29,1079.29 C1508.21,1079.95 1509.58,1080.89 1510.42,1082.08 C1511.26,1083.28 1511.68,1084.91 1511.68,1086.97 C1511.68,1090.04 1510.7,1092.47 1508.73,1094.29 C1506.77,1096.1 1504.15,1097.01 1500.88,1097.01 C1494.34,1097.01 1490.83,1093.57 1490.35,1086.71 L1494.32,1086.71 C1494.47,1088.96 1495.08,1090.62 1496.16,1091.7 C1497.23,1092.78 1498.86,1093.32 1501.02,1093.32 C1503.09,1093.32 1504.7,1092.76 1505.87,1091.65 C1507.05,1090.54 1507.63,1089 1507.63,1087.02 C1507.63,1083.21 1505.43,1081.3 1501.02,1081.3 L1499.35,1081.35 L1498.85,1081.35 L1498.85,1077.66 C1501.71,1077.6 1503.73,1077.26 1504.91,1076.63 C1506.1,1076.01 1506.69,1074.77 1506.69,1072.93 C1506.69,1071.33 1506.19,1070.07 1505.19,1069.15 C1504.18,1068.22 1502.81,1067.76 1501.07,1067.76"/>
<path class="Note" d="M2262.22,1036.06 L2255.16,1036.06 L2255.16,1033.21 C2258.21,1032.83 2260.21,1032.29 2261.14,1031.59 C2262.07,1030.9 2262.88,1029.33 2263.57,1026.87 L2266.18,1026.87 L2266.18,1058.77 L2262.22,1058.77 L2262.22,1036.06 "/>
<path class="Clef" transform="matrix(0.992,0,0,0.992,444.462,658.998)" d="M25.4063,-25.0938 C17.7969,-25.0938 11.7031,-20.7031 11.5938,-20.7031 C5.79688,-16.4063 3.5,-11.2969 2.59375,-7.79688 C2.09375,-6 1.90625,-4.20313 1.90625,-2.5 C1.90625,-0.09375 2.29688,2.09375 3.20313,4 C4.40625,6.70313 6.70313,8.59375 9.70313,9.59375 C10.9063,10 12.2031,10.2031 13.5,10.2031 C15.7031,10.2031 18,9.59375 19.9063,8.5 C23,6.79688 24.9063,3.20313 24.9063,-0.703125 C24.9063,-4.20313 23.0938,-7.40625 20.0938,-9.29688 C18,-10.7031 16,-11.0938 14.2969,-11.0938 C13.0938,-11.0938 12,-10.9063 11.0938,-10.5938 C10.0938,-10.2031 8.40625,-9.20313 7.59375,-8.5 C7.90625,-10.4063 9.09375,-13.2969 10.2031,-14.9063 C11.2969,-16.5 13.5,-18.5 15.2031,-19.4063 C17.7031,-20.7969 20.9063,-21.4063 24.4063,-21.4063 C34.6094,-21.4063 39.6094,-13.2031 39.6094,3.59375 C39.6094,12.9063 36.1094,21.7969 33.1094,27.7031 C29.7969,34.2969 25.4063,40.6094 21.5,44.1094 C11.0938,53.6094 1.29688,58.1094 1.20313,58.1094 C1.20313,58.1094 0,58.7969 0,60 C0,60.2031 0.09375,60.2969 0.09375,60.5 C0.40625,61.5 1.29688,61.7031 1.90625,61.7031 C2,61.7031 2.29688,61.6094 2.40625,61.6094 C2.5,61.6094 13.9063,56.9063 23,49.7969 C28.1094,46.1094 32.7031,42.1094 36.7031,37.7969 C40.2969,33.9063 43.4063,29.7031 45.9063,25.5 C50.2969,18 52.7969,10.2031 52.7969,3.5 C52.7969,-4.79688 50.6094,-11.7031 46.5,-16.5938 C41.7969,-22.2031 34.7031,-25.0938 25.4063,-25.0938 M56.7969,-12.4063 C56.7969,-9.59375 59,-7.40625 61.6094,-7.40625 C64.2031,-7.40625 66.4063,-9.59375 66.4063,-12.4063 C66.4063,-15.2031 64.2031,-17.5 61.6094,-17.5 C59,-17.5 56.7969,-15.2031 56.7969,-12.4063 M56.7969,12.2969 C56.7969,15.0938 59,17.4063 61.6094,17.4063 C64.2031,17.4063 66.4063,15.0938 66.4063,12.2969 C66.4063,9.5 64.2031,7.20313 61.6094,7.20313 C59,7.20313 56.7969,9.5 56.7969,12.2969"/>
<path class="Clef" transform="matrix(0.992,0,0,0.992,444.462,1024.8)" d="M2.40625,-50 L2.40625,-44.6094 L11.5938,-44.6094 L11.5938,-19.5 L18,-19.5 L18,-44.6094 L27.1094,-44.6094 L27.1094,-50 L2.40625,-50 M0,15.4063 L6.79688,15.4063 L8.90625,9.09375 L20.2969,9.09375 L22.4063,15.4063 L29.4063,15.4063 L18.4063,-15.5938 L11.0938,-15.5938 L0,15.4063 M14.7031,-8.5 L18.5938,3.70313 L10.7031,3.70313 L14.7031,-8.5 M26.2969,22 C24.7031,19.7969 22.0938,18.7031 18.2969,18.5938 L3.29688,18.5938 L3.29688,49.7031 L17.2969,49.7031 C17.4063,49.7031 17.4063,49.7031 17.4063,49.7031 C18.7969,49.7031 20.2031,49.6094 21.5938,49.2969 C23,49.1094 24.2031,48.5 25.2031,47.7031 C26.1094,47.1094 26.7031,46.2031 27.2969,45.2969 C28.2969,43.7969 28.7031,42.2031 28.7031,40.4063 C28.7031,38.5 28.2969,37.1094 27.5,35.7969 C26.7031,34.5 25.5,33.7031 23.9063,33 C25,32.5 25.7969,32 26.2969,31.2969 C27.2969,30.2031 27.7031,28.6094 27.7031,26.7969 C27.7031,24.9063 27.2969,23.2969 26.2969,22 M16.2031,24.0938 C17.7031,24.0938 19,24.2031 19.9063,24.5 C21,25 21.5938,25.9063 21.5938,27.4063 C21.5938,28.7969 21.2031,29.6094 20.2969,30.2031 C19.4063,30.7031 18.4063,30.9063 17,30.9063 L9.40625,30.9063 L9.40625,24.0938 L16.2031,24.0938 M17.0938,36.1094 C18.4063,36.1094 19.5,36.2969 20.2031,36.6094 C21.5938,37.2031 22.2031,38.2969 22.2031,39.9063 C22.2031,41.7969 21.5,43.1094 20.2031,43.7969 C19.4063,44.1094 18.4063,44.2969 17,44.2969 L9.40625,44.2969 L9.40625,36.1094 L17.0938,36.1094 "/>
<path class="KeySig" transform="matrix(0.992,0,0,0.992,528.922,708.598)" d="M20.0938,-7.90625 C19.5,-11.7969 17.0938,-15.5 12,-15.5 C7,-15.5 4.09375,-12.4063 3.59375,-11.7969 L4,-43.9063 C4,-44.7031 3.40625,-45.2969 2.59375,-45.2969 L1.40625,-45.2969 C0.59375,-45.2969 0,-44.7031 0,-43.9063 L0.5,16.2031 C0.5,17 1.09375,17.5938 1.90625,17.5938 C2.09375,17.5938 2.5,17.5 2.70313,17.4063 C3.09375,17.2031 9.59375,14 15,7.90625 C18.7969,3.59375 20.2969,-1.29688 20.2969,-5.40625 C20.2969,-6.29688 20.2031,-7.09375 20.0938,-7.90625 M13.2031,-4 C13.2031,-2.5 12.7969,2.09375 10.2969,5.90625 C8.59375,8.5 5.20313,11.2031 3.29688,12.7031 L3.59375,-6.79688 C3.79688,-7.70313 5.29688,-10.5938 9.29688,-10.5938 C12.9063,-10.5938 13.2031,-7.20313 13.2031,-5.09375 C13.2031,-4.59375 13.2031,-4.29688 13.2031,-4"/>
<path class="KeySig" transform="matrix(0.992,0,0,0.992,556.496,671.398)" d="M20.0938,-7.90625 C19.5,-11.7969 17.0938,-15.5 12,-15.5 C7,-15.5 4.09375,-12.4063 3.59375,-11.7969 L4,-43.9063 C4,-44.7031 3.40625,-45.2969 2.59375,-45.2969 L1.40625,-45.2969 C0.59375,-45.2969 0,-44.7031 0,-43.9063 L0.5,16.2031 C0.5,17 1.09375,17.5938 1.90625,17.5938 C2.09375,17.5938 2.5,17.5 2.70313,17.4063 C3.09375,17.2031 9.59375,14 15,7.90625 C18.7969,3.59375 20.2969,-1.29688 20.2969,-5.40625 C20.2969,-6.29688 20.2031,-7.09375 20.0938,-7.90625 M13.2031,-4 C13.2031,-2.5 12.7969,2.09375 10.2969,5.90625 C8.59375,8.5 5.20313,11.2031 3.29688,12.7031 L3.59375,-6.79688 C3.79688,-7.70313 5.29688,-10.5938 9.29688,-10.5938 C12.9063,-10.5938 13.2031,-7.20313 13.2031,-5.09375 C13.2031,-4.59375 13.2031,-4.29688 13.2031,-4"/>
<path class="KeySig" transform="matrix(0.992,0,0,0.992,584.071,720.998)" d="M20.0938,-7.90625 C19.5,-11.7969 17.0938,-15.5 12,-15.5 C7,-15.5 4.09375,-12.4063 3.59375,-11.7969 L4,-43.9063 C4,-44.7031 3.40625,-45.2969 2.59375,-45.2969 L1.40625,-45.2969 C0.59375,-45.2969 0,-44.7031 0,-43.9063 L0.5,16.2031 C0.5,17 1.09375,17.5938 1.90625,17.5938 C2.09375,17.5938 2.5,17.5 2.70313,17.4063 C3.09375,17.2031 9.59375,14 15,7.90625 C18.7969,3.59375 20.2969,-1.29688 20.2969,-5.40625 C20.2969,-6.29688 20.2031,-7.09375 20.0938,-7.90625 M13.2031,-4 C13.2031,-2.5 12.7969,2.09375 10.2969,5.90625 C8.59375,8.5 5.20313,11.2031 3.29688,12.7031 L3.59375,-6.79688 C3.79688,-7.70313 5.29688,-10.5938 9.29688,-10.5938 C12.9063,-10.5938 13.2031,-7.20313 13.2031,-5.09375 C13.2031,-4.59375 13.2031,-4.29688 13.2031,-4"/>
<path class="TimeSig" transform="matrix(0.992,0,0,0.992,627.626,658.998)" d="M20.7969,12.7031 L20.7969,20.0938 L12.5,20.0938 C11.7969,20.0938 11.0938,20.7031 11.0938,21.5 L11.0938,23.4063 C11.0938,24.2031 11.7969,24.7969 12.5,24.7969 L42.7969,24.7969 C43.6094,24.7969 44.2031,24.2031 44.2031,23.4063 L44.2031,21.5 C44.2031,20.7031 43.6094,20.0938 42.7969,20.0938 L33.7969,20.0938 L33.7969,12.7031 L42.7969,12.7031 C43.6094,12.7031 44.2031,12 44.2031,11.2031 L44.2031,9.29688 C44.2031,8.59375 43.6094,7.90625 42.7969,7.90625 L33.7969,7.90625 L33.7969,-8 C33.7969,-8.59375 33.5,-9.09375 33.1094,-9.29688 L31.9063,-9.90625 C31.7031,-10 31.6094,-10 31.4063,-10 C31.2969,-10 31.2969,-10 31.2031,-10 C30.9063,-10 30.5,-9.90625 30.2969,-9.70313 L21.2031,-1.40625 C20.9063,-1.09375 20.7969,-0.703125 20.7969,-0.296875 L20.7969,7.90625 L9.20313,7.90625 C9.20313,7.90625 20.4063,-4.09375 32.2031,-19.9063 C32.6094,-20.4063 32.7031,-20.9063 32.7031,-21.2969 C32.7031,-21.7969 32.5,-22.2031 32.4063,-22.2969 L30.2031,-24.5 C29.9063,-24.7031 29.6094,-24.9063 29.2031,-24.9063 C28.6094,-24.9063 15.0938,-24.9063 14.2969,-24.9063 C13.5938,-24.9063 13.0938,-24.2969 13,-23.7031 C13,-23.7031 12.5,-16.2969 9.90625,-8.20313 C7.29688,-0.09375 4.29688,4.90625 1.70313,8.59375 C1.70313,8.59375 1.40625,9.09375 1.40625,9.70313 C1.40625,9.90625 1.40625,10.0938 1.5,10.2969 C1.79688,11 2.5,12.0938 2.5,12.0938 C2.5,12.0938 2.70313,12.7031 3.59375,12.7031 L20.7969,12.7031 "/>
<path class="TimeSig" transform="matrix(0.992,0,0,0.992,627.626,708.598)" d="M20.7969,12.7031 L20.7969,20.0938 L12.5,20.0938 C11.7969,20.0938 11.0938,20.7031 11.0938,21.5 L11.0938,23.4063 C11.0938,24.2031 11.7969,24.7969 12.5,24.7969 L42.7969,24.7969 C43.6094,24.7969 44.2031,24.2031 44.2031,23.4063 L44.2031,21.5 C44.2031,20.7031 43.6094,20.0938 42.7969,20.0938 L33.7969,20.0938 L33.7969,12.7031 L42.7969,12.7031 C43.6094,12.7031 44.2031,12 44.2031,11.2031 L44.2031,9.29688 C44.2031,8.59375 43.6094,7.90625 42.7969,7.90625 L33.7969,7.90625 L33.7969,-8 C33.7969,-8.59375 33.5,-9.09375 33.1094,-9.29688 L31.9063,-9.90625 C31.7031,-10 31.6094,-10 31.4063,-10 C31.2969,-10 31.2969,-10 31.2031,-10 C30.9063,-10 30.5,-9.90625 30.2969,-9.70313 L21.2031,-1.40625 C20.9063,-1.09375 20.7969,-0.703125 20.7969,-0.296875 L20.7969,7.90625 L9.20313,7.90625 C9.20313,7.90625 20.4063,-4.09375 32.2031,-19.9063 C32.6094,-20.4063 32.7031,-20.9063 32.7031,-21.2969 C32.7031,-21.7969 32.5,-22.2031 32.4063,-22.2969 L30.2031,-24.5 C29.9063,-24.7031 29.6094,-24.9063 29.2031,-24.9063 C28.6094,-24.9063 15.0938,-24.9063 14.2969,-24.9063 C13.5938,-24.9063 13.0938,-24.2969 13,-23.7031 C13,-23.7031 12.5,-16.2969 9.90625,-8.20313 C7.29688,-0.09375 4.29688,4.90625 1.70313,8.59375 C1.70313,8.59375 1.40625,9.09375 1.40625,9.70313 C1.40625,9.90625 1.40625,10.0938 1.5,10.2969 C1.79688,11 2.5,12.0938 2.5,12.0938 C2.5,12.0938 2.70313,12.7031 3.59375,12.7031 L20.7969,12.7031 "/>
<path class="TimeSig" transform="matrix(0.992,0,0,0.992,627.626,999.998)" d="M20.7969,12.7031 L20.7969,20.0938 L12.5,20.0938 C11.7969,20.0938 11.0938,20.7031 11.0938,21.5 L11.0938,23.4063 C11.0938,24.2031 11.7969,24.7969 12.5,24.7969 L42.7969,24.7969 C43.6094,24.7969 44.2031,24.2031 44.2031,23.4063 L44.2031,21.5 C44.2031,20.7031 43.6094,20.0938 42.7969,20.0938 L33.7969,20.0938 L33.7969,12.7031 L42.7969,12.7031 C43.6094,12.7031 44.2031,12 44.2031,11.2031 L44.2031,9.29688 C44.2031,8.59375 43.6094,7.90625 42.7969,7.90625 L33.7969,7.90625 L33.7969,-8 C33.7969,-8.59375 33.5,-9.09375 33.1094,-9.29688 L31.9063,-9.90625 C31.7031,-10 31.6094,-10 31.4063,-10 C31.2969,-10 31.2969,-10 31.2031,-10 C30.9063,-10 30.5,-9.90625 30.2969,-9.70313 L21.2031,-1.40625 C20.9063,-1.09375 20.7969,-0.703125 20.7969,-0.296875 L20.7969,7.90625 L9.20313,7.90625 C9.20313,7.90625 20.4063,-4.09375 32.2031,-19.9063 C32.6094,-20.4063 32.7031,-20.9063 32.7031,-21.2969 C32.7031,-21.7969 32.5,-22.2031 32.4063,-22.2969 L30.2031,-24.5 C29.9063,-24.7031 29.6094,-24.9063 29.2031,-24.9063 C28.6094,-24.9063 15.0938,-24.9063 14.2969,-24.9063 C13.5938,-24.9063 13.0938,-24.2969 13,-23.7031 C13,-23.7031 12.5,-16.2969 9.90625,-8.20313 C7.29688,-0.09375 4.29688,4.90625 1.70313,8.59375 C1.70313,8.59375 1.40625,9.09375 1.40625,9.70313 C1.40625,9.90625 1.40625,10.0938 1.5,10.2969 C1.79688,11 2.5,12.0938 2.5,12.0938 C2.5,12.0938 2.70313,12.7031 3.59375,12.7031 L20.7969,12.7031 "/>
<path class="TimeSig" transform="matrix(0.992,0,0,0.992,627.626,1049.6)" d="M20.7969,12.7031 L20.7969,20.0938 L12.5,20.0938 C11.7969,20.0938 11.0938,20.7031 11.0938,21.5 L11.0938,23.4063 C11.0938,24.2031 11.7969,24.7969 12.5,24.7969 L42.7969,24.7969 C43.6094,24.7969 44.2031,24.2031 44.2031,23.4063 L44.2031,21.5 C44.2031,20.7031 43.6094,20.0938 42.7969,20.0938 L33.7969,20.0938 L33.7969,12.7031 L42.7969,12.7031 C43.6094,12.7031 44.2031,12 44.2031,11.2031 L44.2031,9.29688 C44.2031,8.59375 43.6094,7.90625 42.7969,7.90625 L33.7969,7.90625 L33.7969,-8 C33.7969,-8.59375 33.5,-9.09375 33.1094,-9.29688 L31.9063,-9.90625 C31.7031,-10 31.6094,-10 31.4063,-10 C31.2969,-10 31.2969,-10 31.2031,-10 C30.9063,-10 30.5,-9.90625 30.2969,-9.70313 L21.2031,-1.40625 C20.9063,-1.09375 20.7969,-0.703125 20.7969,-0.296875 L20.7969,7.90625 L9.20313,7.90625 C9.20313,7.90625 20.4063,-4.09375 32.2031,-19.9063 C32.6094,-20.4063 32.7031,-20.9063 32.7031,-21.2969 C32.7031,-21.7969 32.5,-22.2031 32.4063,-22.2969 L30.2031,-24.5 C29.9063,-24.7031 29.6094,-24.9063 29.2031,-24.9063 C28.6094,-24.9063 15.0938,-24.9063 14.2969,-24.9063 C13.5938,-24.9063 13.0938,-24.2969 13,-23.7031 C13,-23.7031 12.5,-16.2969 9.90625,-8.20313 C7.29688,-0.09375 4.29688,4.90625 1.70313,8.59375 C1.70313,8.59375 1.40625,9.09375 1.40625,9.70313 C1.40625,9.90625 1.40625,10.0938 1.5,10.2969 C1.79688,11 2.5,12.0938 2.5,12.0938 C2.5,12.0938 2.70313,12.7031 3.59375,12.7031 L20.7969,12.7031 "/>
<path class="Rest" transform="matrix(0.992,0,0,0.992,721.06,683.798)" d="M26.7031,-20.2969 C26.6094,-20.2969 26.4063,-20.4063 26.2969,-20.4063 C25.7031,-20.4063 25.2031,-20.0938 25,-19.5938 C24.5938,-19 21.5,-13.0938 17,-9.79688 C15.7031,-8.79688 14.0938,-8.09375 12.5,-7.79688 C13.5938,-9.09375 14.2969,-10.7031 14.2969,-12.5938 C14.2969,-16.5 11.0938,-19.7031 7.20313,-19.7031 C3.20313,-19.7031 0,-16.5 0,-12.5938 C0,-9.5 1.90625,-7 4.5,-5.90625 C6,-5.20313 8,-4.70313 10,-4.70313 C12.9063,-4.70313 16,-5.59375 18.7031,-7.59375 C19.9063,-8.5 21.0938,-9.70313 22.2031,-10.9063 L10.7969,24.7031 L13.5,25.5 L27.5,-18.5938 C27.6094,-18.7031 27.6094,-18.9063 27.6094,-19.0938 C27.6094,-19.5938 27.2969,-20 26.7031,-20.2969"/>
<path class="Rest" transform="matrix(0.992,0,0,0.992,721.06,1043.4)" d="M26.7031,-20.2969 C26.6094,-20.2969 26.4063,-20.4063 26.2969,-20.4063 C25.7031,-20.4063 25.2031,-20.0938 25,-19.5938 C24.5938,-19 21.5,-13.0938 17,-9.79688 C15.7031,-8.79688 14.0938,-8.09375 12.5,-7.79688 C13.5938,-9.09375 14.2969,-10.7031 14.2969,-12.5938 C14.2969,-16.5 11.0938,-19.7031 7.20313,-19.7031 C3.20313,-19.7031 0,-16.5 0,-12.5938 C0,-9.5 1.90625,-7 4.5,-5.90625 C6,-5.20313 8,-4.70313 10,-4.70313 C12.9063,-4.70313 16,-5.59375 18.7031,-7.59375 C19.9063,-8.5 21.0938,-9.70313 22.2031,-10.9063 L10.7969,24.7031 L13.5,25.5 L27.5,-18.5938 C27.6094,-18.7031 27.6094,-18.9063 27.6094,-19.0938 C27.6094,-19.5938 27.2969,-20 26.7031,-20.2969"/>
<path class="Beam" fill-rule="evenodd" d="M2423.62,671.384 L2605.36,683.784 L2605.36,696.213 L2423.62,683.813 L2423.62,671.384 "/>
<path class="Beam" fill-rule="evenodd" d="M2423.62,652.784 L2515.73,659.069 L2515.73,671.497 L2423.62,665.213 L2423.62,652.784 "/>
<path class="Beam" fill-rule="evenodd" d="M2109.93,696.198 L2336.48,696.198 L2336.48,708.598 L2109.93,708.598 L2109.93,696.198 "/>
<path class="Beam" fill-rule="evenodd" d="M2244.37,677.598 L2336.48,677.598 L2336.48,689.998 L2244.37,689.998 L2244.37,677.598 "/>
<path class="Beam" fill-rule="evenodd" d="M2440.98,1167.4 L2622.72,1167.4 L2622.72,1179.8 L2440.98,1179.8 L2440.98,1167.4 "/>
<path class="Beam" fill-rule="evenodd" d="M2440.98,1148.8 L2533.09,1148.8 L2533.09,1161.2 L2440.98,1161.2 L2440.98,1148.8 "/>
<path class="Beam" fill-rule="evenodd" d="M2127.29,1167.4 L2353.84,1167.4 L2353.84,1179.8 L2127.29,1179.8 L2127.29,1167.4 "/>
<path class="Beam" fill-rule="evenodd" d="M2261.73,1148.8 L2353.84,1148.8 L2353.84,1161.2 L2261.73,1161.2 L2261.73,1148.8 "/>
<path class="Tempo" d="M652.954,528.77 L649.688,528.77 L649.688,571.036 C648.595,570.348 647.204,569.942 645.626,569.755 C642.063,569.755 639.188,570.145 636.017,571.927 C632.063,574.005 627.704,578.364 627.704,583.208 C627.704,584.302 627.907,585.395 628.501,586.38 C629.782,588.848 632.86,590.239 636.313,590.239 C643.251,590.239 652.954,584.302 652.954,576.77 L652.954,528.77 "/>
<path class="Tempo" d="M674.688,566.723 L704.923,566.723 L704.923,559.817 L674.688,559.817 L674.688,566.723 M674.688,579.083 L704.923,579.083 L704.923,572.177 L674.688,572.177 L674.688,579.083 M746.767,564.864 C746.767,570.552 746.532,582.317 738.485,582.317 C737.22,582.317 736.501,581.895 736.501,581.114 C736.501,580.755 736.626,580.395 736.86,580.036 C737.938,578.302 738.063,577.942 738.063,576.614 C738.063,573.739 736.032,571.755 733.032,571.755 C729.72,571.755 727.329,574.286 727.329,577.755 C727.329,582.442 731.704,585.442 738.485,585.442 C752.11,585.442 757.329,573.317 757.329,561.442 C757.329,555.927 756.126,551.833 753.61,548.427 C750.548,544.333 746.173,542.114 741.126,542.114 C732.423,542.114 726.126,548.177 726.126,556.52 C726.126,563.598 731.173,568.817 738.001,568.817 C741.72,568.817 744.251,567.677 746.767,564.864 M741.61,545.239 C745.985,545.239 746.532,552.614 746.532,555.677 C746.532,560.958 744.61,564.317 741.548,564.317 C736.798,564.317 736.501,558.567 736.501,555.145 C736.501,548.598 738.251,545.239 741.61,545.239 M785.392,569.723 L785.392,551.239 C785.392,550.333 785.501,546.442 785.751,542.114 L781.61,542.114 L759.767,569.302 L759.767,573.739 L775.97,573.739 L775.97,575.958 C775.97,579.677 775.97,579.911 775.548,580.52 C775.063,581.114 773.798,581.364 770.985,581.364 L770.329,581.364 L770.329,584.598 L790.782,584.598 L790.782,581.364 L790.126,581.364 C787.485,581.302 786.22,581.052 785.798,580.52 C785.392,579.864 785.392,579.677 785.392,575.958 L785.392,573.739 L791.392,573.739 L791.392,569.723 L785.392,569.723 M775.97,569.723 L764.142,569.723 L775.97,554.723 L775.97,569.723 "/>
<path class="NoteDot" transform="matrix(0.992,0,0,0.992,935.59,621.798)" d="M0,0 C0,2.79688 2.20313,5 5,5 C7.79688,5 10,2.79688 10,0 C10,-2.79688 7.79688,-5 5,-5 C2.20313,-5 0,-2.79688 0,0"/>
<path class="NoteDot" transform="matrix(0.992,0,0,0.992,1764.47,621.798)" d="M0,0 C0,2.79688 2.20313,5 5,5 C7.79688,5 10,2.79688 10,0 C10,-2.79688 7.79688,-5 5,-5 C2.20313,-5 0,-2.79688 0,0"/>
</svg>
