<svg width="994" height="189" xmlns="http://www.w3.org/2000/svg" xmlns:xlink="http://www.w3.org/1999/xlink" xml:space="preserve" overflow="hidden"><g transform="translate(-830 -1493)"><text fill="#4E95D9" font-family="Aptos,Aptos_MSFontService,sans-serif" font-weight="700" font-size="41" transform="matrix(1 0 0 1 855.806 1645)">1</text><text font-family="Aptos,Aptos_MSFontService,sans-serif" font-weight="400" font-size="41" transform="matrix(1 0 0 1 885.51 1645)">e</text><text font-family="Aptos,Aptos_MSFontService,sans-serif" font-weight="400" font-size="41" transform="matrix(1 0 0 1 915.213 1645)">&amp;</text><text font-family="Aptos,Aptos_MSFontService,sans-serif" font-weight="400" font-size="41" transform="matrix(1 0 0 1 944.917 1645)">a</text><text font-family="Aptos,Aptos_MSFontService,sans-serif" font-weight="700" font-size="41" transform="matrix(1 0 0 1 974.621 1645)">2</text><text font-family="Aptos,Aptos_MSFontService,sans-serif" font-weight="400" font-size="41" transform="matrix(1 0 0 1 1004.32 1645)">e</text><text font-family="Aptos,Aptos_MSFontService,sans-serif" font-weight="400" font-size="41" transform="matrix(1 0 0 1 1034.03 1645)">&amp;</text><text font-family="Aptos,Aptos_MSFontService,sans-serif" font-weight="400" font-size="41" transform="matrix(1 0 0 1 1063.73 1645)">a</text><text font-family="Aptos,Aptos_MSFontService,sans-serif" font-weight="700" font-size="41" transform="matrix(1 0 0 1 1093.44 1645)">3</text><text font-family="Aptos,Aptos_MSFontService,sans-serif" font-weight="400" font-size="41" transform="matrix(1 0 0 1 1123.14 1645)">e</text><text font-family="Aptos,Aptos_MSFontService,sans-serif" font-weight="400" font-size="41" transform="matrix(1 0 0 1 1152.84 1645)">&amp;</text><text font-family="Aptos,Aptos_MSFontService,sans-serif" font-weight="400" font-size="41" transform="matrix(1 0 0 1 1182.55 1645)">a</text><text font-family="Aptos,Aptos_MSFontService,sans-serif" font-weight="700" font-size="41" transform="matrix(1 0 0 1 1212.25 1645)">4</text><text font-family="Aptos,Aptos_MSFontService,sans-serif" font-weight="400" font-size="41" transform="matrix(1 0 0 1 1241.96 1645)">e</text><text font-family="Aptos,Aptos_MSFontService,sans-serif" font-weight="400" font-size="41" transform="matrix(1 0 0 1 1271.66 1645)">&amp;</text><text font-family="Aptos,Aptos_MSFontService,sans-serif" font-weight="400" font-size="41" transform="matrix(1 0 0 1 1301.36 1645)">a</text><path d="M932.219 1521.5 932.219 1574.79 928.782 1574.79 928.781 1521.5ZM944.25 1570.21 930.5 1597.71 916.75 1570.21Z"/><path d="M1.71875-8.13941e-06 1.719 53.2908-1.7185 53.2908-1.71875 8.13941e-06ZM13.7502 48.7074 0.000360892 76.2075-13.7498 48.7075Z" transform="matrix(1 0 0 -1 1016.5 1597.71)"/><path d="M1108.22 1521.5 1108.22 1574.79 1104.78 1574.79 1104.78 1521.5ZM1120.25 1570.21 1106.5 1597.71 1092.75 1570.21Z"/><path d="M1285.22 1521.5 1285.22 1574.79 1281.78 1574.79 1281.78 1521.5ZM1297.25 1570.21 1283.5 1597.71 1269.75 1570.21Z"/><path d="M1.71875-8.13941e-06 1.719 53.2908-1.7185 53.2908-1.71875 8.13941e-06ZM13.7502 48.7074 0.000360892 76.2075-13.7498 48.7075Z" transform="matrix(1 0 0 -1 956.5 1597.71)"/><path d="M1.71875-8.13941e-06 1.719 53.2908-1.7185 53.2908-1.71875 8.13941e-06ZM13.7502 48.7074 0.000360892 76.2075-13.7498 48.7075Z" transform="matrix(1 0 0 -1 1255.5 1597.71)"/><path d="M1.71875-8.13941e-06 1.719 53.2908-1.7185 53.2908-1.71875 8.13941e-06ZM13.7502 48.7074 0.000360892 76.2075-13.7498 48.7075Z" transform="matrix(1 0 0 -1 1195.5 1597.71)"/><path d="M1344.22 1521.5 1344.22 1574.79 1340.78 1574.79 1340.78 1521.5ZM1356.25 1570.21 1342.5 1597.71 1328.75 1570.21Z" fill="#4E95D9"/><path d="M1.71875-8.13941e-06 1.719 53.2908-1.7185 53.2908-1.71875 8.13941e-06ZM13.7502 48.7074 0.000360892 76.2075-13.7498 48.7075Z" transform="matrix(1 0 0 -1 1607.5 1597.71)"/><path d="M1756.22 1521.5 1756.22 1574.79 1752.78 1574.79 1752.78 1521.5ZM1768.25 1570.21 1754.5 1597.71 1740.75 1570.21Z"/><path d="M1054.22 1521.5 1054.22 1574.79 1050.78 1574.79 1050.78 1521.5ZM1066.25 1570.21 1052.5 1597.71 1038.75 1570.21Z"/><path d="M1.71875-8.13941e-06 1.719 53.2908-1.7185 53.2908-1.71875 8.13941e-06ZM13.7502 48.7074 0.000360892 76.2075-13.7498 48.7075Z" transform="matrix(1 0 0 -1 1666.5 1597.71)"/><path d="M1643.22 1521.5 1643.22 1574.79 1639.78 1574.79 1639.78 1521.5ZM1655.25 1570.21 1641.5 1597.71 1627.75 1570.21Z"/><path d="M1.71875-8.13941e-06 1.719 53.2908-1.7185 53.2908-1.71875 8.13941e-06ZM13.7502 48.7074 0.000360892 76.2075-13.7498 48.7075Z" transform="matrix(-1 0 0 1 1696.5 1521.5)"/><path d="M1546.78 1597.71 1546.78 1544.42 1550.22 1544.42 1550.22 1597.71ZM1534.75 1549 1548.5 1521.5 1562.25 1549Z"/><path d="M1.71875-8.13941e-06 1.719 53.2908-1.7185 53.2908-1.71875 8.13941e-06ZM13.7502 48.7074 0.000360892 76.2075-13.7498 48.7075Z" transform="matrix(1 0 0 -1 1725.5 1597.71)"/><text fill="#4E95D9" font-family="Aptos,Aptos_MSFontService,sans-serif" font-weight="700" font-size="41" transform="matrix(1 0 0 1 1330.8 1645)">1</text><text font-family="Aptos,Aptos_MSFontService,sans-serif" font-weight="400" font-size="41" transform="matrix(1 0 0 1 1360.5 1645)">e</text><text font-family="Aptos,Aptos_MSFontService,sans-serif" font-weight="400" font-size="41" transform="matrix(1 0 0 1 1390.21 1645)">&amp;</text><text font-family="Aptos,Aptos_MSFontService,sans-serif" font-weight="400" font-size="41" transform="matrix(1 0 0 1 1419.91 1645)">a</text><text font-family="Aptos,Aptos_MSFontService,sans-serif" font-weight="700" font-size="41" transform="matrix(1 0 0 1 1449.61 1645)">2</text><text font-family="Aptos,Aptos_MSFontService,sans-serif" font-weight="400" font-size="41" transform="matrix(1 0 0 1 1479.32 1645)">e</text><text font-family="Aptos,Aptos_MSFontService,sans-serif" font-weight="400" font-size="41" transform="matrix(1 0 0 1 1509.02 1645)">&amp;</text><text font-family="Aptos,Aptos_MSFontService,sans-serif" font-weight="400" font-size="41" transform="matrix(1 0 0 1 1538.72 1645)">a</text><text font-family="Aptos,Aptos_MSFontService,sans-serif" font-weight="700" font-size="41" transform="matrix(1 0 0 1 1568.43 1645)">3</text><text font-family="Aptos,Aptos_MSFontService,sans-serif" font-weight="400" font-size="41" transform="matrix(1 0 0 1 1598.13 1645)">e</text><text font-family="Aptos,Aptos_MSFontService,sans-serif" font-weight="400" font-size="41" transform="matrix(1 0 0 1 1627.84 1645)">&amp;</text><text font-family="Aptos,Aptos_MSFontService,sans-serif" font-weight="400" font-size="41" transform="matrix(1 0 0 1 1657.54 1645)">a</text><text font-family="Aptos,Aptos_MSFontService,sans-serif" font-weight="700" font-size="41" transform="matrix(1 0 0 1 1687.24 1645)">4</text><text font-family="Aptos,Aptos_MSFontService,sans-serif" font-weight="400" font-size="41" transform="matrix(1 0 0 1 1716.95 1645)">e</text><text font-family="Aptos,Aptos_MSFontService,sans-serif" font-weight="400" font-size="41" transform="matrix(1 0 0 1 1746.65 1645)">&amp;</text><text font-family="Aptos,Aptos_MSFontService,sans-serif" font-weight="400" font-size="41" transform="matrix(1 0 0 1 1776.35 1645)">a</text><text font-family="Aptos,Aptos_MSFontService,sans-serif" font-weight="400" font-size="41" transform="matrix(1 0 0 1 1156.67 1594)">x</text><text font-family="Aptos,Aptos_MSFontService,sans-serif" font-weight="400" font-size="41" transform="matrix(1 0 0 1 858.647 1593)">x</text><text font-family="Aptos,Aptos_MSFontService,sans-serif" font-weight="400" font-size="41" transform="matrix(1 0 0 1 885.545 1594)">x</text></g></svg>