<svg width="1039" height="188" xmlns="http://www.w3.org/2000/svg" xmlns:xlink="http://www.w3.org/1999/xlink" xml:space="preserve" overflow="hidden"><g transform="translate(-787 -1172)"><path d="M817.219 1200.5 817.219 1253.79 813.781 1253.79 813.781 1200.5ZM829.25 1249.21 815.5 1276.71 801.75 1249.21Z"/><path d="M1.71875-8.13941e-06 1.719 53.2908-1.7185 53.2908-1.71875 8.13941e-06ZM13.7502 48.7074 0.000360892 76.2075-13.7498 48.7075Z" transform="matrix(1 0 0 -1 844.5 1276.71)"/><text fill="#4E95D9" font-family="Aptos,Aptos_MSFontService,sans-serif" font-weight="700" font-size="41" transform="matrix(1 0 0 1 858.099 1324)">1</text><text font-family="Aptos,Aptos_MSFontService,sans-serif" font-weight="400" font-size="41" transform="matrix(1 0 0 1 887.803 1324)">e</text><text font-family="Aptos,Aptos_MSFontService,sans-serif" font-weight="400" font-size="41" transform="matrix(1 0 0 1 917.507 1324)">&amp;</text><text font-family="Aptos,Aptos_MSFontService,sans-serif" font-weight="400" font-size="41" transform="matrix(1 0 0 1 947.211 1324)">a</text><text font-family="Aptos,Aptos_MSFontService,sans-serif" font-weight="700" font-size="41" transform="matrix(1 0 0 1 976.914 1324)">2</text><text font-family="Aptos,Aptos_MSFontService,sans-serif" font-weight="400" font-size="41" transform="matrix(1 0 0 1 1006.62 1324)">e</text><text font-family="Aptos,Aptos_MSFontService,sans-serif" font-weight="400" font-size="41" transform="matrix(1 0 0 1 1036.32 1324)">&amp;</text><text font-family="Aptos,Aptos_MSFontService,sans-serif" font-weight="400" font-size="41" transform="matrix(1 0 0 1 1066.03 1324)">a</text><text font-family="Aptos,Aptos_MSFontService,sans-serif" font-weight="700" font-size="41" transform="matrix(1 0 0 1 1095.73 1324)">3</text><text font-family="Aptos,Aptos_MSFontService,sans-serif" font-weight="400" font-size="41" transform="matrix(1 0 0 1 1125.43 1324)">e</text><text font-family="Aptos,Aptos_MSFontService,sans-serif" font-weight="400" font-size="41" transform="matrix(1 0 0 1 1155.14 1324)">&amp;</text><text font-family="Aptos,Aptos_MSFontService,sans-serif" font-weight="400" font-size="41" transform="matrix(1 0 0 1 1184.84 1324)">a</text><text font-family="Aptos,Aptos_MSFontService,sans-serif" font-weight="700" font-size="41" transform="matrix(1 0 0 1 1214.55 1324)">4</text><text font-family="Aptos,Aptos_MSFontService,sans-serif" font-weight="400" font-size="41" transform="matrix(1 0 0 1 1244.25 1324)">e</text><text font-family="Aptos,Aptos_MSFontService,sans-serif" font-weight="400" font-size="41" transform="matrix(1 0 0 1 1273.95 1324)">&amp;</text><text font-family="Aptos,Aptos_MSFontService,sans-serif" font-weight="400" font-size="41" transform="matrix(1 0 0 1 1303.66 1324)">a</text><path d="M876.219 1200.5 876.219 1253.79 872.781 1253.79 872.781 1200.5ZM888.25 1249.21 874.5 1276.71 860.75 1249.21Z" fill="#4E95D9"/><path d="M932.219 1200.5 932.219 1253.79 928.782 1253.79 928.781 1200.5ZM944.25 1249.21 930.5 1276.71 916.75 1249.21Z"/><path d="M1052.22 1200.5 1052.22 1253.79 1048.78 1253.79 1048.78 1200.5ZM1064.25 1249.21 1050.5 1276.71 1036.75 1249.21Z"/><path d="M1.71875-8.13941e-06 1.719 53.2908-1.7185 53.2908-1.71875 8.13941e-06ZM13.7502 48.7074 0.000360892 76.2075-13.7498 48.7075Z" transform="matrix(1 0 0 -1 1139.5 1276.71)"/><path d="M1288.22 1200.5 1288.22 1253.79 1284.78 1253.79 1284.78 1200.5ZM1300.25 1249.21 1286.5 1276.71 1272.75 1249.21Z"/><path d="M1406.22 1200.5 1406.22 1253.79 1402.78 1253.79 1402.78 1200.5ZM1418.25 1249.21 1404.5 1276.71 1390.75 1249.21Z"/><path d="M1.71875-8.13941e-06 1.719 53.2908-1.7185 53.2908-1.71875 8.13941e-06ZM13.7502 48.7074 0.000360892 76.2075-13.7498 48.7075Z" transform="matrix(1 0 0 -1 1080.5 1276.71)"/><path d="M1.71875-8.13941e-06 1.719 53.2908-1.7185 53.2908-1.71875 8.13941e-06ZM13.7502 48.7074 0.000360892 76.2075-13.7498 48.7075Z" transform="matrix(1 0 0 -1 1315.5 1276.71)"/><path d="M1.71875-8.13941e-06 1.719 53.2908-1.7185 53.2908-1.71875 8.13941e-06ZM13.7502 48.7074 0.000360892 76.2075-13.7498 48.7075Z" transform="matrix(1 0 0 -1 1197.5 1276.71)"/><path d="M1347.22 1200.5 1347.22 1253.79 1343.78 1253.79 1343.78 1200.5ZM1359.25 1249.21 1345.5 1276.71 1331.75 1249.21Z" fill="#4E95D9"/><path d="M1.71875-8.13941e-06 1.719 53.2908-1.7185 53.2908-1.71875 8.13941e-06ZM13.7502 48.7074 0.000360892 76.2075-13.7498 48.7075Z" transform="matrix(1 0 0 -1 1610.5 1276.71)"/><path d="M1759.22 1200.5 1759.22 1253.79 1755.78 1253.79 1755.78 1200.5ZM1771.25 1249.21 1757.5 1276.71 1743.75 1249.21Z"/><path d="M1229.22 1200.5 1229.22 1253.79 1225.78 1253.79 1225.78 1200.5ZM1241.25 1249.21 1227.5 1276.71 1213.75 1249.21Z"/><path d="M1.71875-8.13941e-06 1.719 53.2908-1.7185 53.2908-1.71875 8.13941e-06ZM13.7502 48.7074 0.000360892 76.2075-13.7498 48.7075Z" transform="matrix(1 0 0 -1 1668.5 1276.71)"/><path d="M1523.22 1200.5 1523.22 1253.79 1519.78 1253.79 1519.78 1200.5ZM1535.25 1249.21 1521.5 1276.71 1507.75 1249.21Z"/><path d="M1.71875-8.13941e-06 1.719 53.2908-1.7185 53.2908-1.71875 8.13941e-06ZM13.7502 48.7074 0.000360892 76.2075-13.7498 48.7075Z" transform="matrix(-1 0 0 1 1698.5 1200.5)"/><path d="M1784.78 1276.71 1784.78 1223.42 1788.22 1223.42 1788.22 1276.71ZM1772.75 1228 1786.5 1200.5 1800.25 1228Z"/><path d="M1549.78 1276.71 1549.78 1223.42 1553.22 1223.42 1553.22 1276.71ZM1537.75 1228 1551.5 1200.5 1565.25 1228Z"/><path d="M1.71875-8.13941e-06 1.719 53.2908-1.7185 53.2908-1.71875 8.13941e-06ZM13.7502 48.7074 0.000360892 76.2075-13.7498 48.7075Z" transform="matrix(1 0 0 -1 1727.5 1276.71)"/><text fill="#4E95D9" font-family="Aptos,Aptos_MSFontService,sans-serif" font-weight="700" font-size="41" transform="matrix(1 0 0 1 1333.09 1324)">1</text><text font-family="Aptos,Aptos_MSFontService,sans-serif" font-weight="400" font-size="41" transform="matrix(1 0 0 1 1362.8 1324)">e</text><text font-family="Aptos,Aptos_MSFontService,sans-serif" font-weight="400" font-size="41" transform="matrix(1 0 0 1 1392.5 1324)">&amp;</text><text font-family="Aptos,Aptos_MSFontService,sans-serif" font-weight="400" font-size="41" transform="matrix(1 0 0 1 1422.2 1324)">a</text><text font-family="Aptos,Aptos_MSFontService,sans-serif" font-weight="700" font-size="41" transform="matrix(1 0 0 1 1451.91 1324)">2</text><text font-family="Aptos,Aptos_MSFontService,sans-serif" font-weight="400" font-size="41" transform="matrix(1 0 0 1 1481.61 1324)">e</text><text font-family="Aptos,Aptos_MSFontService,sans-serif" font-weight="400" font-size="41" transform="matrix(1 0 0 1 1511.31 1324)">&amp;</text><text font-family="Aptos,Aptos_MSFontService,sans-serif" font-weight="400" font-size="41" transform="matrix(1 0 0 1 1541.02 1324)">a</text><text font-family="Aptos,Aptos_MSFontService,sans-serif" font-weight="700" font-size="41" transform="matrix(1 0 0 1 1570.72 1324)">3</text><text font-family="Aptos,Aptos_MSFontService,sans-serif" font-weight="400" font-size="41" transform="matrix(1 0 0 1 1600.43 1324)">e</text><text font-family="Aptos,Aptos_MSFontService,sans-serif" font-weight="400" font-size="41" transform="matrix(1 0 0 1 1630.13 1324)">&amp;</text><text font-family="Aptos,Aptos_MSFontService,sans-serif" font-weight="400" font-size="41" transform="matrix(1 0 0 1 1659.83 1324)">a</text><text font-family="Aptos,Aptos_MSFontService,sans-serif" font-weight="700" font-size="41" transform="matrix(1 0 0 1 1689.54 1324)">4</text><text font-family="Aptos,Aptos_MSFontService,sans-serif" font-weight="400" font-size="41" transform="matrix(1 0 0 1 1719.24 1324)">e</text><text font-family="Aptos,Aptos_MSFontService,sans-serif" font-weight="400" font-size="41" transform="matrix(1 0 0 1 1748.94 1324)">&amp;</text><text font-family="Aptos,Aptos_MSFontService,sans-serif" font-weight="400" font-size="41" transform="matrix(1 0 0 1 1778.65 1324)">a</text><text font-family="Aptos,Aptos_MSFontService,sans-serif" font-weight="400" font-size="41" transform="matrix(1 0 0 1 982.275 1272)">x</text><text font-family="Aptos,Aptos_MSFontService,sans-serif" font-weight="400" font-size="41" transform="matrix(1 0 0 1 1009.17 1273)">x</text><text font-family="Aptos,Aptos_MSFontService,sans-serif" font-weight="400" font-size="41" transform="matrix(1 0 0 1 1099.15 1272)">x</text><text font-family="Aptos,Aptos_MSFontService,sans-serif" font-weight="400" font-size="41" transform="matrix(1 0 0 1 1158.96 1273)">x</text><text font-family="Aptos,Aptos_MSFontService,sans-serif" font-weight="400" font-size="41" transform="matrix(1 0 0 1 1457.31 1274)">x</text><text font-family="Aptos,Aptos_MSFontService,sans-serif" font-weight="400" font-size="41" transform="matrix(1 0 0 1 1484.2 1275)">x</text><text font-family="Aptos,Aptos_MSFontService,sans-serif" font-weight="400" font-size="41" transform="matrix(1 0 0 1 1570.97 1275)">x</text><text font-family="Aptos,Aptos_MSFontService,sans-serif" font-weight="400" font-size="41" transform="matrix(1 0 0 1 1630.78 1275)">x</text></g></svg>